<?xml version="1.0" encoding="utf-8"?>
<!-- Generator: Adobe Illustrator 22.0.1, SVG Export Plug-In . SVG Version: 6.00 Build 0)  -->
<svg version="1.1" id="Layer_1" xmlns="http://www.w3.org/2000/svg" xmlns:xlink="http://www.w3.org/1999/xlink" x="0px" y="0px"
	 viewBox="0 0 20 20" style="enable-background:new 0 0 20 20;" xml:space="preserve">
<style type="text/css">
	.st0{fill:none;stroke:#000000;stroke-width:0.5;stroke-miterlimit:10;}
</style>
<title>info</title>
<desc>Created with Sketch.</desc>
<g id="Icons">
	<g id="Outlined" transform="translate(-442.000000, -288.000000)">
		<g id="Action" transform="translate(100.000000, 100.000000)">
			<g id="Outlined-_x2F_-Action-_x2F_-info" transform="translate(340.000000, 186.000000)">
				<g>
					<path id="_xD83D__xDD39_-Icon-Color" class="st0" d="M11.1,7.3H13v1.9h-1.9V7.3z M11.1,11.1H13v5.7h-1.9V11.1z M12,2.5
						c-5.2,0-9.5,4.3-9.5,9.5s4.3,9.5,9.5,9.5s9.5-4.3,9.5-9.5S17.2,2.5,12,2.5z M12,19.6c-4.2,0-7.6-3.4-7.6-7.6S7.8,4.4,12,4.4
						s7.6,3.4,7.6,7.6S16.2,19.6,12,19.6z"/>
				</g>
			</g>
		</g>
	</g>
</g>
</svg>
