<?xml version="1.0" encoding="utf-8"?>
<!-- Generator: Adobe Illustrator 22.0.1, SVG Export Plug-In . SVG Version: 6.00 Build 0)  -->
<svg version="1.1" id="Layer_1" xmlns="http://www.w3.org/2000/svg" xmlns:xlink="http://www.w3.org/1999/xlink" x="0px" y="0px"
	 viewBox="0 0 20 20" style="enable-background:new 0 0 20 20;" xml:space="preserve">
<style type="text/css">
	.st0{fill:#FFFFFF;}
</style>
<title>info</title>
<desc>Created with Sketch.</desc>
<g id="Icons">
	<g id="Outlined" transform="translate(-442.000000, -288.000000)">
		<g id="Action" transform="translate(100.000000, 100.000000)">
			<g id="Outlined-_x2F_-Action-_x2F_-info" transform="translate(340.000000, 186.000000)">
				<g>
					<path id="_xD83D__xDD39_-Icon-Color" class="st0" d="M11,7h2v2h-2V7z M11,11h2v6h-2V11z M12,2C6.5,2,2,6.5,2,12s4.5,10,10,10
						s10-4.5,10-10S17.5,2,12,2z M12,20c-4.4,0-8-3.6-8-8s3.6-8,8-8s8,3.6,8,8S16.4,20,12,20z"/>
				</g>
			</g>
		</g>
	</g>
</g>
</svg>
