<?xml version="1.0" encoding="utf-8"?>
<!-- Generator: Adobe Illustrator 22.0.1, SVG Export Plug-In . SVG Version: 6.00 Build 0)  -->
<svg version="1.1" id="Layer_1" xmlns="http://www.w3.org/2000/svg" xmlns:xlink="http://www.w3.org/1999/xlink" x="0px" y="0px"
	 viewBox="0 0 20 20" style="enable-background:new 0 0 20 20;" xml:space="preserve">
<style type="text/css">
	.st0{fill:#FFFFFF;}
</style>
<title>info</title>
<desc>Created with Sketch.</desc>
<g>
	<g>
		<g>
			<path class="st0" d="M19.5,8.6c0-0.3-0.1-0.6-0.3-0.8c-0.1-0.1-0.3-0.2-0.4-0.3c0.2-0.4,0.2-1-0.2-1.3C18.5,6.1,18.3,6,18.1,6
				c0.1-0.4,0-0.8-0.3-1.1c-0.3-0.3-0.8-0.4-1.2-0.2c-0.1-0.2-0.1-0.3-0.3-0.5c-0.2-0.2-0.4-0.3-0.7-0.3c0.1-0.6-0.1-1.1-0.5-1.6
				c-0.2-0.2-0.6-0.2-0.8,0l-3.2,3.2c-0.4,0.4-0.5,0.9-0.5,1.4l0.4,2c0,0.4-0.1,0.8-0.4,1L7,13.1l-0.7,0.6l-3.3,3
				c-0.1,0.1-0.1,0.3,0,0.5c0.1,0.1,0.3,0.1,0.5,0l2.9-2.6L7,14l4-3.6c0.4-0.4,0.7-1,0.6-1.6l-0.2-2.1c0-0.3,0.1-0.6,0.3-0.9
				l3.2-3.2c0.4,0.4,0.3,1-0.1,1.4l-1.1,1.1c-0.3,0.3-0.4,0.7-0.3,1.1c0,0.1,0.3,1.3-0.4,1.9c-0.1,0.1-0.1,0.3,0,0.5
				c0.1,0.1,0.3,0.1,0.4,0c0.2-0.2,0.4-0.5,0.5-0.8s0.2-0.6,0.2-1c0.1,0,0.2,0,0.3,0c0,0.3,0.1,0.6,0.3,0.8c0.2,0.2,0.5,0.3,0.8,0.3
				c0,0.3,0.2,0.7,0.4,0.9C16.1,8.9,16.3,9,16.5,9c0,0.3,0.1,0.6,0.3,0.8C16.9,9.9,17,10,17.2,10l-1,1c-0.1,0.1-0.3,0.2-0.5,0.3
				L14.6,12c-0.4,0.1-0.7,0.4-0.9,0.7c-1.3,1.8-2.6,3.6-3.9,5.4c-0.2,0.3-0.2,0.6-0.1,0.7c0.1,0.1,0.3,0,0.5-0.1
				c1.3-1.8,2.7-3.7,4-5.5c0.1-0.2,0.3-0.4,0.6-0.4l1.4-0.5c0.3-0.1,0.5-0.2,0.7-0.4l1.7-1.7l0,0l0.7-0.7c0.1-0.1,0.2-0.2,0.2-0.3
				C19.5,8.8,19.5,8.7,19.5,8.6z M18.3,7c0,0.1,0,0.2-0.1,0.3L17,8.5c-0.2,0.2-0.4,0.2-0.6,0s-0.2-0.4,0-0.6l1.2-1.2
				c0.2-0.2,0.4-0.2,0.6,0C18.3,6.8,18.3,6.9,18.3,7L18.3,7z M17.1,5.2c0.1,0,0.2,0,0.3,0.1c0.2,0.2,0.2,0.4,0,0.6l-1.5,1.5
				c-0.2,0.2-0.4,0.2-0.6,0c-0.2-0.2-0.2-0.4,0-0.6l1.5-1.5C16.9,5.2,17,5.2,17.1,5.2L17.1,5.2z M16.1,4.9c0,0.1,0,0.2-0.1,0.3
				l-1.2,1.2c-0.2,0.2-0.5,0.2-0.7-0.1C14,6.1,14,5.9,14.2,5.7l1.2-1.2c0.2-0.2,0.4-0.2,0.6,0C16.1,4.7,16.1,4.8,16.1,4.9z
				 M18.8,8.9L18,9.6c-0.2,0.2-0.4,0.2-0.6,0s-0.2-0.4,0-0.6l0.7-0.7c0.2-0.2,0.4-0.2,0.6,0S18.9,8.7,18.8,8.9L18.8,8.9z"/>
			<path class="st0" d="M11.3,16.5c-0.1-0.1-0.3-0.1-0.5,0.1l-1.2,1.7c-0.1,0.1-0.1,0.3,0.1,0.5c0.1,0.1,0.3,0.1,0.5-0.1l1.2-1.7
				C11.5,16.8,11.4,16.6,11.3,16.5z"/>
		</g>
	</g>
	<g>
		<path class="st0" d="M0.6,5.9C0.3,6.2,0.3,6.7,0.6,7c0.3,0.3,0.8,0.3,1.1,0L1.8,7l0.6,0.6L2.1,7.9C1.8,8.2,1.8,8.7,2.1,9
			C2.4,9.3,2.7,9.3,3,9.2l2.7,2.7C6,12.1,6.3,12.2,6.6,12L7,12.4c0.2,0.2,0.6,0.2,0.9,0l0.1-0.1l1,1c0.1,0.1,0.3,0.1,0.4,0
			c0.1-0.1,0.1-0.3,0-0.4l-1-1l0.1-0.1c0.2-0.2,0.2-0.6,0-0.9L8,10.7c0.1-0.3,0.1-0.7-0.2-0.9L5.1,7.1C5.3,6.8,5.2,6.4,5,6.2
			c-0.3-0.3-0.8-0.3-1.1,0L3.6,6.5L2.9,5.9L3,5.8C3.3,5.5,3.3,5,3,4.7c-0.3-0.3-0.8-0.3-1.1,0L0.6,5.9L0.6,5.9z M7,11.7l0.6-0.6
			L8,11.4c0,0,0,0.1,0,0.1L7.5,12c0,0-0.1,0-0.1,0L7,11.7z M4.4,9.8l1.4-1.4l0.4,0.4L5.8,9.1c-0.1,0.1-0.1,0.3,0,0.4
			c0.1,0.1,0.3,0.1,0.4,0l0.3-0.3l0.4,0.4L6.6,9.9c-0.1,0.1-0.1,0.3,0,0.4c0.1,0.1,0.3,0.1,0.4,0l0.3-0.3l0.2,0.2
			c0.1,0.1,0.1,0.3,0,0.4l-1,1c-0.1,0.1-0.3,0.1-0.4,0L4.4,9.8z M3.4,8.8l1.4-1.4l0.6,0.6L4,9.4L3.4,8.8z M2.5,8.7
			c-0.1-0.1-0.1-0.3,0-0.4l1.7-1.7c0.1-0.1,0.3-0.1,0.4,0c0.1,0.1,0.1,0.3,0,0.4L2.9,8.7C2.8,8.8,2.6,8.8,2.5,8.7L2.5,8.7z M2.2,6.6
			l0.4-0.4l0.6,0.6L2.8,7.2L2.2,6.6z M1,6.3l1.2-1.2C2.4,5,2.5,5,2.6,5.1s0.1,0.3,0,0.4L1.4,6.7C1.3,6.8,1.1,6.8,1,6.7
			C0.9,6.6,0.9,6.4,1,6.3z"/>
	</g>
</g>
</svg>
