<?xml version="1.0" encoding="utf-8"?>
<!-- Generator: Adobe Illustrator 22.0.1, SVG Export Plug-In . SVG Version: 6.00 Build 0)  -->
<svg version="1.1" id="Layer_1" xmlns="http://www.w3.org/2000/svg" xmlns:xlink="http://www.w3.org/1999/xlink" x="0px" y="0px"
	 viewBox="0 0 20 20" style="enable-background:new 0 0 20 20;" xml:space="preserve">
<style type="text/css">
	.st0{fill:none;stroke:#000000;stroke-width:0.75;stroke-miterlimit:10;}
</style>
<title>info</title>
<desc>Created with Sketch.</desc>
<g id="Icons">
	<g id="Outlined" transform="translate(-442.000000, -288.000000)">
		<g id="Action" transform="translate(100.000000, 100.000000)">
			<g id="Outlined-_x2F_-Action-_x2F_-info" transform="translate(340.000000, 186.000000)">
				<g>
					<path id="_xD83D__xDD39_-Icon-Color" class="st0" d="M11.1,7.4H13v1.9h-1.9V7.4z M11.1,11.1H13v5.6h-1.9V11.1z M12,2.6
						c-5.1,0-9.4,4.2-9.4,9.4s4.2,9.4,9.4,9.4s9.4-4.2,9.4-9.4S17.1,2.6,12,2.6z M12,19.5c-4.1,0-7.5-3.4-7.5-7.5S7.9,4.5,12,4.5
						s7.5,3.4,7.5,7.5S16.1,19.5,12,19.5z"/>
				</g>
			</g>
		</g>
	</g>
</g>
</svg>
