<?xml version="1.0" encoding="utf-8"?>
<!-- Generator: Adobe Illustrator 22.0.1, SVG Export Plug-In . SVG Version: 6.00 Build 0)  -->
<svg version="1.1" id="Layer_1" xmlns="http://www.w3.org/2000/svg" xmlns:xlink="http://www.w3.org/1999/xlink" x="0px" y="0px"
	 viewBox="0 0 20 20" style="enable-background:new 0 0 20 20;" xml:space="preserve">
<style type="text/css">
	.st0{fill:none;stroke:#FFFFFF;stroke-miterlimit:10;}
	.st1{fill:#FFFFFF;}
</style>
<title>info</title>
<desc>Created with Sketch.</desc>
<g>
	<path class="st0" d="M1.1,7.7c1.3-4.9,6.4-7.8,11.3-6.5s7.8,6.4,6.5,11.3S12.5,20.3,7.6,19S-0.2,12.6,1.1,7.7"/>
	<path class="st1" d="M7.4,7.5c-0.2,0.7-0.7,1.1-1.1,1S5.7,7.8,5.9,7.1C6.1,6.4,6.6,6,7,6.1S7.6,6.8,7.4,7.5"/>
	<path class="st1" d="M15.4,10.1c-0.1-0.8-0.6-1.4-1.4-1.6c-0.7-0.2-1.5,0.1-2,0.7c-0.1,0.1-0.1,0.3,0,0.4c0.1,0.1,0.2,0.1,0.4,0.1
		c0.7-0.4,1.7-0.6,2.4,0.7c0,0.1,0.1,0.1,0.2,0.1c0.1,0,0.1,0,0.2,0C15.4,10.4,15.5,10.2,15.4,10.1"/>
	<path class="st1" d="M5.5,11c-0.2-0.3-0.7-0.1-0.6,0.2c0.2,2,1.7,3.7,3.7,4.3c2,0.5,4.1-0.2,5.3-1.8c0.2-0.3-0.1-0.7-0.4-0.5
		C11.7,14.2,8.1,15.4,5.5,11"/>
</g>
</svg>
