<?xml version="1.0" encoding="utf-8"?>
<!-- Generator: Adobe Illustrator 22.0.1, SVG Export Plug-In . SVG Version: 6.00 Build 0)  -->
<svg version="1.1" id="Layer_1" xmlns="http://www.w3.org/2000/svg" xmlns:xlink="http://www.w3.org/1999/xlink" x="0px" y="0px"
	 viewBox="0 0 20 20" style="enable-background:new 0 0 20 20;" xml:space="preserve">
<style type="text/css">
	.st0{fill:#FFFFFF;}
</style>
<g>
	<g>
		<path class="st0" d="M10.1,7.5H3.3C3.1,7.5,3,7.7,3,7.8C3,8,3.1,8.1,3.3,8.1h6.8c0.1,0,0.3-0.1,0.3-0.3
			C10.3,7.7,10.2,7.5,10.1,7.5z"/>
		<path class="st0" d="M10.1,9.4H3.3C3.1,9.4,3,9.5,3,9.7S3.1,10,3.3,10h6.8c0.1,0,0.3-0.1,0.3-0.3S10.2,9.4,10.1,9.4z"/>
		<path class="st0" d="M10.1,11.3H3.3c-0.1,0-0.3,0.1-0.3,0.3c0,0.1,0.1,0.3,0.3,0.3h6.8c0.1,0,0.3-0.1,0.3-0.3
			C10.3,11.4,10.2,11.3,10.1,11.3z"/>
		<path class="st0" d="M10.3,13.4c0-0.1-0.1-0.3-0.3-0.3H3.3c-0.1,0-0.3,0.1-0.3,0.3c0,0.1,0.1,0.3,0.3,0.3h6.8
			C10.2,13.7,10.3,13.6,10.3,13.4z"/>
		<path class="st0" d="M3.3,15.9C3.1,15.9,3,16,3,16.1s0.1,0.3,0.3,0.3h3.4c0.1,0,0.3-0.1,0.3-0.3c0-0.1-0.1-0.3-0.3-0.3L3.3,15.9
			L3.3,15.9z"/>
		<path class="st0" d="M13.1,4.4V3.5c0-0.3-0.3-0.6-0.6-0.6H7.1C6.7,3,6.5,3.2,6.5,3.5v0.9C6.5,4.7,6.7,5,7.1,5h0.5
			c0.1,0,0.3-0.1,0.3-0.3c0-0.1-0.1-0.3-0.3-0.3H7.1c0,0-0.1,0-0.1-0.1V3.5c0,0,0-0.1,0.1-0.1h5.4c0,0,0.1,0,0.1,0.1v0.9
			c0,0,0,0.1-0.1,0.1H8.8c-0.1,0-0.3,0.1-0.3,0.3C8.5,4.9,8.6,5,8.8,5h3.7C12.9,5,13.1,4.7,13.1,4.4z"/>
		<path class="st0" d="M15.1,17.3c-0.1,0-0.3,0.1-0.3,0.3V18c0,0.4-0.4,0.8-0.8,0.8H2.3c-0.4,0-0.8-0.4-0.8-0.8V5.2
			c0-0.1,0-0.1,0-0.2H4c0.5,0,0.9-0.4,0.9-0.9V1.7c0.1,0,0.1,0,0.2,0h9c0.4,0,0.8,0.4,0.8,0.8V6c0,0.1,0.1,0.3,0.3,0.3
			s0.3-0.1,0.3-0.3V2.4c0-0.7-0.6-1.3-1.3-1.3H5c-0.4,0-0.7,0.1-0.9,0.4L1.4,4.2C1.1,4.5,1,4.8,1,5.2V18c0,0.7,0.6,1.3,1.3,1.3H14
			c0.7,0,1.3-0.6,1.3-1.3v-0.4C15.4,17.4,15.2,17.3,15.1,17.3L15.1,17.3z M4.4,2v2.1c0,0.2-0.2,0.4-0.4,0.4H1.9L4.4,2z"/>
		<path class="st0" d="M18.7,10.6c0.2-0.3,0.2-0.6,0.1-0.9c-0.1-0.3-0.3-0.6-0.7-0.7c-0.2-0.1-0.3-0.3-0.4-0.5
			c0-0.3-0.2-0.6-0.4-0.8c-0.3-0.2-0.6-0.3-0.9-0.2c-0.2,0.1-0.4,0-0.6-0.2C15.6,7,15.3,6.9,15,6.9s-0.6,0.2-0.8,0.4
			c-0.1,0.2-0.4,0.2-0.6,0.2c-0.3-0.1-0.7,0-0.9,0.2c-0.3,0.2-0.4,0.5-0.4,0.8c0,0.2-0.1,0.4-0.4,0.5c-0.3,0.1-0.5,0.4-0.7,0.7
			c-0.1,0.3-0.1,0.7,0.1,0.9c0.1,0.2,0.1,0.4,0,0.6c-0.2,0.3-0.2,0.6-0.1,0.9c0.1,0.3,0.3,0.6,0.7,0.7c0.2,0.1,0.3,0.3,0.4,0.5
			c0,0.3,0.1,0.6,0.4,0.8c0.2,0.1,0.3,0.2,0.5,0.2v2.4c0,0.2,0.1,0.4,0.3,0.5s0.4,0.1,0.6,0l1-0.6l0,0l1,0.6c0.2,0.1,0.4,0.1,0.6,0
			s0.3-0.3,0.3-0.5v-2.4c0.2,0,0.4-0.1,0.5-0.2c0.2-0.2,0.4-0.5,0.4-0.8c0-0.2,0.1-0.4,0.4-0.5s0.5-0.4,0.7-0.7
			c0.1-0.3,0.1-0.7-0.1-0.9C18.6,11,18.6,10.8,18.7,10.6L18.7,10.6z M16.4,16.7l-1-0.6c-0.2-0.1-0.4-0.1-0.6,0l-1,0.6l0,0v-2.5
			c0.2,0,0.4,0.1,0.5,0.2c0.2,0.3,0.5,0.4,0.8,0.4s0.6-0.2,0.8-0.4c0.1-0.1,0.3-0.2,0.5-0.2V16.7C16.4,16.7,16.4,16.8,16.4,16.7
			L16.4,16.7z M18.3,11.5c0.1,0.1,0.1,0.3,0.1,0.5c-0.1,0.2-0.2,0.3-0.3,0.3c-0.4,0.1-0.7,0.5-0.7,1c0,0.2-0.1,0.3-0.2,0.4
			c-0.1,0.1-0.3,0.2-0.5,0.1c-0.4-0.1-0.9,0-1.1,0.4c-0.1,0.1-0.3,0.2-0.4,0.2c-0.2,0-0.3-0.1-0.4-0.2c-0.2-0.3-0.5-0.4-0.8-0.4
			c-0.1,0-0.2,0-0.3,0c-0.2,0.1-0.4,0-0.5-0.1S13,13.5,13,13.3c0-0.4-0.3-0.8-0.7-1C12.1,12.2,12,12.1,12,12c-0.1-0.2,0-0.3,0.1-0.5
			c0.2-0.4,0.2-0.8,0-1.2C12,10.2,12,10,12,9.8c0.1-0.2,0.2-0.3,0.3-0.3C12.7,9.4,13,9,13,8.5c0-0.2,0.1-0.3,0.2-0.4
			c0-0.1,0.2-0.1,0.3,0c0.4,0.1,0.9,0,1.1-0.4c0.1-0.1,0.3-0.2,0.4-0.2c0.2,0,0.3,0.1,0.4,0.2c0.3,0.3,0.7,0.5,1.1,0.4
			c0.2,0,0.3,0,0.5,0.1c0.1,0.1,0.2,0.2,0.2,0.4c0,0.4,0.3,0.8,0.7,1c0.2,0.1,0.3,0.2,0.3,0.3c0.1,0.2,0,0.3-0.1,0.5
			C18.1,10.7,18.1,11.1,18.3,11.5L18.3,11.5z"/>
		<path class="st0" d="M15.1,8.7c-1.2,0-2.2,1-2.2,2.2s1,2.2,2.2,2.2s2.2-1,2.2-2.2S16.3,8.7,15.1,8.7L15.1,8.7z M15.1,12.6
			c-0.9,0-1.7-0.8-1.7-1.7s0.8-1.7,1.7-1.7s1.7,0.8,1.7,1.7C16.8,11.8,16,12.6,15.1,12.6z"/>
	</g>
</g>
</svg>
