<?xml version="1.0" encoding="utf-8"?>
<!-- Generator: Adobe Illustrator 22.0.1, SVG Export Plug-In . SVG Version: 6.00 Build 0)  -->
<svg version="1.1" id="Layer_1" xmlns="http://www.w3.org/2000/svg" xmlns:xlink="http://www.w3.org/1999/xlink" x="0px" y="0px"
	 viewBox="0 0 20 20" style="enable-background:new 0 0 20 20;" xml:space="preserve">
<style type="text/css">
	.st0{fill:#231F20;}
</style>
<title>info</title>
<desc>Created with Sketch.</desc>
<g>
	<g>
		<path d="M16.8,9.2l-1.7-1.9V7.1l0.2-0.2c0.4-0.4,0.4-1,0.2-1.4c-0.1-0.2-0.2-0.4-0.3-0.6c-0.7-1.6-2-4.5-7-4.5
			c-2.9,0-4.9,1.2-6.5,3.7c-1.3,2.2,0.2,5.1,1,6.7C3,11.1,3,11.3,3.1,11.4c0.6,1.2,0.6,5.9-2.2,7.7c-0.1,0.1-0.2,0.3-0.1,0.5
			c0.1,0.1,0.3,0.2,0.5,0.1c3-2,3.1-7.1,2.4-8.6c-0.1-0.1-0.2-0.3-0.2-0.5C2.7,9.2,1.2,6.4,2.4,4.6c1.5-2.4,3.3-3.4,5.9-3.4
			c4.6,0,5.7,2.6,6.4,4.1c0.1,0.3,0.2,0.5,0.3,0.6c0,0.1,0.1,0.3-0.1,0.6l-0.1,0.1c-0.1,0.1-0.3,0.2-0.4,0.3l-1.2,0.8
			C13.1,7.8,13.7,8,13.8,8h0.3c0.2,0,0.5,0,0.7-0.1l1.5,1.8c0,0.1,0.1,0.1,0.1,0.2c0,0,0,0.1-0.1,0.2l-1,0.3c-0.1,0-0.2,0.2-0.2,0.3
			c0,0.4,0.2,0.7,0.5,1l-0.3,0.3h-0.5c-0.2,0-0.3,0.1-0.3,0.3c0,0.2,0.1,0.3,0.3,0.3h0.4l0.1,0.3l-0.3,0.3c-0.1,0.1-0.2,0.3-0.2,0.4
			c0,0.2,0.1,0.3,0.2,0.4c0,0,0,0,0,0l-0.2,0.7c0,0.2-0.2,0.3-0.3,0.3l-0.4,0.1c0,0-0.1,0-0.2,0h-3.6L10,14.4
			c-0.1-0.2-0.3-0.2-0.4-0.1c-0.2,0.1-0.2,0.3-0.1,0.4l0.5,1c0.1,0.1,0.2,0.2,0.3,0.2h1c0,0,0,0.1,0,0.1V17c0,0.2-0.1,0.3-0.2,0.4
			l-0.4,0.4c-0.1,0.1-0.1,0.3-0.1,0.4l0.7,1.3c0.1,0.1,0.2,0.2,0.3,0.2c0,0,0.1,0,0.1,0c0.2-0.1,0.2-0.3,0.1-0.4l-0.5-1.1l0.2-0.2
			c0.2-0.2,0.4-0.6,0.4-0.9v-1.1c0-0.1,0.1-0.1,0.1-0.1h0.2H14c0.1,0,0.2,0,0.4-0.1l0.4-0.1c0.4-0.1,0.6-0.4,0.7-0.8l0.2-0.7
			c0-0.2,0-0.4-0.1-0.5c0,0,0,0-0.1,0l0.3-0.3c0.2-0.2,0.2-0.5,0.1-0.7l-0.1-0.3l0.3-0.3c0.1-0.1,0.2-0.3,0.2-0.4
			c0-0.2-0.1-0.3-0.2-0.4c-0.1-0.1-0.2-0.2-0.2-0.3l0.7-0.2c0,0,0,0,0,0c0.3-0.1,0.5-0.4,0.5-0.7C17.1,9.6,17,9.3,16.8,9.2L16.8,9.2
			z"/>
		<path d="M9.2,11.1c-0.2,0-0.3,0.1-0.3,0.3c0,0.1,0,0.2-0.1,0.2c-0.1,0-0.2,0-0.3-0.1c-0.2-0.2-0.4-0.3-0.6-0.4
			C7.6,11,7.3,10.9,7,10.5c-0.5-0.5-0.2-1.8,0-2C7,8.5,7.5,8.5,7.9,8.6c0.2,0.1,0.4,0,0.4-0.2c0.1-0.2,0-0.4-0.2-0.4
			C7.8,7.9,6.9,7.7,6.5,8.1c-0.4,0.4-0.8,2.2,0,2.9c0.4,0.4,0.8,0.6,1.1,0.7C7.8,11.8,8,11.9,8,11.9c0.2,0.2,0.5,0.3,0.7,0.3
			c0.1,0,0.2,0,0.3-0.1c0.3-0.1,0.5-0.4,0.5-0.8C9.5,11.2,9.4,11.1,9.2,11.1L9.2,11.1z"/>
		<path d="M8.1,10.5l0.3,0.3c0.1,0.1,0.1,0.1,0.2,0.1s0.2,0,0.2-0.1c0.1-0.1,0.1-0.3,0-0.5L8.5,10c-0.1-0.1-0.3-0.1-0.5,0
			C7.9,10.2,7.9,10.4,8.1,10.5z"/>
	</g>
	<g>
		<rect x="17.9" y="11.6" transform="matrix(0.9584 -0.2853 0.2853 0.9584 -3.2816 5.7101)" class="st0" width="0.2" height="5"/>
		<path class="st0" d="M17.3,11.7c-0.1,0-0.1,0-0.2,0.1c-0.1-0.1-0.1-0.1-0.1-0.2c0,0,0-0.1-0.1-0.1c0-0.1-0.1-0.1-0.1-0.2
			c0-0.1,0-0.3,0.1-0.3c0.1,0,0.3,0,0.3,0.2c0,0.1,0,0.2,0,0.2c0,0.1,0,0.1,0,0.1C17.3,11.5,17.3,11.6,17.3,11.7z"/>
		<path class="st0" d="M18.6,16.6c0.1,0,0.1,0,0.2-0.1c0.1,0.1,0.1,0.1,0.1,0.2c0,0,0,0.1,0.1,0.1c0,0.1,0.1,0.1,0.1,0.2
			c0,0.1,0,0.3-0.1,0.3c-0.1,0-0.3,0-0.3-0.2c0-0.1,0-0.2,0-0.2c0-0.1,0-0.1,0-0.1C18.6,16.7,18.6,16.6,18.6,16.6z"/>
	</g>
</g>
</svg>
