<?xml version="1.0" encoding="utf-8"?>
<!-- Generator: Adobe Illustrator 22.0.1, SVG Export Plug-In . SVG Version: 6.00 Build 0)  -->
<svg version="1.1" id="Layer_1" xmlns="http://www.w3.org/2000/svg" xmlns:xlink="http://www.w3.org/1999/xlink" x="0px" y="0px"
	 viewBox="0 0 3401.6 842" style="enable-background:new 0 0 3401.6 842;" xml:space="preserve">
<style type="text/css">
	.st0{fill:#683E18;}
	.st1{fill:#F7EC00;}
	.st2{fill:#3F54A5;}
	.st3{fill:#FFFFFF;}
	.st4{fill:#ED1C24;}
</style>
<g id="Vrstva_1">
	<path class="st0" d="M552.8,744.6V380.2H269.4c0,99.2-1.1,196.6,13.2,256.9c9.7,40.5,50.2,76.7,129.3,76.8
		C518.6,714.1,536.4,744.6,552.8,744.6L552.8,744.6z M552.8,744.6V380.2h283.4c0,99.2,1.1,196.6-13.2,256.9
		c-9.7,40.5-50.2,76.7-129.3,76.8C587.1,714.1,569.3,744.6,552.8,744.6L552.8,744.6z M552.8,380.2V98.8h264
		c0.1,74.1,19.3,175.7,19.4,281.5L552.8,380.2L552.8,380.2z M552.8,380.2H269.4c0.1-105.7,19.3-207.3,19.4-281.5h264V380.2z"/>
	<path class="st1" d="M552.8,733.7V382H281.2c0,95.7-1.1,189.7,12.7,247.9c9.3,39.1,48.1,74,123.9,74.1
		C520,704.2,537.1,733.7,552.8,733.7z"/>
	<polygon class="st2" points="387.6,427.5 447.7,427.5 447.7,472.4 486.5,450 516.6,502 477.7,524.4 516.6,546.8 486.5,598.8 
		447.7,576.4 447.7,621.2 387.6,621.2 387.6,576.4 348.8,598.8 318.8,546.8 357.6,524.4 318.8,502 348.8,450 387.6,472.4 	"/>
	<path class="st3" d="M414.2,489.6l-0.5-19.1c-0.5,0.4-1.1,0.9-1.8,1.3C403.6,477.6,410.4,486,414.2,489.6L414.2,489.6z
		 M417.1,594.2l-0.4-16.1c-2.2-2.5-9.3-12.3-0.6-21l-0.4-13.5c-0.8-0.7-1.5-1.3-1.9-1.6c-8.4-7.6-10.1-13.6,1.1-25.7l-0.4-14.9
		c-1.6-1.5-3.6-3.1-5.8-4.9c-11.6-9.4-13.4-32.3,3.9-32.2c0.3,0,0.6,0,0.9,0l-0.2-5.9c-0.2-6.2,11.4-6.1,11.2,0l-1.5,38.3
		c8.9,7.7,10.1,12.6-0.9,24c0,0,0,0-0.1,0.1l-0.7,19.1c0.6,0.5,1.1,1,1.6,1.6c1.7,1.8,8.8,7.6-2.1,17.9c-0.1,0.1-0.1,0.1-0.2,0.2
		l-0.7,18.8c2.1,4.9,1.8,7.2,0.7,8.7c-0.4,0.6-0.8,1-1.1,1.3l-0.2,5.9C419.3,595.2,417.1,595.2,417.1,594.2z"/>
	<path class="st1" d="M552.8,382V110.4h253C806,181.9,824.4,280,824.5,382H552.8z"/>
	<polygon class="st2" points="664.2,148.3 724.3,148.3 724.3,193.1 763.1,170.7 793.1,222.7 754.3,245.2 793.1,267.6 763.1,319.6 
		724.3,297.2 724.3,342 664.2,342 664.2,297.2 625.4,319.6 595.3,267.6 634.2,245.2 595.3,222.7 625.4,170.7 664.2,193.1 	"/>
	<path class="st3" d="M690.5,210.1L690,191c-0.5,0.4-1.1,0.9-1.8,1.3C680,198.2,686.7,206.5,690.5,210.1L690.5,210.1z M693.4,314.8
		l-0.4-16.1c-2.2-2.5-9.3-12.3-0.6-21l-0.4-13.5c-0.8-0.7-1.5-1.3-1.9-1.6c-8.4-7.6-10.1-13.6,1.1-25.7l-0.4-14.9
		c-1.6-1.5-3.6-3.1-5.8-4.9c-11.6-9.4-13.4-32.3,3.9-32.2c0.3,0,0.6,0,0.9,0l-0.2-5.9c-0.2-6.2,11.4-6.1,11.2,0l-1.5,38.3
		c8.9,7.7,10.1,12.6-0.9,24c0,0,0,0-0.1,0.1l-0.7,19.1c0.6,0.5,1.1,1,1.6,1.6c1.7,1.8,8.8,7.6-2.1,17.9c-0.1,0.1-0.1,0.1-0.2,0.2
		l-0.7,18.8c2.1,4.9,1.8,7.2,0.7,8.7c-0.4,0.6-0.8,1-1.1,1.3l-0.2,5.9C695.6,315.8,693.5,315.8,693.4,314.8z"/>
	<path class="st2" d="M552.8,733.7V382h271.6c0,95.7,1.1,189.7-12.7,247.9c-9.3,39.1-48.1,74-123.9,74.1
		C585.7,704.2,568.6,733.7,552.8,733.7z"/>
	<path class="st1" d="M673.5,433.8c0-1.3-2.2-0.6-2.2-2.2c-2.3,0-0.4-6.7-2.2-6.7c0-1.8-0.5-5.2-2.2-5.2c0-0.2,0-0.5,0-0.7
		c-1.1,0-1.8-3.7-2.9-3.7c0-0.2,0-0.5,0-0.7c-0.2,0-0.5,0-0.7,0c0-1.7-0.6-5.9-2.2-5.9c0-3,0.7-3,3.7-3c0,2.6,5.2-1.1,5.2,1.5
		c2.3,0-0.8,3.7,1.5,3.7c0,1.1,0.7,1.1,0.7,0c0.5,0,1,0,1.4,0c0-1.2,5.2-2.4,5.2-0.7c0.8,0,3.5,3,1.4,3c0,2.1-0.1,3-2.2,3
		c0,1.3-1.5,0.8-1.5,2.9c1.7,0,3.4,0,5.2,0c0-2,2.2,0.5,2.2-1.5c2,0,4,0,5.9,0c0-3-2.2-0.2-2.2-2.2c-2.1,0-2.9-1.6-2.9-3.7
		c0.4,0,3.7-3.7,3.7-1.5c1.1,0,2.2,0.5,2.2,1.5c0.9,0,2.6-2.2,0.7-2.2c0-0.2,0-0.5,0-0.7c-1.2,0-1.3-2.2,0-2.2c0-2,0.9-2.2,2.9-2.2
		c0-1.7,4.5-0.9,4.5,0.7c1.7,0-0.2,1.5,1.5,1.5c0,2-2.6,3.7,1.4,3.7c0-1.2,2.2-1.2,2.2,0c1.5,0,2.5,3.7,0.7,3.7c0,2-3,0.9-3,3.7
		c0.2,0,0.5,0,0.7,0c0,1.3,3,1.3,3,0c1.4,0,2.9,0,4.4,0c0,0.2,0,0.5,0,0.7c1.9,0,5.9,1.7,5.9-0.7c-0.2,0-0.5,0-0.7,0
		c0-1.6-2.9-0.6-2.9-2.2c-0.2,0-0.5,0-0.7,0c0-2.6,1.2-5.2,3.7-5.2c0-3.2,3.7,3.3,3.7,0.7c2,0-0.5-2.2,1.5-2.2
		c0-1.6,2.9-0.7,2.9-2.2c0.2,0,0.5,0,0.7,0c0-1.2,2.2-1.3,2.2,0c1.2,0,1.2,1.5,0,1.5c0,2.4-1.5,1.3-1.5,3.7c-1.6,0-0.7,3-2.2,3
		c0,2-0.7,1-0.7,2.9c-1.7,0-2.2,3.5-2.2,5.2c-2,0-0.5,5.9-2.2,5.9c0,2.2-1.5,1.5-1.5,2.9c-1.4,0-0.1-0.7-1.4-0.7
		c0-1.7-1.3-2.9-3-2.9c0-1.4-2.2-0.6-2.2-2.2c-8.4,0-16.8,0-25.2,0c0,2-2.2-0.5-2.2,1.5c-0.9,0-2.6,2.2-0.7,2.2c0,1.2,1.5,1.2,1.5,0
		c0.5,0,1,0,1.5,0c0-1.7,1.5,0.2,1.5-1.5c6.9,0,13.8,0,20.8,0c0,0.2,0,0.5,0,0.7c1.2,0,4,2.2,2.2,2.2c0,0.2,0,0.5,0,0.7
		c-1.2,0-2.9,1.2-2.9,2.2C694.8,433.8,684.2,433.8,673.5,433.8L673.5,433.8z M782.6,443.5c0-2.5-4.5,1-4.5-1.5c-0.2,0-0.5,0-0.7,0
		c0-2.7-5.9,1.2-5.9-1.5c-2.4,0-10.4,1.2-10.4-1.5c-2,0,0.5-2.2-1.5-2.2c0-0.7,0-1.5,0-2.2c-0.7,0-2.2-4.7-2.2-5.9
		c1.3,0,0.3-0.7,2.2-0.7c0,1.4,1.7,0.7,2.9,0.7c0,2,2.2-0.5,2.2,1.5c2.2,0-0.4,3.7-1.5,3.7c0,0.5,0,1,0,1.5c2,0,4,0,6,0
		c0-0.5,0-1,0-1.5c-1.3,0-1.3-3,0-3c0-1.9,2.2,0.5,2.2-1.4c2.3,0-0.8-3.7,1.5-3.7c0-2.1,2.5,0,3,0c0,3.9-0.7,5.2,2.9,5.2
		c0,0.6,2.1,3,0,3c0,2-2.2-0.5-2.2,1.5c-1.8,0,0.9,2.2,1.5,2.2c0,2.6,5.2-1.1,5.2,1.5c0.5,0,1,0,1.5,0c0,2.1,2.9-1.5,0.7-1.5
		c0-0.6-1.9-2.2,0-2.2c0-2.6,5.2-0.3,5.2-2.2c1.3,0,3.7-0.7,3.7,0.7c2.2,0-1.3,3.7-2.2,3.7c0,0.2,0,0.5,0,0.7c-1.4,0-2,4.5-3.7,4.5
		C788.6,444.3,784,443.5,782.6,443.5L782.6,443.5z M600.8,444.9c0-0.6-4.5-5.2-5.2-5.2c0-0.2,0-0.5,0-0.7c-1.7,0-4.8-2.9-1.5-2.9
		c0-1.4,2.4-0.7,3.7-0.7c0,0.9,2.2,2.6,2.2,0.7c0.2,0,0.5,0,0.7,0c0-1.2,2.2-1.3,2.2,0c1.8,0,2,2.9-0.7,2.9c0,0.6-1.9,2.2,0,2.2
		c0,3.7,9.9-3.7,5.9-3.7c0-0.5-3.9-3.7-1.5-3.7c0-2.2,3,0.7,3-1.5c1.8,0-0.2-1.5-0.7-1.5c0-0.7,0-1.4,0-2.2c0.5,0,4.4-2.2,4.4,0
		c1.7,0-0.2,1.5,1.5,1.5c0,1.9,2.2-0.5,2.2,1.4c2.6,0-1.9,3,0.7,3c0,1.3,5.9,1.4,5.9,0c0.2,0,0.5,0,0.7,0c0-1-1.8-3.7,0-3.7
		c0-1.1,3.7-3.6,3.7-1.4c1.8,0,0,2.7,0,3.7c-1.1,0-0.7,0.4-0.7,1.5c-1.8,0-0.5,5.2-2.2,5.2c0,0.2,0,0.5,0,0.7
		C616.2,440.5,609.4,444.9,600.8,444.9L600.8,444.9z M686.9,450.8c0-0.2,0-0.4,0-0.7c-1.1,0-1.8-3.7-2.9-3.7c0-0.8,0.1-0.7-0.7-0.7
		c0-2.6-2.2-1.8-2.2-4.4c-1.5,0-2.2-3-3.7-3c0-3.4,4.2-2.2,7.4-2.2c0,1.5,2.9,0.2,2.9,2.2c1.2,0,1,1.5,2.2,1.5c0,0.7,0,1.5,0,2.2
		c1.6,0,1.1,5.2-0.7,5.2C689.1,449.6,689.2,450.8,686.9,450.8L686.9,450.8z M680.9,473.8c2.1,0,3-0.2,3-2.2c1.6,0,0.5-3.7,2.2-3.7
		c0-1.4,1.1-5.2,2.2-5.2c0-0.7,0-1.5,0-2.2c1.4,0,1.6-4.4,3-4.4c0-0.5,0-1,0-1.5c1.3,0,1.5-1.6,1.5-3c1.7,0,1.2-2.9,2.9-2.9
		c0-2.6,2.2-1.9,2.2-4.5c0.7,0,1.5-0.8,1.5-1.4c0.6,0,4.4-3.8,4.4-4.5c1.9,0,0-1.6,0-2.2c-4,0-7.9,0-11.9,0c0,0.8,0.1,0.7-0.7,0.7
		c0,1.2,2.9,7.4,0.7,7.4c0,1.1,0.5,2.2-0.7,2.2c0,2.9-1.5,3-1.5,5.9c-2,0,0.5,2.2-1.5,2.2c0,2-0.7,1-0.7,3c-1.8,0-0.6,3.7-2.2,3.7
		c0,0.3,0,0.5,0,0.7c-1.7,0,0.2,1.5-1.5,1.5c0,1.7-2.2,1.7-2.2,0c-1.7,0,0.2-1.5-1.5-1.5c0-1.2-2.8-5.2-3.7-5.2c0-0.3,0-0.5,0-0.7
		c-1.4,0-0.6-2.2-2.2-2.2c0-2-1.4-2.4-1.4-4.4c-1.9,0-3.1-6.7-1.5-6.7c0-1.3,0-2.5,0-3.7c0.8,0,0.7,0.1,0.7-0.7c1.9,0,0-1.6,0-2.2
		c-5.4,0-10.9,0-16.3,0c0,0.3,0,0.5,0,0.7c-1.9,0,1,2.2,2.2,2.2c0,0.8-0.1,0.7,0.7,0.7c0,2.2,4.4,3.1,4.4,5.9c1.1,0,0.7,0.4,0.7,1.5
		c1.7,0,4.2,5.2,5.2,5.2c0,0.5,0,1,0,1.5c1.7,0-0.2,1.5,1.5,1.5c0,2.3,1.5,1.4,1.5,3.7c1.2,0,1.7,3.7,2.9,3.7c0,0.5,0,1,0,1.5
		c2,0,0.7,2.9,2.2,2.9c0,0.3,0,0.5,0,0.7c1.2,0,2.4,5.2,3.7,5.2C680.9,473.4,680.9,473.6,680.9,473.8L680.9,473.8z M699.5,474.6
		c1.1,0,2.2,0.5,2.2-0.7c2,0-0.5-2.2,1.5-2.2c0-1.9,0.7-1,0.7-2.9c2,0-0.5-2.2,1.5-2.2c0-0.3,0-0.5,0-0.7c1.9,0,0.6-4.4,2.2-4.4
		c0-1.6,0.8-4.4,2.2-4.4c0-2,0.7-1,0.7-3c1.7,0-0.2-1.5,1.5-1.5c0-1.2,1.1-3.7,2.2-3.7c0-2.3,1.4-1.4,1.4-3.7c0.7,0,4.5-3.7,4.5-4.4
		c2.3,0,2.1-2.2,3.7-2.2c0-2.2-3.7-0.5-3.7-2.2c-2.2,0-4.5,0-6.7,0c0,1.7-3.7,0-3.7,2.2c-2.1,0,0.7,3,1.5,3c0,1.8,0,3.5,0,5.2
		c-2.2,0,0.7,3-1.5,3c0,0.3,0,0.5,0,0.7c-1.7,0,0.2,1.4-1.5,1.4c0,2-0.7,1-0.7,3c-2.1,0,0.7,3-1.4,3c0,1.9-0.7,1-0.7,2.9
		c-1.6,0-0.7,3-2.2,3c0,0.3,0,0.5,0,0.7c-2.2,0,0.7,2.9-1.5,2.9c0,1.9-1.4-0.7-2.2-0.7c0-2.4-1.5-1.3-1.5-3.7
		c-1.7,0,0.2-1.5-1.5-1.5c0-2-0.7-1-0.7-3c-0.6,0-2.9-2.9-2.9-0.7c-1.7,0,0.4,7.4,2.2,7.4c0,2.1,1.5,2.4,1.5,4.5
		c1.4,0,1.6,4.4,3,4.4C699.5,474.1,699.5,474.4,699.5,474.6L699.5,474.6z M594.9,496.1c0-0.7-1.6-2.2-2.2-2.2c0-2.6-2.2-1.8-2.2-4.4
		c-1.6,0-2.8-3.7-4.5-3.7c0-2-0.7-1-0.7-2.9c-1.7,0-0.8-2.2-2.2-2.2c0-5.2,2.3,0,3.7,0c0,0.2,0,0.5,0,0.7c1.1,0,4.4,7.7,4.4,2.2
		c-1.6,0-2.8-3.7-4.4-3.7c0-1.2-1.2-2.9-2.2-2.9c0-1.2,0-2.5,0-3.7c1.7,0,3,1.3,3,3c1.7,0-0.2,1.5,1.5,1.5c0,0.6,3,3.7,3.7,3.7
		c0-0.7,0-1.5,0-2.2c-0.2,0-0.5,0-0.7,0c0-0.6-2.5-4.4-2.9-4.4c0-1.4-1.5-0.9-1.5-3c-1.6,0-0.7-2.9-2.2-2.9c0-0.5,0-1,0-1.5
		c-1.3,0-1.3-2.9,0-2.9c0-1.9,2.1,1.4,3,1.4c0,0.5,0,1,0,1.5c1,0,4.1,5.9,5.9,5.9c0,0.7,0,1.5,0,2.2c1.4,0,1.6,2.2,3,2.2
		c0,4,0.7,6.1,0.7,10.4c1.5,0,1.4,6.7-0.7,6.7C597.1,495.7,596,496.1,594.9,496.1L594.9,496.1z M599.3,502.1c1.1,0,2.2,0.5,2.2-0.7
		c2.4,0,2.1-2.2,3.7-2.2c0-3,0-3.7-2.9-3.7c0,2.4-4.5,0.5-4.5,2.2c-1.2,0-0.7,1.1-0.7,2.2C597.7,499.8,599.3,501.4,599.3,502.1
		L599.3,502.1z M788.6,503.5c0-1.5,0-3,0-4.5c-0.4,0-3-0.4-3-0.7c-1.9,0-1.9-3.7,0-3.7c0-2.4,0.7-2.1,0.7-4.4c1.8,0,3.4-4.5,5.2-4.5
		c0-2.3,2.2-2.1,2.2-3.7c1.3,0,3-3,3-4.4c1.2,0,1-1.5,2.2-1.5c0-1.9-0.5-5.2,1.5-5.2c0-0.5,2.2-3.4,2.2-1.5c0.8,0,0.7-0.1,0.7,0.7
		c-1.4,0-0.7,1.7-0.7,2.9c-2,0,0.5,2.2-1.5,2.2c0,1.4-1.5,0.9-1.5,2.9c-2.2,0-0.6,3.7-2.2,3.7c0,1.4-1.4,0.9-1.4,3
		c-1,0-2.6,4.4-0.7,4.4c0-2,2.2,0.5,2.2-1.5c1.6,0,0-3.7,2.2-3.7c0-0.2,0-0.5,0-0.7c1.5,0,0.3-3,2.2-3c0-0.5,0-1,0-1.5
		c2.9,0,1.8,5.2,0,5.2c0,1,0,1.9,0,2.9c-1.4,0-0.1,0.7-1.5,0.7c0,1.7-2,3.7-3.7,3.7c0,1.1-2.5,2.2-3.7,2.2c0,0.6-2.1,3,0,3
		c0-1,4.4-2.6,4.4-0.7c2,0-2.2,2.8-2.2,3.7c-1.3,0-3.7,1-3.7,2.2C789.3,502.1,790,503.5,788.6,503.5L788.6,503.5z M603.8,513.9
		c0-0.2,0-0.5,0-0.7c-1,0-1.5-4.7-1.5-5.9c0.6,0,2.2-1.9,2.2,0C606,507.2,605.9,513.9,603.8,513.9L603.8,513.9z M785.6,515.4
		c0-0.8,0.1-0.7-0.7-0.7c0-3.9-1-8.9,3-8.9c0,0.2,0,0.4,0,0.7c1.4,0,1.6,7.4-0.7,7.4C787.1,514.6,786.2,515.4,785.6,515.4
		L785.6,515.4z M730.7,518.4c0-0.2,0-0.5,0-0.7c-0.2,0-0.5,0-0.7,0c0-1.7,0.9-6.7,2.2-6.7c0-1.4,1.7-0.7,2.9-0.7
		c0,2,2.2-0.5,2.2,1.5c0.9,0,2.6,2.2,0.7,2.2c0,0.2,0,0.5,0,0.7c-1.5,0-0.3,2.2-3,2.2C735.1,518.7,732.5,518.4,730.7,518.4
		L730.7,518.4z M721,510.2c0-1.5-3-2.2-3-3.7c-0.5,0-1,0-1.5,0c0-2.1-2.9,0.7-2.9-1.4c-2.1,0-3-0.2-3-2.2c-0.7,0-3.7-3-3.7-3.7
		c-1.9,0-1.1-0.7-3-0.7c0-3.1,2.7,0,4.4,0c0,0.6,3.8,4.4,4.5,4.4c0,1.1,4.5,2.2,5.9,2.2c0,0.2,0,0.5,0,0.7
		C721.4,505.8,722.5,510.2,721,510.2L721,510.2z M704.7,522.1c1.3,0,5.9-0.5,5.9-1.5c0.7,0,1.5,0,2.2,0c0-1.7,5.9-1.5,5.9-2.9
		c0.5,0,1,0,1.5,0c0-2,2.2,0.5,2.2-1.5c2.6,0,5.9-1.9,5.9-4.4c1.4,0,1.3-5.2,0-5.2c0-2.6-2.2-1.9-2.2-4.4c-1.5,0-2.2-2.9-2.2-4.4
		c-2.1,0-1.3-4.5-2.9-4.5c0-3.3-11.9-0.4-11.9-2.9c-4.4,0-13.4-1.1-13.4,3.7c-3,0-1.5,17.3-1.5,19.3c1.4,0,0.1,0.7,1.5,0.7
		c0,3.1,3.7,2.1,3.7,3.7c0.5,0,1,0,1.4,0C701,519.3,704.7,520.4,704.7,522.1L704.7,522.1z M664.6,511c0-2.1,0.2-3,2.2-3
		c0-2,2.2,0.5,2.2-1.5c0.7,0,1.5,0,2.2,0c0-0.6,2.3-2.9,2.9-2.9c0-2.3,2.2-2.2,2.2-3.7c4.9,0,0,1.4,0,3c-0.2,0-0.5,0-0.7,0
		c0,2.7-3.7,3.2-3.7,5.2c-1,0-2,0-3,0c0,1.7-1.5-0.2-1.5,1.5C665.5,509.5,666,511,664.6,511L664.6,511z M675.7,522.8
		c0-2.3-3.7,0.8-3.7-1.5c-1.2,0-3.7-0.4-3.7-1.5c-1.3,0-3.7-1-3.7-2.2c-0.5,0-1,0-1.5,0c0-2.1-4.4-3-4.4-5.9c-1.8,0-0.6-7.4,1.4-7.4
		c0-1.4,1.5-0.9,1.5-3c1.5,0,2.2-2.9,2.2-4.4c1.7,0-0.2-1.5,1.5-1.5c0-0.8-0.1-0.7,0.7-0.7c0-1.8,9.6,0.3,9.6-2.9c0.7,0,1.5,0,2.2,0
		c0-1.7,1.5,0.2,1.5-1.5c2.9,0,5.9,0,8.9,0c0,1.4,2.2,1.6,2.2,2.9c1.3,0,0.7,1.1,0.7,2.2c2.3,0-0.8,3.7,1.5,3.7
		c0,1.1,0.4,1.5-0.7,1.5c0,4.2,0,8.4,0,12.6c-1.7,0,0.2,1.5-1.5,1.5c0,1.7-1.3,3-3,3c0,1.4-3.6,3.7-5.2,3.7
		C682.4,523.5,677.8,522.8,675.7,522.8L675.7,522.8z M646,522.8c1.8,0,3.5,0,5.2,0c0-0.8-0.1-0.7,0.7-0.7c0-2.4,2.2-2.2,2.2-3.7
		c2.1,0,3.3-3,1.5-3c0-0.7,0-1.5,0-2.2c-2,0,0.5-5.9-2.2-5.9c0-2-5.9-0.4-5.9-2.2c-0.5,0-1,0-1.5,0c0,1.8-4.4-0.2-4.4,2.2
		c-2,0,2.2,2.8,2.2,3.7c2.4,0,2,0.7,4.4,0.7c0,2,2.2-0.4,2.2,1.4c1.9,0-0.7,1.4-0.7,2.2c-2.6,0-1.9,2.2-4.4,2.2
		c0,0.9-3.5,2.9-1.5,2.9C643.9,522.2,646,521.5,646,522.8L646,522.8z M639.4,496.9c0-2.1-2.9,0.7-2.9-1.5c-0.5,0-1,0-1.5,0
		c0-0.7-6.1-3.7-2.2-3.7c0,1.7,1.5-0.3,1.5,1.4c0.2,0,0.5,0,0.7,0c0,0.9,3.3,1.5,4.4,1.5c0,1.7,1.5-0.2,1.5,1.5
		C643,496.1,640.8,496.9,639.4,496.9L639.4,496.9z M619.3,451.6c1,0,2,0,3,0c0-1.4,1.5-0.8,1.5-2.9c0.8,0,0.7,0.1,0.7-0.7
		c3.2,0,0-1.1,0-2.2c-2.2,0-8.2-0.9-8.2,1.5c-2.6,0,1.5,4.1,1.5,1.5C621.8,448.6,619.3,449.6,619.3,451.6L619.3,451.6z M613.4,474.6
		c0-0.7-0.8-1.5-1.5-1.5c0-2.5,0-4.9,0-7.4c0.5,0,1,0,1.5,0c0,1.6,0.7,5.2,2.2,5.2c0,0.2,0,0.4,0,0.7
		C617.5,471.6,614,474.6,613.4,474.6L613.4,474.6z M758.1,463c-0.4-0.2-1.1,4.7-1.8,4.9c-0.7,0.1-2.4-4.9-1.8-4.9H758.1L758.1,463z
		 M633.7,459.2c-0.4-0.2-1,5.9-1.7,6.1c-0.7,0.1-2.5-6.1-1.9-6.1H633.7L633.7,459.2z M634.4,458.4c0.9-0.2,2.2-0.1,3.5-0.2
		c0.9-0.1,2.4-3.7,0.7-3.7c0-0.8-2.7-2.2-0.7-2.2c0-1.4,0.7-0.1,0.7-1.5c1.2,0,1.2-2.2,0-2.2c0-0.3,0-0.5,0-0.7c-0.9,0-3-0.6-3-1.5
		c-1,0-2,0-3,0c0-1.6-2.9-0.7-2.9-2.2c-2.3,0-1.4-1.4-3.7-1.4c0-1.3-2.9-1.3-2.9,0c-0.7,0-1.5,0-2.2,0c0,2-8.9,0.3-8.9,2.2
		c-2.8,0-3.1,0.7-5.9,0.7c0,2-2.2-0.5-2.2,1.5c-0.9,0-2.6,2.2-0.7,2.2c0,1.1,0.5,2.2-0.7,2.2c0,1.2,0.6,3-0.7,3c0,1.2-1.5,1.2-1.5,0
		c-2.2,0,0.3-3.7,1.5-3.7c0-3.1-1.3-3.7-4.4-3.7c0,0.2-3.1,5.2-0.7,5.2c0,1.8,1.3,6.7,2.9,6.7c0,1.3,3,1.3,3,0
		c1.7,0-0.2-1.4,1.5-1.4c0-1.7,0.7,0,1.4,0c0,1.5,0.8,8.1-0.7,8.1c0,1.2-1.1,3-2.2,3c0,2-2.2-0.5-2.2,1.5c-0.5,0-1,0-1.5,0
		c0-0.6-3.7-4.8-3.7-3c-1.5,0-0.7,2.5-0.7,3.7c1.6,0,0.5,3.7,2.2,3.7c0,2.6,5.2-1.1,5.2,1.5c1.7,0,0,0.7,0,1.5
		c-2.5,0-1.5,5.9-1.5,8.1c2.8,0-1.3,6.7,1.5,6.7c0,1.8,1.5-0.2,1.5-0.7c2.1,0,0.4-6.7,2.2-6.7c0-1,0-2,0-3c2.3,0,1.5-5.3,1.5-7.4
		c-2.1,0,0-2.4,0-3c1.7,0,3,1.3,3,3c-3,0,2.7,7.4,0,7.4c0,1.9-0.7,1-0.7,2.2c-3,0-1.5,11.3-1.5,14.1c-1.7,0,0.2,1.4-1.5,1.4
		c0,0.6-1.6,2.2-2.2,2.2c0,3.1,2.8,2.2,5.9,2.2c0-1.6,2.2-1.4,2.2-3.7c2.2,0,1.5,0.9,1.5,3c-1.2,0-1,1.5-2.2,1.5c0,1.6-3,0.2-3,2.2
		c-1.9,0-0.1,8.2-2.2,8.2c0,2.1-1.5,1.6-1.5,3c-2.1,0,0.7,2.4,0.7,2.9c1.3,0,6-0.2,6-1.5c1.6,0-0.3-1.4,1.4-1.4
		c0-2.9,0.7-3.1,0.7-5.9c-1.3,0-1.3-3.7,0-3.7c0-1.8,2.5,0.7,0.7,0.7c0,1,0,2,0,3c1.8,0,0.3,8.9-0.7,8.9c0,0.7,0,1.5,0,2.2
		c1.2,0,3,0.6,3-0.7c2.7,0,1.4-2.2,2.9-2.2c0-0.8-0.1-0.7,0.7-0.7c0-2.5,0-4.9,0-7.4c0.7,0,1.5,0,2.2,0c0,2.5,0,4.9,0,7.4
		c-1.5,0-0.7,2.5-0.7,3.7c2,0-0.5,2.2,1.5,2.2c0,0.3,0,0.5,0,0.7c3.7,0,2.9-8.7,2.9-11.9c-0.3,0-0.5,0-0.7,0c0-3.8,0.9-1.5,3-1.5
		c0,1.7,0.7,0,1.5,0c0-1.5,0-3,0-4.4c2.8,0,1.1,3,2.9,3c0,0.5,0,1,0,1.4c1.4,0,1.6,2.2,3,2.2c0,2.1,7.4,3.3,7.4,1.5
		c2.1,0,1.6-1.5,2.9-1.5c0-2.1-0.1-2.9-2.2-2.9c0-1.7-1.5,0.2-1.5-1.5c-1.4,0-3-3-3-4.5c-1.5,0-2.2-2.9-3.7-2.9
		c0-1.7-2.2-0.9-2.2-2.2c-1,0-4.8-4.4-2.9-4.4c0-1.7,0.7,0,1.4,0c0,0.7,5.3,5.9,6,5.9c0,1.7,7.4,2.6,7.4,0c1.3,0,0-0.7,1.4-0.7
		c0-1.2,0.6-3-0.7-3c0-1.6-1.4,0.3-1.4-1.4c-3.8,0,0.7-2.8,0.7-3.7c1,0,1.4-2.5,1.4-3.7c1.7,0-0.1-3-0.7-3c0-0.3,0-0.5,0-0.7
		c-0.9,0-3.7,1.6-3.7,2.2c-1,0-2,0-3,0c0-1.6-2.9-0.7-2.9-2.2c-1.5,0-1.4-2.2-3.7-2.2c0-0.7-5.2-6-5.9-6c0-1.2-6.1-1.4-7.4-1.4
		c0,0.3,0,0.5,0,0.7c-0.3,0-0.5,0-0.7,0c0,1.2-1.1,2.9-2.2,2.9c0,1.9-2.2-1-2.2-2.2c-0.3,0-0.5,0-0.7,0c0-2.8,2.2-1,2.2,0
		c3.6,0,1.2-4.4,3.7-4.4c0,2.4,4.5,0.5,4.5,2.2c0.3,0,0.5,0,0.7,0c0-1.3,2.9-1.3,2.9,0c2,0-0.5,2.2,1.5,2.2c0,1.7,2.2,1.7,2.2,0
		c1.3,0,1.2-5.2,0-5.2c0-1.8-2.7-1.5-4.5-1.5c0-2.7-6.7,1.3-6.7-1.4c-1.2,0-2.9-1.2-2.9-2.2c-1.8,0-0.5-3,0.7-3
		c0-2.8,0.7-3.1,0.7-5.9c0.8,0-0.1-0.5,0.7-0.7C622.2,457.4,631.4,458.4,634.4,458.4L634.4,458.4z M660.9,547.3
		c1.1,0,2.2,0.5,2.2-0.7c1.3,0,1.3-3.7,0-3.7c0-8.6-1.5-11.6-1.5-20c0.3,0,0.5,0,0.7,0c0-1.6-0.6-2.2-2.2-2.2c0-1.3-2.9-1.3-2.9,0
		c-0.5,0-1,0-1.5,0c0,0.7-2.3,3-3,3c0,3.6,0.7,4.7,0.7,8.2c1.4,0,1.3,6.7,0,6.7c0,1,0,2,0,2.9c0.7,0,5.2,4.6,5.2,5.2
		C659.8,546.6,660.9,546.1,660.9,547.3L660.9,547.3z M710.6,549.5c0.7,0,1.5,0,2.2,0c0-0.8-0.1-0.7,0.7-0.7c0-1.7,1.3-2.9,2.9-2.9
		c0-1.7,1.5,0.2,1.5-1.5c3.1,0,3.7,0,3.7-3c-1.5,0-0.7-4.6-0.7-5.9c1.8,0,2.2-9.6,2.2-11.9c1.5,0,3.4,5.2,1.5,5.2
		c0,3.3-0.7,4.1-0.7,7.4c-2,0,0.5,2.2-1.5,2.2c0,1.1-0.4,1.5,0.7,1.5c0,2.9-0.6,5.2,2.2,5.2c0-1.7,1.5,0.2,1.5-1.5
		c1.2,0,3.7-1.1,3.7-2.2c1.6,0,1.5-2.1,1.5-3.7c-1.9,0-1.5-3.3-1.5-5.2c2.2,0,1.5-4.6,1.5-6.7c-2.5,0-1.2-6-3-6
		c0-1.3-4.4-3.3-4.4-1.4c-0.7,0-1.5,0-2.2,0c0,1.3-5,2.2-6.7,2.2c0,2-2.2-0.5-2.2,1.5c-0.3,0-0.5,0-0.7,0c0,2-2.2-0.5-2.2,1.5
		c-0.5,0-1,0-1.5,0c0,2.2-2.9-0.7-2.9,1.5c-1.4,0-0.1,0.7-1.5,0.7c0,2.3-1.5,1.4-1.5,3.7c-0.3,0-0.5,0-0.7,0c0,2-0.7,1-0.7,3
		c-1.8,0-0.4,5.2,0.7,5.2c0,2.5,3,2.9,3,5.2c0.3,0,0.5,0,0.7,0c0,2.5,2.2,1.9,2.2,4.4C709,547.3,710.6,548.9,710.6,549.5
		L710.6,549.5z M669.8,551.8c0.5,0,1,0,1.5,0c0-1.9,3.7-2.6,3.7-5.2c1.4,0,0.1-0.7,1.5-0.7c0-2.6,2.2-1.9,2.2-4.5
		c1.3,0,1.6-2.2,2.9-2.2c0-2.3,2.2-2.2,2.2-3.7c2.2,0-0.5-5.9-2.2-5.9c0-2.6-2.2-1.5-2.2-3c-0.5,0-1,0-1.5,0c0-1.6-3.4-2.2-5.2-2.2
		c0-2.2-3,0.7-3-1.5c-1.2,0-4.4-1.6-4.4,0c-1.4,0-0.1,0.7-1.5,0.7c0,1.4-2,6.7,0,6.7c0,2,0.7,1,0.7,3c3,0-1.5,8.9,1.5,8.9
		c0,1.2,2.4,4.5,0.7,4.5c0,1-0.4,1.4,0.7,1.4C667.6,550.4,669.8,550.2,669.8,551.8L669.8,551.8z M682.4,555.5c0-0.2,0-0.5,0-0.7
		c-1.8,0,0.7-2.4,0.7-0.7c1.7,0,4.4,0.3,4.4-1.4c1.2,0,3.7-0.4,3.7-1.5c1.7,0,3.4,0,5.2,0c0,2,2.2-0.5,2.2,1.5c1.7,0,3.4,0,5.2,0
		c0,1.6,0.1,1.4-1.5,1.4c0,1.5-4.6,0-5.9,0c0-1.1-0.5-0.7-1.5-0.7c0-2.1-5.5,1.4-6.7,1.4C688.4,556.3,683.8,555.5,682.4,555.5
		L682.4,555.5z M691.3,565.1c0-1.7-3.4-2.2-5.2-2.2c0-1.8-9.7,0.4-9.7-2.9c-1.4,0-1.1-3.7-3-3.7c0-0.2,0-0.5,0-0.7
		c-1.7,0-0.1-5.2,1.5-5.2c0-1.4,0.7-0.1,0.7-1.5c2.1,0,1.7-4.4,3.7-4.4c0-0.7,1.5-2.2,2.2-2.2c0-1.8,2.7-4.4,4.5-4.4
		c0-2.2,9.6-1.5,11.9-1.5c0,1.2,1.5,1,1.5,2.2c1.6,0,2.2,0.6,2.2,2.2c0.2,0,0.5,0,0.7,0c0,2.3,1.5,1.4,1.5,3.7
		c1.5,0,2.2,2.9,3.7,2.9c0,1.2,1.2,3,2.2,3c0,1.2,0,2.5,0,3.7c-0.8,0-0.7-0.1-0.7,0.7c-1.7,0-1.3,5.2-2.9,5.2c0,2.1-3-0.6-3,1.4
		c-2.4,0-2.1,0.7-4.4,0.7c0,2.2-3-0.7-3,1.5c-1.1,0-2.2,0.4-2.2,1.5C692.8,565.1,692.1,565.1,691.3,565.1L691.3,565.1z M624.6,565.9
		c0-1.3-0.7-0.3-0.7-2.2c-3.4,0,2.2-5.5,2.2-2.2c1.3,0,1.3,3.7,0,3.7C626,566.2,625.6,565.9,624.6,565.9L624.6,565.9z M784.1,459
		c0-0.2,0-0.5,0-0.7c-1.3,0-1.4-4.4,0-4.4c0-2,2.8,2.2,3.7,2.2C787.8,458.2,786.2,459,784.1,459L784.1,459z M761.1,454.6
		c0-0.5,0-1,0-1.5c2.6,0-1.5-4.1-1.5-1.5c-0.9,0-2.6-2.2-0.7-2.2c0-1.2,1.5-1,1.5-2.2c1.4,0,2.9,0,4.4,0c0,1.1,0.4,0.7,1.5,0.7
		c0,0.2,0,0.5,0,0.7c1.6,0,3.7,0.8,3.7,2.2c-2.2,0-4.4-1.8-4.4,1.5c1.5,0,1.1,1.5-0.7,1.5C764.8,455.3,762.3,454.6,761.1,454.6
		L761.1,454.6z M721,568.1c3.8,0,1.6-5.9,3.7-5.9c0-2.1,1.5-1.6,1.5-2.9c2.7,0,0.2-5.9,2.9-5.9c0-2.1,1.5-1.6,1.5-3
		c3.8,0-0.4,4.4-1.5,4.4c0,1,0,2,0,3c1.2,0,0.3,0.7,2.2,0.7c0,0.8-0.1,0.7,0.7,0.7c0,2.4-5.9,1-5.9,3.7c-1.7,0,0.2,1.5-1.5,1.5
		c0,2,0.9,2.2,3,2.2c0-1.1,1-1.5,2.2-1.5c0-1.8,2.7,0,3.7,0c0,2.7,3.3,1.5,4.4,1.5c0-1.5,0-3,0-4.5c-0.5,0-4.2-2.9-2.2-2.9
		c0-1.7,1.5,0.2,1.5-1.5c3.3,0,0.4-8.2,3.7-8.2c0,0.7,0,1.5,0,2.2c0.8,0,0.7-0.1,0.7,0.7c2.5,0-2,5.2,0.7,5.2c0,2.1,2.4,0,3,0
		c0-2.4,0.7-2.1,0.7-4.4c1.2,0,1-1.5,2.2-1.5c0-2.5,4.4,1,4.4-1.5c1.8,0,0.5-3-0.7-3c0-2-4.8,0-5.9,0c0-1,0-2,0-2.9
		c2.7,0-1.2-5.9,1.5-5.9c0-1.3,0-2.5,0-3.7c1.6,0,0.2-2.9,2.2-2.9c0-0.8-0.1-0.7,0.7-0.7c0-0.7,0-1.5,0-2.2c-1.4,0-0.1-0.7-1.5-0.7
		c0-1.2,0-2.5,0-3.7c1.6,0,0.9,2.2,2.2,2.2c0,0.3,0,0.5,0,0.7c2.6,0,1.5-2.2,3-2.2c0-0.7,0-1.5,0-2.2c3.4,0-0.2,3.7,2.2,3.7
		c0,1.9,1.4-0.7,2.2-0.7c0-3.7,0-7.5,0-11.2c0.5,0,1,0,1.5,0c0,2.7,0,5.4,0,8.2c1.7,0-0.2,1.5,1.5,1.5c0,1.3,2.2,1.2,2.2,0
		c1.2,0,1.5-6.1,1.5-7.4c0.5,0,1,0,1.5,0c0,2.7,0,5.4,0,8.2c1.8,0-0.4,3.7,2.9,3.7c0,1.9,1.4-0.7,2.2-0.7c0-4,0-7.9,0-11.9
		c0.5,0,1,0,1.5,0c0,1.5-0.8,7.4,0.7,7.4c0,1.1,3.7,3.7,3.7,1.5c2.6,0,3.7-2.6,3.7-5.2c-0.3,0-0.5,0-0.7,0c0-1.3-2.2-0.5-2.2-2.2
		c-1.9,0-3.5-11.2-1.5-11.2c0-1.6,0.8,0,1.5,0c0,1.8,2.7,0,3.7,0c0-1.3,2.2-1.6,2.2-2.9c1.8,0,0.2-2.2-0.7-2.2
		c0-1.7-1.4,0.2-1.4-1.5c-3.1,0-4.5-0.6-4.5-3.7c-2.3,0-2.2-5.2-2.2-7.4c-1.3,0-1.5-3,0.7-3c0,1,0,2,0,3c1.7,0-0.2,1.5,1.5,1.5
		c0,1.2,3,2.5,3,0.7c1.9,0,0-11.9,2.2-11.9c0-2.1-2.1-6.7,0.7-6.7c0,1.1-0.4,1.5,0.7,1.5c0,1.3,4.5,4.2,4.5,2.2
		c2.3,0,2.9-2.3,2.9-4.5c-0.5,0-1,0-1.5,0c0-2.1-2.9,0.7-2.9-1.4c-2.9,0-1.8-3-3.7-3c0-2.4-0.7-2.1-0.7-4.4c0.8,0,0.7,0.1,0.7-0.7
		c2.1,0,6.7-0.1,6.7-2.2c1.5,0,0.7-3.8,0.7-5.2c-0.7,0-2.2-1.5-2.2-2.2c-2.1,0-3-1.5-3-3.7c-0.7,0-3-2.3-3-3c-0.7,0-1.5,0-2.2,0
		c0-1.3-6.8-1.5-8.2-1.5c0-0.3,0-0.5,0-0.7c-1.2,0-3.7,0.7-3.7-0.7c-3,0-6,0-8.9,0c0,1.6-3.7,2.8-3.7,4.4c-2.3,0-1.4,1.5-3.7,1.5
		c0,0.3,0,0.5,0,0.7c-2,0-1,0.7-3,0.7c0,0.6-1.3,0.7,0,2.2c1.4,1.6,1.6-0.4,3.1,1.2c1.2,1.4-0.3,1.1-1.5,1.9c-1.8,1.2-1.3,0.1-3,1.4
		s0.5,2.8,0.9,3.8c1,2.1,1.6,1.4,4.2,1.4c4.7,0,9.4,0,14.1,0c0,1.7,2.9-0.1,2.9,2.9c2.1,0-0.7,6-1.4,6c0,1.1-0.5,0.7-1.5,0.7
		c0,1.9-13,1.5-14.9,1.5c0,0.3,0,0.5,0,0.7c-1.9,0,0,1.6,0,2.2c2.3,0-0.8,3.7,1.5,3.7c0,1.8,2.2,0.2,2.2-0.7c1.1,0,1.5,0.4,1.5-0.7
		c4.7,0,7.1-0.7,11.9-0.7c0-1.4,2.2-1.6,2.2-3c2.2,0-0.4-7.4,3.7-7.4c0,1.7,0.3,7.4-1.5,7.4c0,2.3-1.5,1.4-1.5,3.7
		c-0.3,0-0.5,0-0.7,0c0,1.9-10,1.5-11.9,1.5c0,2-2.2-0.5-2.2,1.5c-0.3,0-0.5,0-0.7,0c0,4.8-7.3,3.7-11.9,3.7c0-0.3,0-0.5,0-0.7
		c-1.6,0-2.2-0.6-2.2-2.2c-1.3,0-0.9-1.5-2.2-1.5c0-1.8-2.2-0.2-2.2,0.7c-1.9,0,0,4.6,0,5.9c0.7,0,2.2,1.6,2.2,2.2
		c2.4,0,2-0.7,4.4-0.7c0-1.3,3-1.3,3,0c0.3,0,0.5,0,0.7,0c0,2.4-1.2,2.2-3.7,2.2c0,1.3-2.2,1.6-2.2,2.9c-1.9,0-1.9,3.7-3.7,3.7
		c0,2.3-2.2,2.1-2.2,3.7c-0.7,0-1.5,0-2.2,0c0,1.8-3.7,0.7-3.7,2.2c-2.6,0,1.5,4.2,1.5,4.4c0.7,0,1.5,0,2.2,0c0,1.9,6,0.2,6-1.5
		c0.9,0,1.4-2,1.4-2.9c1.7,0,0.9-2.2,2.2-2.2c0-1.7,1.3-2.9,3-2.9c0-1.4,0.7-0.1,0.7-1.5c1,0,2,0,2.9,0c0,2.7-2.2,1.4-2.2,2.9
		c-2.3,0-2.1,2.2-3.7,2.2c0,2.1-1.5,2.4-1.5,4.4c-2,0,0.5,2.2-1.5,2.2c0,0.5,0,1,0,1.5c-1.7,0-0.6,3.7-2.2,3.7
		c0,2.3-1.5,1.4-1.5,3.7c-2.5,0-0.7,3.6-0.7,4.4c1.8,0,3.5,0,5.2,0c0-1.8,3.7-0.7,3.7-2.2c2.4,0,1-5.2,2.9-5.2
		c0-2.3,2.2-2.1,2.2-3.7c0.9,0,2.6,2.2,0.7,2.2c0,0.7-2.3,3-3,3c0,0.7,0,1.5,0,2.2c-2.3,0,0.8,3.7-1.4,3.7c0,2-2.2-0.5-2.2,1.5
		c-0.3,0-0.5,0-0.7,0c0,2-0.7,1-0.7,2.9c-2,0,0.5,2.2-1.5,2.2c0,1-1.4,4.5-2.2,4.5c0,2.7-1.5,2.9-1.5,5.2c-0.3,0-0.5,0-0.7,0
		c0,1.7-1.3,2.9-3,2.9c0,1.5-2.9,0.3-2.9,2.2c-3.1,0-3.3,3-5.9,3c0,1.3-0.7,0-0.7,1.4c-1,0-2,0-3,0c0-1-4.4-2.4-4.4-0.7
		c-2.1,0-3,1.6-3,3.7c2.4,0,1.3,3.7,5.2,3.7c0-0.3,0-0.5,0-0.7c1.2,0,2.9-1.1,2.9-2.2c0.7,0,1.5,0,2.2,0c0,1.8-3,4.4-4.5,4.4
		c0,0.3,0,0.5,0,0.7c-1.9,0,0.5,2.2-1.4,2.2c0,1.8-4.5-0.1-4.5,2.2c-1.8,0-0.5,3,0.7,3c0,1.7,1.5-0.2,1.5,1.5
		C719.2,565.9,721,567.1,721,568.1L721,568.1z M759.6,569.6c0-0.2,0-0.5,0-0.7c-1.6,0-4.4-6.7,0.7-6.7c0,0.2,0,0.5,0,0.7
		c0.2,0,0.5,0,0.7,0C761.1,564.3,761,569.6,759.6,569.6L759.6,569.6z M678,603.7c0-1.4-4.5-3.2-4.5-1.5c-2.4,0-2.2,0.2-2.2-2.2
		c2.2,0,0.6-3.7,2.2-3.7c0-1.3,1.5-0.9,1.5-2.2c1.3,0,4.5-0.8,4.5,0.7c2.6,0-2.1,6.7,0.7,6.7C680.2,603.1,679.6,603.7,678,603.7
		L678,603.7z M640.9,609.6c0-1.9-0.4-5.2,1.5-5.2c0-1.2,1.5-1.2,1.5,0c1.3,0,1.3,3,0,3C643.9,609.4,642.9,609.6,640.9,609.6
		L640.9,609.6z M652.7,616.3c2.6,0,1.9-2.2,4.5-2.2c0-2.3,5.9,1.1,5.9-3c-1.5,0-2.5-3.7-0.7-3.7c0,0.8-0.1,0.7,0.7,0.7
		c0,1.6,4.4,0.8,4.4,2.9c2.5,0-2.1,3.7,0.7,3.7c0,2,5.9,2.1,5.9,0.7c1.3,0,1.2-2.2,0-2.2c0-0.5,0-1,0-1.5c-2.4,0,1.5-3.2,1.5-3.7
		c1.8,0,1.8-3,0-3c0-1.8-5.9-0.1-5.9-2.2c-1.5,0-2.5-3.7-0.7-3.7c0-1.7,1.5,0.2,1.5-1.5c1.4,0,1.3-6.7,0-6.7c0-1.9-3.7-1.9-3.7,0
		c-1.7,0,0.3,1.5-1.4,1.5c0,1.9,0.7,1.4,0.7,3.7c-2.6,0-1.9-2.2-4.5-2.2c0-1.8-8.9-2.7-8.9,0c-2,0-1.4-0.3-1.4-2.2
		c1.1,0,2.2-1.8,2.2-3c1,0,2.6-4.4,0.7-4.4c0-4.5,7.4-0.4,7.4-3c0.3,0,0.5,0,0.7,0c0-2.4-1.9-2.9-4.4-2.9c0-1.4-4.5-2.2-4.5,0
		c-0.5,0-1,0-1.4,0c0-2.1-4.5-1.7-4.5-3.7c-1.4,0-0.1-0.7-1.5-0.7c0-1.7-2.2-0.9-2.2-2.2c-2,0,0.5-2.2-1.5-2.2
		c0-1.7-1.5,0.2-1.5-1.5c-2.3,0-2.5-1.4-5.2-1.4c0-1.2-2.5-2.2-3.7-2.2c0,0.7-2.2,3-2.9,3c0,1.7-1.5-0.3-1.5,1.4
		c-1.3,0-0.7,1.1-0.7,2.2c1.1,0,2.2,1.8,2.2,3c1.5,0,2.2,2.8,2.2,4.4c1.3,0,1.6,2.2,2.9,2.2c0,1.3,1.6,1.4,3,1.4
		c0,2.2,7.4,0.8,7.4,3c2,0,2.2,0.9,2.2,3c-1.8,0-0.3,5.2-2.2,5.2c0,2.2-4.5,1.6-4.5,2.9c-1.9,0,0.3,1.5,1.5,1.5
		c0,0.7,3.1,3.7,3.7,3.7c0,1.1,2,5.9,0,5.9c0,2.9-2.3,5.2,2.2,5.2c0-1.2,1.5-1,1.5-2.2c1.6,0,0.9-2.2,2.2-2.2c0-4.1,2.5,0.7,2.9,0.7
		c0,1,0,2,0,3c-1.3,0-0.3,0.7-2.2,0.7c0,1,0,2,0,3C652.8,615.6,652.7,615.5,652.7,616.3L652.7,616.3z M741.8,631.2
		c0-1.3-0.7-0.3-0.7-2.2c-1.8,0,0.2-4.5-2.2-4.5c0-1.2,1.2-2.9,2.2-2.9c0-1.7,4.4-0.9,4.4,0.7c1.7,0-0.2,1.4,1.5,1.4
		c0,1.7,1.5-0.2,1.5,1.5c2.1,0-1.4,3.7-2.2,3.7c0,1.7-1.5-0.3-1.5,1.4C742.8,630.4,743.8,631.2,741.8,631.2L741.8,631.2z
		 M744.8,643.8c3.9,0,0.8-5.2,3-5.2c0-0.7,0-1.5,0-2.2c1.3,0,0.9-1.5,2.2-1.5c0-2.1,3.7-0.9,3.7-3c1.6,0,0.5-3.7,2.2-3.7
		c0-1.7,0.7,0,1.5,0c0,2.8-0.7,3.1-0.7,5.9c-0.8,0-2.2,2.7-2.2,0.7c-0.7,0-1.5,0-2.2,0c0,0.7-2.3,2.9-3,2.9c0,1.7,2.2,3.4,2.2,1.5
		c1.5,0,3,0,4.4,0c0,1.4,1.5,0.9,1.5,3c0.2,0,3.7,3.1,3.7,0.7c2.6,0,1.5-2.2,2.9-2.2c0-0.7,0-1.5,0-2.2c-2,0,0.5-2.2-1.5-2.2
		c0-1.7-2.2-0.9-2.2-2.2c-2,0,1.5-2.1,1.5-3c2.6,0-1.2-5.9,1.4-5.9c0,0.3,0,0.5,0,0.7c2,0-0.5,2.2,1.5,2.2c0,1-0.4,1.4,0.7,1.4
		c0,0.9,2.2,2.6,2.2,0.7c2.4,0,0.5-4.4,2.2-4.4c0-0.3,0-0.5,0-0.7c1.7,0-0.2-1.5,1.5-1.5c0-1.8,3.7-0.6,3.7-2.2c1.2,0,1.2-1.5,0-1.5
		c0-1.7-1.5,0.2-1.5-1.5c-1.2,0-3.7,0.4-3.7,1.5c-2,0-3.7,2.6-3.7-1.5c1.1,0,2.2,0.5,2.2-0.7c2.3,0,1.4-5.2,0-5.2c0-0.3,0-0.5,0-0.7
		c-2.1,0,0.7-3.6,0.7-1.5c1.1,0,2.2,0.5,2.2,1.5c0.7,0,1.5,0,2.2,0c0,2.2,3.7-0.3,3.7-1.5c0.8,0,3.1-5.2,1.5-5.2c0-0.3,0-0.5,0-0.7
		c-1,0-8.2,3.2-8.2,0.7c-1.2,0-2.9-1.2-2.9-2.2c-2,0,0.5-2.2-1.5-2.2c0-1.2,0.6-3-0.7-3c0-2,0-4,0-5.9c1.7,0,0.3-4.4,2.2-4.4
		c0-0.9,0.6-3,1.5-3c0-0.7,0-1.5,0-2.2c1.6,0,1.4-10.4,1.4-11.9c3.3,0,2.8,5.9,1.5,5.9c0,1.8,0,3.5,0,5.2c-1.3,0-1.3,3,0,3
		c0,1.8,5.9,0.1,5.9,2.2c2,0,1,0.7,3,0.7c0,1.4,2.9,2.2,2.9,3.7c1.3,0,1.5,3.1,1.5,4.4c2.1,0,0,5.9,0,7.4c-1.5,0-2.5,5.9,0,5.9
		c0,1.2,1.5,1.2,1.5,0c2.3,0,0.6-3.7,2.2-3.7c0-2.3,1.4-2.5,1.4-5.2c0.3,0,0.5,0,0.7,0c0-2,0.7-1,0.7-3c2.2,0-0.7-2.9,1.5-2.9
		c0-1.3-0.5-5.9-1.5-5.9c0-0.7,0-1.5,0-2.2c-2.4,0,0.7-4.6,0.7-2.2c1.3,0,5.2,0.8,5.2-0.7c1.7,0,3-1.3,3-2.9c1.1,0,0.7-0.4,0.7-1.5
		c2,0-0.5-2.2,1.5-2.2c0-1.1,0.4-1.5-0.7-1.5c0-2.4,0.1-3.7-2.2-3.7c0,1.4-2.2,1.6-2.2,3c-1.4,0-6.7,1.3-6.7,2.2
		c-0.8,0-0.7,0.1-0.7-0.7c-2.2,0,0.7-2.4,0.7-2.9c2,0,0.7-3,2.2-3c0-2.1,1.5-2.3,1.5-4.4c2.3,0-0.8-3.7,1.5-3.7c0-0.5,0-1,0-1.4
		c2.1,0-0.7-3,1.4-3c0-3,0-6,0-8.9c-0.8,0-2.2-7.4-2.2-8.9c-0.3,0-0.5,0-0.7,0c0-2.9-0.7-3.1-0.7-5.9c-2,0,0.5-2.2-1.5-2.2
		c0-1.3-2.2-1.2-2.2,0c-0.3,0-0.5,0-0.7,0c0,1.3,0.5,5.9,1.5,5.9c0,0.5,0,1,0,1.5c2.5,0-1,4.4,1.5,4.4c0,1.1-0.5,2.2,0.7,2.2
		c0,1,0,2,0,2.9c-2.3,0,0.8,3.7-1.5,3.7c0,1.2-1.5,1-1.5,2.2c-1.7,0-2.9-1.2-2.9-2.9c-0.8,0-0.7,0.1-0.7-0.7c-2,0,0.5-2.2-1.5-2.2
		c0-3.7,0-7.4,0-11.1c0.3,0,0.5,0,0.7,0c0-1.1,0.5-4.4,1.5-4.4c0-0.3,0-0.5,0-0.7c2,0-0.5-2.2,1.5-2.2c0-0.3,0-0.5,0-0.7
		c1.5,0,1.4-2.2,3.7-2.2c0-0.9,6.5-4.4,7.4-4.4c0-0.3,0-0.5,0-0.7c1.3,0,1.5-1.5,1.5-2.9c-1.8,0-1.8-3,0-3c0-2.6,2.2-1.8,2.2-4.4
		c1.1,0,2.2-4.5,2.2-5.9c-0.3,0-0.5,0-0.7,0c0-1.8-1.5,0.2-1.5,0.7c-1.9,0-0.7,2.9-2.2,2.9c0,1.4-0.7,0.1-0.7,1.5c-2,0,0-3.4,0-4.4
		c2,0,0.7-3,2.2-3c0-1,0-2,0-3c-1.9,0-1,0.7-2.2,0.7c0,2.6-2.2,1.9-2.2,4.5c-1.2,0-2.2,2.4-2.2,3.7c-0.7,0-3.7,3.1-3.7,3.7
		c-2.9,0-2.4,2.9-5.2,2.9c0,0.8,0.1,0.7-0.7,0.7c0,2.6-2.2,1.9-2.2,4.4c-1.1,0-1.5,4.5-2.9,4.5c0,0.3,0,0.5,0,0.7
		c-2.2,0-3,6.5-3,8.9c1.9,0,0.3,10.4,2.2,10.4c0,1.1-0.4,1.5,0.7,1.5c0,1.1,0.4,3.7,1.4,3.7c0,1,0,2,0,3c1.3,0,1.5,4.6,1.5,5.9
		c0.3,0,0.5,0,0.7,0c0,3.5,0,6.9,0,10.4c-2,0,0.5,2.2-1.5,2.2c0,1.2-1.4,1-1.4,2.2c-1.3,0-2.5,0-3.7,0c0-1.4-1.5-0.9-1.5-3
		c-2.2,0,0.6-3-1.4-3c0-0.5,0-1,0-1.4c-2,0,0.5-2.2-1.5-2.2c0-1.2-1.5-1-1.5-2.2c-1.5,0-0.3-2.9-2.2-2.9c0-0.8,0.1-0.7-0.7-0.7
		c0-1,0-2,0-3c1,0,1.5-1.1,1.5-2.2c2.3,0-0.8-3.7,1.5-3.7c0-1.2-0.6-2.9,0.7-2.9c0-0.5,0-1,0-1.5c-1.8,0-0.3-5.9-2.2-5.9
		c0-2.9-0.7-3.5-0.7-6.7c-0.7,0-2.2-1.6-2.2-2.2c-1.5,0-3,0-4.5,0c0-1.6-2.9-1.9-2.9-3c-0.7,0-1.5,0-2.2,0c0,2.4-4.4,0.5-4.4,2.2
		c-2.7,0-1.5,2.2-3,2.2c0,0.3,0,0.5,0,0.7c-1.7,0-3.1,5.9-1.5,5.9c0,1,0,2,0,2.9c1.5,0,2.2,3,3.7,3c0,1.6,2.2,0.9,2.2,2.2
		c2,0,1.5,3.7,3,3.7c0,1,1.4,4.4,2.2,4.4c0,0.7,0,1.5,0,2.2c1.6,0,1.4,9.7,1.4,11.1c-0.3,0-0.5,0-0.7,0c0,2.9-0.7,3.1-0.7,6
		c-2.2,0-3.1,4.4-5.9,4.4c0,1.4-0.7,0.1-0.7,1.5c-0.7,0-1.5,0-2.2,0c0,2.2-3-0.6-3,1.4c-1.4,0-4.4,1.7-4.4,3c-1.6,0-1.4,2.2-3.7,2.2
		c0,0.7-3.1,3.7-3.7,3.7c0,2.3-3.7-0.8-3.7,1.5c-0.5,0-1,0-1.5,0c0,2.1-1.9-0.7,0-0.7c0-2.3,5.2-1.7,5.2-2.9c0.5,0,1,0,1.5,0
		c0-0.6,3.8-4.5,4.4-4.5c0-1.1,1.8-2.2,3-2.2c0-1.4,2.9-2.2,4.4-2.2c0-2.2,3,0.7,3-1.5c0.5,0,1,0,1.5,0c0-1.4,2.2-1.7,2.2-3
		c2,0-0.7-4.1-0.7-5.2c-0.3,0-0.5,0-0.7,0c0-1.2-1.1-2.9-2.2-2.9c0-1.3-2.2-1.2-2.2,0c-0.5,0-1,0-1.5,0c0,1.3-6.1,1.4-7.4,1.4
		c0,0.3,0,0.5,0,0.7c-0.7,0-1.5,0-2.2,0c0,2-2.2-0.5-2.2,1.5c-1.8,0-0.1,5.9-2.2,5.9c0,2.1-2.4,0-2.9,0c0-1.5-3.7-2.5-3.7-0.7
		c-0.3,0-0.5,0-0.7,0c0,2.1-1.4,1.6-1.4,3c-1.1,0-3.7,3.7-1.5,3.7c0-2.1,2.9,0.6,2.9-1.4c1.1,0,1.5,1,1.5,2.2
		c-3.1,0-2.2,2.9-2.2,5.9c1.1,0,1.1,1.5,0,1.5c0,4.4-2.9,3-7.4,3c0,1-4,2.2-5.2,2.2c0-0.3,0-0.5,0-0.7c-1.6,0-0.8-4.5-2.9-4.5
		c0-1.3-3-1.3-3,0c-1.3,0-0.6,2.2-2.2,2.2c0,1.7-1.5-0.2-1.5,1.5c-1.3,0-1.3,2.9,0,2.9c0,2.8,6.7-1.3,6.7,1.5c0.3,0,0.5,0,0.7,0
		c0,2.8-8.2,0.9-8.2,3c-3.3,0,0-3-2.2-3c0-1.8-2.9-1.8-2.9,0c-2.5,0,1,4.4-1.5,4.4c0,2.4-0.1,3.7,2.2,3.7c0-3.4,8.9,0.2,8.9-2.2
		c0.7,0,1.5,0,2.2,0c0-0.6,3-4,3-2.2c1,0,1,0.7,0,0.7c0,1.7-1.3,3-3,3c0,3.6-8.2-1.5-8.2,1.5c-0.8,0-0.7-0.1-0.7,0.7
		c-2.2,0,0.7,2.4,0.7,2.9c1.7,0,3.4,2.2,1.5,2.2c0,1,0,2,0,2.9c0.7,0,2.2,1.6,2.2,2.2c1.7,0-0.3,1.5,1.4,1.5c0,1.8,2.2,0.2,2.2-0.7
		c2,0-0.5-2.2,1.5-2.2c0-2.1,0.2-2.9,2.2-2.9c0-0.7,2.2-3,2.9-3c0-2.2-0.9-3.7,1.5-3.7c0,1.9,0.7,1,0.7,2.9c1.8,0,0.7,3.7-0.7,3.7
		c0,1.7-1.5-0.2-1.5,1.5c-2.1,0-2.2,0.8-2.2,2.9c-2.3,0,0.7,3.5,0.7,3.7c2.4,0,3.7,0.1,3.7-2.2c1.5,0,2.2-3,3.7-3
		c0-2.5,3.4,0.7,3.7,0.7c0,1.8,3.7,0.7,3.7-0.7c2.1,0,0-2.4,0-2.9c-3.4,0-4.7-2.2-2.9-2.2c0-2.5,0-5,0-7.4c0.9,0,4.4,2.9,4.4,0.7
		c0.7,0,1.5,0,2.2,0c0-0.7,2.2-3,2.9-3c0-1.6-0.6-2.2-2.2-2.2c0-1.6-2.9-0.7-2.9-2.2c-2,0,0.5-2.2-1.5-2.2c0-2.1,1.5-2.1,1.5,0
		c1.2,0,1,1.5,2.2,1.5c0,2.3,6.6-0.7,6.7-0.7c0-0.5,0-1,0-1.4c0.9,0,3.7-4.3,3.7-2.2c1.3,0,0.7,1.1,0.7,2.2c-0.7,0-2.2,1.5-2.2,2.2
		c-2.8,0-1.7,3-3.7,3c0,1.2-1.2,2.9-2.2,2.9c0,2.7-2.2,1.5-2.2,3c-0.3,0-0.5,0-0.7,0c0,2-3,0.7-3,2.2c-1.3,0-1.3,2.9,0,2.9
		c0,1.8,3.7,0.7,3.7,2.2c1.4,0,0.1-0.7,1.5-0.7c0-2.2,3,0.7,3-1.5c1.1,0,2.2,0.5,2.2-0.7c0.6,0,3.7-3,3.7-3.7c2.7,0,1.5-2.2,3-2.2
		c0-0.5,0-1,0-1.5c1.6,0,0.9-2.2,2.2-2.2c0-3.7,2.9,0,0.7,0c0,1.5,0,3,0,4.4c1.2,0,1,1.5,2.2,1.5c0,2.5,5.2,0.5,5.2,2.9
		c-1.4,0-0.7,1.8-0.7,3c1.8,0,0.2,2.2-0.7,2.2c0,1.5-2.2,1.3-2.2,3.7c-1.5,0-2.2,3-3.7,3c0,2.4,0.7,2,0.7,4.4
		c-0.7,0-4.4,3.8-4.4,4.4c-1.8,0-0.7,3.7-2.2,3.7c0,1.3-2.2,1.2-2.2,0c-1.5,0-3,0-4.4,0c0,0.8-3.9,3.7,0,3.7c0,2.2,3-0.7,3,1.5
		c1.8,0,1.5,3.7,2.9,3.7C744.8,643.3,744.8,643.6,744.8,643.8L744.8,643.8z M623.8,645.3c0-1.3-0.7-0.3-0.7-2.2c-2.2,0,0-4.9,0-6
		c-0.7,0-3-2.2-3-2.9c-2.3,0,0.8-3.7-1.5-3.7c0-2.5,0-4.9,0-7.4c-3.4,0,0.3,3.7-2.2,3.7c0,1.9-1.4-0.7-2.2-0.7c0-2.1-1.5-1.6-1.5-3
		c-3.6,0-5.2-0.2-5.2-3.7c1.4,0,0.1-0.7,1.5-0.7c0-1.8,3.7,0.4,3.7-2.9c-3.4,0,0.6-8.2-1.4-8.2c0-2.2-3,0.7-3-1.5
		c-1.3,0-1.3-3.7,0-3.7c0-1.1,0.5-0.7,1.5-0.7c0,1.8,7.4,1.9,7.4,0c2.3,0-0.8-3.7,1.4-3.7c0-0.8-0.1-0.7,0.7-0.7
		c0-1.7,1.3-2.9,3-2.9c0-0.8,2.7-2.2,0.7-2.2c0-2.3-3.7,0.8-3.7-1.5c-1.4,0-2.9-0.2-2.9-1.5c-1.5,0-2.2-2.9-3.7-2.9
		c0-2.9-0.7-3.1-0.7-5.9c-2.9,0-0.2,2.2-2.2,2.2c0,1.7-2.2,0.9-2.2,2.2c-1.4,0-0.1,0.7-1.5,0.7c0,1.9-3.7,1.5-3.7,4.4
		c-1.2,0-2.2,2.5-2.2,3.7c-1.3,0-0.7,1.1-0.7,2.2c-2.2,0,0.7,3-1.5,3c0,1.7,0,3.4,0,5.2c1.8,0,0.6,3-1.4,3c0-1.5-3-2.2-3-3.7
		c-2.3,0-2.2-2.2-3.7-2.2c0-0.7-1.6-2.2-2.2-2.2c0-2.1-0.7-6.7,1.5-6.7c0-1.2,1.5-1,1.5-2.2c2.6,0,4.4,0.4,4.4-2.2
		c1.4,0,0.7-1.8,0.7-3c-1.4,0-3,0.2-3,1.5c-0.2,0-0.5,0-0.7,0c0,1.8-6.7,0.7-6.7-0.7c-0.8,0-0.7,0.1-0.7-0.7c-1.9,0-2.2-5.2-3.7-5.2
		c0-3.5-1.6-8.9,2.2-8.9c0,0.2,0,0.5,0,0.7c0.9,0,1.4,3.3,1.4,4.4c1.7,0-0.2,1.5,1.5,1.5c0,1.7,5.9,3.4,5.9,1.5c2,0-0.5-2.2,1.5-2.2
		c0-0.7,0-1.4,0-2.2c-1.7,0-0.3-4.5-2.2-4.5c0-0.5,0-1,0-1.5c-1.1,0-2.2-4.5-2.2-5.9c-2.9,0-1-8.9-3-8.9c0-2.4-0.9-13.4,1.5-13.4
		c0-1.2,0.4-3.7,1.5-3.7c0-2.1,1.5-2.9,3.7-2.9c0,0.2,0,0.4,0,0.7c2,0,0,3.5,0,4.5c-2,0,0.5,2.2-1.5,2.2c0,2.3-2.1,11.9,0,11.9
		c0,2.1,1.5,1.6,1.5,2.9c2.9,0,5.2-0.2,5.2-2.9c1.7,0-0.2-1.5,1.5-1.5c0-2,0.7-1,0.7-3c0.2,0,0.5,0,0.7,0c0-2.2,0.5-12.6-2.2-12.6
		c0-2-3.7-1.9-3.7-3.7c-1.6,0-2.2-0.6-2.2-2.2c-0.2,0-0.5,0-0.7,0c0-1.5-2.2-0.3-2.2-3c-1.2,0-1-1.4-2.2-1.4c0-2.4-0.7-2.1-0.7-4.5
		c-2.5,0,1.5-4,1.5-1.4c1.6,0,2.2,2.9,3.7,2.9c0,1.2,1.2,3,2.2,3c0-0.7,0-1.5,0-2.2c-1.4,0-0.1-0.7-1.5-0.7c0-1.4-4.1-5.9-5.2-5.9
		c0-2.3-1.5-1.4-1.5-3.7c-1.3,0-1.4-4.5,0-4.5c0-2.2,2.4,0.7,3,0.7c0,1.4,1.6,4.4,2.9,4.4c0,1.2,1.2,3,2.2,3c0,2.6,2.2-2.2,0-2.2
		c0-0.6-3.1-3.7-3.7-3.7c0-2.3-1.5-1.4-1.5-3.7c-2,0-0.4-6.7-2.2-6.7c0-1.8,3-1.8,3,0c1.6,0,0.2,3,2.2,3c0,0.7,0,1.5,0,2.2
		c0.4,0,3,5,3,5.9c1.7,0,1.3,2.9,2.9,2.9c0,0.2,0,0.5,0,0.7c1.4,0,1.1,3.7,3,3.7c0,1.9,0.7,0.9,0.7,2.2c2,0-0.5,2.2,1.5,2.2
		c0,0.8-0.1,0.7,0.7,0.7c0,3,1.4,3,1.4,5.9c0.2,0,0.5,0,0.7,0c0,4,0,7.9,0,11.9c-1.7,0-0.4,5.2-2.2,5.2c0,1,0,1.9,0,2.9
		c-1.1,0-0.7,0.4-0.7,1.5c-2,0,0.5,2.2-1.5,2.2c0,1.9-0.7,0.9-0.7,2.2c-0.2,0-0.5,0-0.7,0c0,1.3-0.3,6.7-1.5,6.7c0,3.5,0,6.9,0,10.4
		c2,0-0.5,2.2,1.5,2.2c0,1.3,5.9,1.4,5.9,0c1.6,0,0.5-3.7,2.2-3.7c0-0.2,0-0.5,0-0.7c0.2,0,0.5,0,0.7,0c0-1.4-0.2-14.1,1.5-14.1
		c0-0.7,0-1.5,0-2.2c1.1,0,1.3-2.9,2.9-2.9c0-1.2,0-2.5,0-3.7c-0.2,0-0.5,0-0.7,0c0-1.4,0.1-8.9,1.5-8.9c0-0.5,0-1,0-1.5
		c2.3,0-0.8-3.7,1.5-3.7c0-1.8,0.5-5.2,2.2-5.2c0-2,3.7-1.9,3.7,0c0.6,0,3,2.1,3,0c1.6,0,0.8-2.2,2.2-2.2c0-2.3,3.7,0.8,3.7-1.5
		c1,0,1.4-3.4,1.4-4.5c-1.2,0-1.2-2.9,0-2.9c0-1.8,3-0.5,3,0.7c1.4,0,4.4,1.6,4.4,2.9c2,0-0.5,2.2,1.5,2.2c0,0.2,0,0.5,0,0.7
		c2.1,0-0.7,2.9,1.5,2.9c0,2.4,0.7,2.1,0.7,4.5c2,0-0.5,2.2,1.5,2.2c0,2.2,1.4,1.4,1.4,3.7c0.6,0,4.5,3.8,4.5,4.4
		c0.7,0,5.2,4.6,5.2,5.2c2.6,0,0.2,4.4,3.7,4.4c0-1.2,5.2-2.6,5.2-0.7c1.2,0,2.6,3,0.7,3c0,1.1,0.4,1.4-0.7,1.4c0,2.6-0.4,3-3,3
		c0-0.2,0-0.5,0-0.7c-1.5,0-0.3-2.2-2.9-2.2c0,3,1.4,3.1,1.4,6c1.4,0,0.1,0.7,1.5,0.7c0,1.8,4.5-1.5,4.5,1.5c1.8,0,0,1.6,0,2.2
		c-1.2,0-3,1.2-3,2.2c-2.1,0,0.7,2.9-1.5,2.9c0,1.2-1.5,1.2-1.5,0c-1.1,0-1.4-5.4-1.4-6.7c-0.2,0-0.5,0-0.7,0c0-2.7-3.7-3.2-3.7-5.2
		c-3.7,0,0,3.4,0,4.4c0.9,0,2.6,2.2,0.7,2.2c0,2.5-4.4-1-4.4,1.5c-0.7,0-3,2.3-3,2.9c-1.1,0-2.2,0.5-2.2-0.7c-2.3,0,2.4-5.9,3.7-5.9
		c0-2.3-2.2-2.1-2.2-3.7c-1.1,0-1.4-4-1.4-5.2c-1.1,0-2.2,0.5-2.2,1.5c-0.7,0-1.5,0-2.2,0c0-0.7-2-4.4-2.9-4.4c0-1.5-2.2-0.3-2.2-3
		c0.2,0,0.5,0,0.7,0c0-0.9,3.3-1.4,4.4-1.4c0-0.8-0.1-0.7,0.7-0.7c0-2.2,0.9-3.7-1.5-3.7c0,1.2-2.2,1.3-2.2,0
		c-1.7,0-1.8-3.7-3.7-3.7c0-2.4-0.7-2.1-0.7-4.5c-0.7,0-1.5-1.6-1.5,0c-1.6,0-0.8,6.7,0.7,6.7c0,3-0.6,3-3.7,3c0,1.4-1.5,0.9-1.5,3
		c-2,0,0.5,2.2-1.5,2.2c0,1.3-1.4,0.9-1.4,3c-1.8,0-0.6,3.7-2.2,3.7c0,1.9,0.4,5.2-1.5,5.2c0,2,0.7,1,0.7,2.9c2,0-0.5,2.2,1.5,2.2
		c0,2,0.7,1,0.7,2.9c1.7,0,1.2,3,2.9,3c0,0.2,0,0.5,0,0.7c1.2,0,3,5.8,3,7.4c1.6,0,1.4,2.2,3.7,2.2c0,1.8,3,1.2,3,3
		c2.4,0,2.1,0.7,4.4,0.7c0,2,2.2-0.5,2.2,1.5c1.3,0,1.3,3.7,0,3.7c0,1.3-4.4,3.3-4.4,1.5c-1,0-2,0-3,0c0,0.6-1.5,2.2,0.7,2.2
		c0,2,0.7,1,0.7,2.9c1.9,0,0.6,4.4,2.2,4.4c0,2.4-0.7,2.6-0.7,5.2c-2,0,0.5,2.2-1.5,2.2c0,2.1-3-0.7-3-1.4c-1.1,0-0.7-0.4-0.7-1.5
		c-1.3,0-0.7-1.1-0.7-2.2c-0.2,0-0.5,0-0.7,0c0-1.4-0.2-7.4-1.4-7.4c0-2.4-3.2,0.7-0.7,0.7c0,1.7,0,3.4,0,5.2
		c-1.9,0-4.1,5.2-5.9,5.2c0,1,0,1.9,0,2.9c0.6,0,2.2,4.1,2.2,5.2c-0.6,0-4.4,2.2-2.2,2.2c0,1.4,3.7,1.1,3.7,3c1.4,0,0.1,0.7,1.5,0.7
		c0,1.6,3.7,0.2,3.7-0.7c0.5,0,1,0,1.5,0c0-2.5,4,1.4,1.5,1.4c0,1.3,0.8,4.5-0.7,4.5c0,2.1-3-0.7-3-1.5c-3.3,0-0.1,3,0.7,3
		c0,2.4,2,2.9,4.5,2.9c0-2.9,4.4,2.2,1.5,2.2c0,0.7-1.6,2.2-2.2,2.2c0,2-3-0.6-3-1.5c-0.7,0-1.4,0-2.2,0c0-1.3-3.7-0.7-3.7-3.7
		c-1.7,0-0.3-2.9-2.9-2.9c0,2.9,1.4,3,1.4,5.9c1.7,0-0.2,1.5,1.5,1.5c0,3.1,3,1.3,3,4.4c-1.4,0-1.6,2.2-3,2.2
		C627.5,644.4,625.9,645.3,623.8,645.3z"/>
	<path class="st4" d="M622.2,467.1c-0.6-3.2,30.1,4.7,30.3-5.5c0-2.3,3-3.1,3.8-1.4C663.2,474.2,622.4,468.3,622.2,467.1
		L622.2,467.1z M730.1,467.1c-2.4-3.7,1.6-8.1,2.2-5.9c2.6,8.9,32.4,7,32.7,7.8C766.1,471.6,733.3,472,730.1,467.1L730.1,467.1z
		 M632.9,558.4c1.1-4.3,1.5-7.4,4.1-4.8C639.2,555.8,632.4,560.1,632.9,558.4L632.9,558.4z M653.4,574c-3-2.9-2.7-7.7,0.5-5.5
		C656.1,569.9,654,574.5,653.4,574L653.4,574z M669.2,573.2c0-0.9-7.9-5.2-0.7-5.2C668.5,568.1,671.6,573.2,669.2,573.2L669.2,573.2
		z M671.5,560.9c-0.5-0.1-4,0.3-4.2-3C666.9,551.5,677.1,562.2,671.5,560.9L671.5,560.9z M711.8,558.6c-4.1,2.1,2.2-7.4,4.6-4.4
		C718.4,556.7,714,557.5,711.8,558.6L711.8,558.6z M716,574c-2,3.6-2.2-7.9,1.6-6.3C720.4,569,717.3,571.6,716,574L716,574z
		 M733.8,574c-0.1,3.7-6.9-7.6-0.5-6.4C734.5,567.8,733.9,570.5,733.8,574L733.8,574z M753.9,558.2c4.9,3.6-10.2,1.1-5-3.6
		C751.2,552.5,752.2,557,753.9,558.2L753.9,558.2z M703.4,591c0-1.1-9.2-4.4,0-4.4C703.4,586.8,709.5,591,703.4,591L703.4,591z
		 M674.4,591.5c0.3,0.3,2.9-2.2,4.2-4C681.8,583.4,669.2,587,674.4,591.5L674.4,591.5z M685.5,599.9c-1,0.1-3,0.6-3.7-1.9
		C680.7,594.1,693.1,599.2,685.5,599.9L685.5,599.9z M692.6,607.2c2.1-1.4,5.6-3.3,3.3-4.7C692,600.2,688.6,609.9,692.6,607.2
		L692.6,607.2z M681.1,614.7c-0.4-0.3-5.1-0.8-3.5-3.3C680.5,606.6,685.4,617.9,681.1,614.7L681.1,614.7z M697.2,617.4
		c-3.6,2.5,0.8-8.7,4.9-5C704,614,699,616.1,697.2,617.4L697.2,617.4z M660.6,620.4c-1-1.3-7-6.1,0.5-4.9
		C662.1,615.7,663.7,624.3,660.6,620.4L660.6,620.4z M726,625.4c-0.4,4.9-6.9-6.6-0.3-6.2C727.7,619.4,726.1,622.9,726,625.4
		L726,625.4z M644.8,628.1c-3-1.4-7.4-1.6-5.4-4.1C642.5,620.1,650.2,630.7,644.8,628.1L644.8,628.1z M732.1,630.6
		c1.8-0.8,6.1-0.8,4.4-3C732.4,622,726.1,633.3,732.1,630.6L732.1,630.6z M609.4,631.2c-0.6-5-1.4-7.1,2.9-5.1
		C614.3,627,609.7,633.4,609.4,631.2L609.4,631.2z M777.8,632.5c-0.9,0.3-4.3-3-4.6-3.6c-1.3-3.2,1.3-4.6,3.3-3.4
		C779.1,626.9,778.9,632.2,777.8,632.5L777.8,632.5z M645,642.9c-3.5-2.3-7.3-2.3-4.5-5C644.5,634.2,650,646.3,645,642.9L645,642.9z
		 M735.7,646.6c-0.2-0.7-0.9-3.1,2.3-5c2-1.2,5,0.3,2.4,2.4C739.4,644.8,735.8,646.9,735.7,646.6L735.7,646.6z M751.5,647.6
		c-3.6,4.6-1.7-7.8,2.7-5.5C757.8,644.2,753,645.6,751.5,647.6L751.5,647.6z M634.4,651c-2.3-3.2-6.1-5.8-2.8-7.2
		C636,641.8,636.4,653.9,634.4,651z"/>
	<path class="st2" d="M552.8,382V110.4h-253C299.7,182,281.3,280,281.2,382H552.8z"/>
	<path class="st1" d="M399.8,152c0-1.3-2.2-0.6-2.2-2.2c-2.3,0-0.4-6.7-2.2-6.7c0-1.8-0.5-5.2-2.2-5.2c0-0.2,0-0.5,0-0.7
		c-1.1,0-1.8-3.7-2.9-3.7c0-0.2,0-0.5,0-0.7c-0.2,0-0.5,0-0.7,0c0-1.7-0.6-5.9-2.2-5.9c0-3,0.7-3,3.7-3c0,2.6,5.2-1.1,5.2,1.5
		c2.3,0-0.8,3.7,1.5,3.7c0,1.1,0.7,1.1,0.7,0c0.5,0,1,0,1.4,0c0-1.2,5.2-2.4,5.2-0.7c0.8,0,3.5,3,1.4,3c0,2.1-0.1,3-2.2,3
		c0,1.3-1.5,0.8-1.5,2.9c1.7,0,3.4,0,5.2,0c0-2,2.2,0.5,2.2-1.5c2,0,4,0,5.9,0c0-3-2.2-0.2-2.2-2.2c-2.1,0-2.9-1.6-2.9-3.7
		c0.4,0,3.7-3.7,3.7-1.5c1.1,0,2.2,0.5,2.2,1.5c0.9,0,2.6-2.2,0.7-2.2c0-0.2,0-0.5,0-0.7c-1.2,0-1.3-2.2,0-2.2c0-2,0.9-2.2,2.9-2.2
		c0-1.7,4.5-0.9,4.5,0.7c1.7,0-0.2,1.5,1.5,1.5c0,2-2.6,3.7,1.4,3.7c0-1.2,2.2-1.2,2.2,0c1.5,0,2.5,3.7,0.7,3.7c0,2-3,0.9-3,3.7
		c0.2,0,0.5,0,0.7,0c0,1.3,3,1.3,3,0c1.4,0,2.9,0,4.4,0c0,0.2,0,0.5,0,0.7c1.9,0,5.9,1.7,5.9-0.7c-0.2,0-0.5,0-0.7,0
		c0-1.6-2.9-0.6-2.9-2.2c-0.2,0-0.5,0-0.7,0c0-2.6,1.2-5.2,3.7-5.2c0-3.2,3.7,3.3,3.7,0.7c2,0-0.5-2.2,1.5-2.2
		c0-1.6,2.9-0.7,2.9-2.2c0.2,0,0.5,0,0.7,0c0-1.2,2.2-1.3,2.2,0c1.2,0,1.2,1.5,0,1.5c0,2.4-1.5,1.3-1.5,3.7c-1.6,0-0.7,3-2.2,3
		c0,2-0.7,1-0.7,2.9c-1.7,0-2.2,3.5-2.2,5.2c-2,0-0.5,5.9-2.2,5.9c0,2.2-1.5,1.5-1.5,2.9c-1.4,0-0.1-0.7-1.4-0.7
		c0-1.7-1.3-2.9-3-2.9c0-1.4-2.2-0.6-2.2-2.2c-8.4,0-16.8,0-25.2,0c0,2-2.2-0.5-2.2,1.5c-0.9,0-2.6,2.2-0.7,2.2c0,1.2,1.5,1.2,1.5,0
		c0.5,0,1,0,1.5,0c0-1.7,1.5,0.2,1.5-1.5c6.9,0,13.8,0,20.8,0c0,0.2,0,0.5,0,0.7c1.2,0,4,2.2,2.2,2.2c0,0.2,0,0.5,0,0.7
		c-1.2,0-2.9,1.2-2.9,2.2C421.1,152,410.5,152,399.8,152L399.8,152z M508.9,161.7c0-2.5-4.5,1-4.5-1.5c-0.2,0-0.5,0-0.7,0
		c0-2.7-5.9,1.2-5.9-1.5c-2.4,0-10.4,1.2-10.4-1.5c-2,0,0.5-2.2-1.5-2.2c0-0.7,0-1.5,0-2.2c-0.7,0-2.2-4.7-2.2-5.9
		c1.3,0,0.3-0.7,2.2-0.7c0,1.4,1.7,0.7,2.9,0.7c0,2,2.2-0.5,2.2,1.5c2.2,0-0.4,3.7-1.5,3.7c0,0.5,0,1,0,1.5c2,0,4,0,6,0
		c0-0.5,0-1,0-1.5c-1.3,0-1.3-3,0-3c0-1.9,2.2,0.5,2.2-1.4c2.3,0-0.8-3.7,1.5-3.7c0-2.1,2.5,0,3,0c0,3.9-0.7,5.2,2.9,5.2
		c0,0.6,2.1,3,0,3c0,2-2.2-0.5-2.2,1.5c-1.8,0,0.9,2.2,1.5,2.2c0,2.6,5.2-1.1,5.2,1.5c0.5,0,1,0,1.5,0c0,2.1,2.9-1.5,0.7-1.5
		c0-0.6-1.9-2.2,0-2.2c0-2.6,5.2-0.3,5.2-2.2c1.3,0,3.7-0.7,3.7,0.7c2.2,0-1.3,3.7-2.2,3.7c0,0.2,0,0.5,0,0.7c-1.4,0-2,4.5-3.7,4.5
		C514.9,162.5,510.3,161.7,508.9,161.7L508.9,161.7z M327.1,163.1c0-0.6-4.5-5.2-5.2-5.2c0-0.2,0-0.5,0-0.7c-1.7,0-4.8-2.9-1.5-2.9
		c0-1.4,2.4-0.7,3.7-0.7c0,0.9,2.2,2.6,2.2,0.7c0.2,0,0.5,0,0.7,0c0-1.2,2.2-1.3,2.2,0c1.8,0,2,2.9-0.7,2.9c0,0.6-1.9,2.2,0,2.2
		c0,3.7,9.9-3.7,5.9-3.7c0-0.5-3.9-3.7-1.5-3.7c0-2.2,3,0.7,3-1.5c1.8,0-0.2-1.5-0.7-1.5c0-0.7,0-1.4,0-2.2c0.5,0,4.4-2.2,4.4,0
		c1.7,0-0.2,1.5,1.5,1.5c0,1.9,2.2-0.5,2.2,1.4c2.6,0-1.9,3,0.7,3c0,1.3,5.9,1.4,5.9,0c0.2,0,0.5,0,0.7,0c0-1-1.8-3.7,0-3.7
		c0-1.1,3.7-3.6,3.7-1.4c1.8,0,0,2.7,0,3.7c-1.1,0-0.7,0.4-0.7,1.5c-1.8,0-0.5,5.2-2.2,5.2c0,0.2,0,0.5,0,0.7
		C342.5,158.7,335.7,163.1,327.1,163.1L327.1,163.1z M413.2,169.1c0-0.2,0-0.4,0-0.7c-1.1,0-1.8-3.7-2.9-3.7c0-0.8,0.1-0.7-0.7-0.7
		c0-2.6-2.2-1.8-2.2-4.4c-1.5,0-2.2-3-3.7-3c0-3.4,4.2-2.2,7.4-2.2c0,1.5,2.9,0.2,2.9,2.2c1.2,0,1,1.5,2.2,1.5c0,0.7,0,1.5,0,2.2
		c1.6,0,1.1,5.2-0.7,5.2C415.4,167.8,415.5,169.1,413.2,169.1L413.2,169.1z M407.2,192.1c2.1,0,3-0.2,3-2.2c1.6,0,0.5-3.7,2.2-3.7
		c0-1.4,1.1-5.2,2.2-5.2c0-0.7,0-1.5,0-2.2c1.4,0,1.6-4.4,3-4.4c0-0.5,0-1,0-1.5c1.3,0,1.5-1.6,1.5-3c1.7,0,1.2-2.9,2.9-2.9
		c0-2.6,2.2-1.9,2.2-4.5c0.7,0,1.5-0.8,1.5-1.4c0.6,0,4.4-3.8,4.4-4.5c1.9,0,0-1.6,0-2.2c-4,0-7.9,0-11.9,0c0,0.8,0.1,0.7-0.7,0.7
		c0,1.2,2.9,7.4,0.7,7.4c0,1.1,0.5,2.2-0.7,2.2c0,2.9-1.5,3-1.5,5.9c-2,0,0.5,2.2-1.5,2.2c0,2-0.7,1-0.7,3c-1.8,0-0.6,3.7-2.2,3.7
		c0,0.3,0,0.5,0,0.7c-1.7,0,0.2,1.5-1.5,1.5c0,1.7-2.2,1.7-2.2,0c-1.7,0,0.2-1.5-1.5-1.5c0-1.2-2.8-5.2-3.7-5.2c0-0.3,0-0.5,0-0.7
		c-1.4,0-0.6-2.2-2.2-2.2c0-2-1.4-2.4-1.4-4.4c-1.9,0-3.1-6.7-1.5-6.7c0-1.3,0-2.5,0-3.7c0.8,0,0.7,0.1,0.7-0.7c1.9,0,0-1.6,0-2.2
		c-5.4,0-10.9,0-16.3,0c0,0.3,0,0.5,0,0.7c-1.9,0,1,2.2,2.2,2.2c0,0.8-0.1,0.7,0.7,0.7c0,2.2,4.4,3.1,4.4,5.9c1.1,0,0.7,0.4,0.7,1.5
		c1.7,0,4.2,5.2,5.2,5.2c0,0.5,0,1,0,1.5c1.7,0-0.2,1.5,1.5,1.5c0,2.3,1.5,1.4,1.5,3.7c1.2,0,1.7,3.7,2.9,3.7c0,0.5,0,1,0,1.5
		c2,0,0.7,2.9,2.2,2.9c0,0.3,0,0.5,0,0.7c1.2,0,2.4,5.2,3.7,5.2C407.2,191.6,407.2,191.9,407.2,192.1L407.2,192.1z M425.8,192.8
		c1.1,0,2.2,0.5,2.2-0.7c2,0-0.5-2.2,1.5-2.2c0-1.9,0.7-1,0.7-2.9c2,0-0.5-2.2,1.5-2.2c0-0.3,0-0.5,0-0.7c1.9,0,0.6-4.4,2.2-4.4
		c0-1.6,0.8-4.4,2.2-4.4c0-2,0.7-1,0.7-3c1.7,0-0.2-1.5,1.5-1.5c0-1.2,1.1-3.7,2.2-3.7c0-2.3,1.4-1.4,1.4-3.7c0.7,0,4.5-3.7,4.5-4.4
		c2.3,0,2.1-2.2,3.7-2.2c0-2.2-3.7-0.5-3.7-2.2c-2.2,0-4.5,0-6.7,0c0,1.7-3.7,0-3.7,2.2c-2.1,0,0.7,3,1.5,3c0,1.8,0,3.5,0,5.2
		c-2.2,0,0.7,3-1.5,3c0,0.3,0,0.5,0,0.7c-1.7,0,0.2,1.4-1.5,1.4c0,2-0.7,1-0.7,3c-2.1,0,0.7,3-1.4,3c0,1.9-0.7,1-0.7,2.9
		c-1.6,0-0.7,3-2.2,3c0,0.3,0,0.5,0,0.7c-2.2,0,0.7,2.9-1.5,2.9c0,1.9-1.4-0.7-2.2-0.7c0-2.4-1.5-1.3-1.5-3.7
		c-1.7,0,0.2-1.5-1.5-1.5c0-2-0.7-1-0.7-3c-0.6,0-2.9-2.9-2.9-0.7c-1.7,0,0.4,7.4,2.2,7.4c0,2.1,1.5,2.4,1.5,4.5
		c1.4,0,1.6,4.4,3,4.4C425.8,192.3,425.8,192.6,425.8,192.8L425.8,192.8z M321.2,214.4c0-0.7-1.6-2.2-2.2-2.2c0-2.6-2.2-1.8-2.2-4.4
		c-1.6,0-2.8-3.7-4.5-3.7c0-2-0.7-1-0.7-2.9c-1.7,0-0.8-2.2-2.2-2.2c0-5.2,2.3,0,3.7,0c0,0.2,0,0.5,0,0.7c1.1,0,4.4,7.7,4.4,2.2
		c-1.6,0-2.8-3.7-4.4-3.7c0-1.2-1.2-2.9-2.2-2.9c0-1.2,0-2.5,0-3.7c1.7,0,3,1.3,3,3c1.7,0-0.2,1.5,1.5,1.5c0,0.6,3,3.7,3.7,3.7
		c0-0.7,0-1.5,0-2.2c-0.2,0-0.5,0-0.7,0c0-0.6-2.5-4.4-2.9-4.4c0-1.4-1.5-0.9-1.5-3c-1.6,0-0.7-2.9-2.2-2.9c0-0.5,0-1,0-1.5
		c-1.3,0-1.3-2.9,0-2.9c0-2,2.1,1.4,3,1.4c0,0.5,0,1,0,1.5c1,0,4.1,5.9,5.9,5.9c0,0.7,0,1.5,0,2.2c1.4,0,1.6,2.2,3,2.2
		c0,4,0.7,6.1,0.7,10.4c1.5,0,1.4,6.7-0.7,6.7C323.4,213.9,322.3,214.4,321.2,214.4L321.2,214.4z M325.6,220.3
		c1.1,0,2.2,0.5,2.2-0.7c2.4,0,2.1-2.2,3.7-2.2c0-3,0-3.7-2.9-3.7c0,2.4-4.5,0.5-4.5,2.2c-1.2,0-0.7,1.1-0.7,2.2
		C324,218,325.6,219.7,325.6,220.3L325.6,220.3z M514.9,221.8c0-1.5,0-3,0-4.5c-0.4,0-3-0.4-3-0.7c-1.9,0-1.9-3.7,0-3.7
		c0-2.4,0.7-2.1,0.7-4.4c1.8,0,3.4-4.5,5.2-4.5c0-2.3,2.2-2.1,2.2-3.7c1.3,0,3-3,3-4.4c1.2,0,1-1.5,2.2-1.5c0-1.9-0.5-5.2,1.5-5.2
		c0-0.5,2.2-3.4,2.2-1.5c0.8,0,0.7-0.1,0.7,0.7c-1.4,0-0.7,1.7-0.7,2.9c-2,0,0.5,2.2-1.5,2.2c0,1.4-1.5,0.9-1.5,2.9
		c-2.2,0-0.6,3.7-2.2,3.7c0,1.4-1.4,0.9-1.4,3c-1,0-2.6,4.4-0.7,4.4c0-2,2.2,0.5,2.2-1.5c1.6,0,0-3.7,2.2-3.7c0-0.2,0-0.5,0-0.7
		c1.5,0,0.3-3,2.2-3c0-0.5,0-1,0-1.5c2.9,0,1.8,5.2,0,5.2c0,1,0,1.9,0,2.9c-1.4,0-0.1,0.7-1.5,0.7c0,1.7-2,3.7-3.7,3.7
		c0,1.1-2.5,2.2-3.7,2.2c0,0.6-2.1,3,0,3c0-1,4.4-2.6,4.4-0.7c2,0-2.2,2.8-2.2,3.7c-1.3,0-3.7,1-3.7,2.2
		C515.6,220.3,516.3,221.8,514.9,221.8L514.9,221.8z M330.1,232.1c0-0.2,0-0.5,0-0.7c-1,0-1.5-4.7-1.5-5.9c0.6,0,2.2-1.9,2.2,0
		C332.3,225.5,332.2,232.1,330.1,232.1L330.1,232.1z M511.9,233.6c0-0.8,0.1-0.7-0.7-0.7c0-3.9-1-8.9,3-8.9c0,0.2,0,0.4,0,0.7
		c1.4,0,1.6,7.4-0.7,7.4C513.4,232.8,512.5,233.6,511.9,233.6L511.9,233.6z M457,236.6c0-0.2,0-0.5,0-0.7c-0.2,0-0.5,0-0.7,0
		c0-1.7,0.9-6.7,2.2-6.7c0-1.4,1.7-0.7,2.9-0.7c0,2,2.2-0.5,2.2,1.5c0.9,0,2.6,2.2,0.7,2.2c0,0.2,0,0.5,0,0.7c-1.5,0-0.3,2.2-3,2.2
		C461.4,236.9,458.8,236.6,457,236.6L457,236.6z M447.3,228.5c0-1.5-3-2.2-3-3.7c-0.5,0-1,0-1.5,0c0-2.1-2.9,0.7-2.9-1.4
		c-2.1,0-3-0.2-3-2.2c-0.7,0-3.7-3-3.7-3.7c-1.9,0-1.1-0.7-3-0.7c0-3.1,2.7,0,4.4,0c0,0.6,3.8,4.4,4.5,4.4c0,1.1,4.5,2.2,5.9,2.2
		c0,0.2,0,0.5,0,0.7C447.7,224,448.8,228.5,447.3,228.5L447.3,228.5z M431,240.3c1.3,0,5.9-0.5,5.9-1.5c0.7,0,1.5,0,2.2,0
		c0-1.7,5.9-1.5,5.9-2.9c0.5,0,1,0,1.5,0c0-2,2.2,0.5,2.2-1.5c2.6,0,5.9-1.9,5.9-4.4c1.4,0,1.3-5.2,0-5.2c0-2.6-2.2-1.9-2.2-4.4
		c-1.5,0-2.2-2.9-2.2-4.4c-2.1,0-1.3-4.5-2.9-4.5c0-3.3-11.9-0.4-11.9-2.9c-4.4,0-13.4-1.1-13.4,3.7c-3,0-1.5,17.3-1.5,19.3
		c1.4,0,0.1,0.7,1.5,0.7c0,3.1,3.7,2.1,3.7,3.7c0.5,0,1,0,1.4,0C427.3,237.5,431,238.6,431,240.3L431,240.3z M390.9,229.2
		c0-2.1,0.2-3,2.2-3c0-2,2.2,0.5,2.2-1.5c0.7,0,1.5,0,2.2,0c0-0.6,2.3-2.9,2.9-2.9c0-2.3,2.2-2.2,2.2-3.7c4.9,0,0,1.4,0,3
		c-0.2,0-0.5,0-0.7,0c0,2.7-3.7,3.2-3.7,5.2c-1,0-2,0-3,0c0,1.7-1.5-0.2-1.5,1.5C391.8,227.7,392.3,229.2,390.9,229.2L390.9,229.2z
		 M402,241.1c0-2.3-3.7,0.8-3.7-1.5c-1.2,0-3.7-0.4-3.7-1.5c-1.3,0-3.7-1-3.7-2.2c-0.5,0-1,0-1.5,0c0-2.1-4.4-3-4.4-5.9
		c-1.8,0-0.6-7.4,1.4-7.4c0-1.4,1.5-0.9,1.5-3c1.5,0,2.2-2.9,2.2-4.4c1.7,0-0.2-1.5,1.5-1.5c0-0.8-0.1-0.7,0.7-0.7
		c0-1.8,9.6,0.3,9.6-2.9c0.7,0,1.5,0,2.2,0c0-1.7,1.5,0.2,1.5-1.5c2.9,0,5.9,0,8.9,0c0,1.4,2.2,1.6,2.2,2.9c1.3,0,0.7,1.1,0.7,2.2
		c2.3,0-0.8,3.7,1.5,3.7c0,1.1,0.4,1.5-0.7,1.5c0,4.2,0,8.4,0,12.6c-1.7,0,0.2,1.5-1.5,1.5c0,1.7-1.3,3-3,3c0,1.4-3.6,3.7-5.2,3.7
		C408.7,241.8,404.1,241.1,402,241.1L402,241.1z M372.3,241.1c1.8,0,3.5,0,5.2,0c0-0.8-0.1-0.7,0.7-0.7c0-2.4,2.2-2.2,2.2-3.7
		c2.1,0,3.3-3,1.5-3c0-0.7,0-1.5,0-2.2c-2,0,0.5-5.9-2.2-5.9c0-2-5.9-0.4-5.9-2.2c-0.5,0-1,0-1.5,0c0,1.8-4.4-0.2-4.4,2.2
		c-2,0,2.2,2.8,2.2,3.7c2.4,0,2,0.7,4.4,0.7c0,2,2.2-0.4,2.2,1.4c1.9,0-0.7,1.4-0.7,2.2c-2.6,0-1.9,2.2-4.4,2.2
		c0,0.9-3.5,2.9-1.5,2.9C370.2,240.5,372.3,239.7,372.3,241.1L372.3,241.1z M365.7,215.1c0-2.1-2.9,0.7-2.9-1.5c-0.5,0-1,0-1.5,0
		c0-0.7-6.1-3.7-2.2-3.7c0,1.7,1.5-0.3,1.5,1.4c0.2,0,0.5,0,0.7,0c0,0.9,3.3,1.5,4.4,1.5c0,1.7,1.5-0.2,1.5,1.5
		C369.3,214.4,367.1,215.1,365.7,215.1L365.7,215.1z M345.6,169.8c1,0,2,0,3,0c0-1.4,1.5-0.8,1.5-2.9c0.8,0,0.7,0.1,0.7-0.7
		c3.2,0,0-1.1,0-2.2c-2.2,0-8.2-0.9-8.2,1.5c-2.6,0,1.5,4.1,1.5,1.5C348.1,166.9,345.6,167.8,345.6,169.8L345.6,169.8z M339.7,192.8
		c0-0.7-0.8-1.5-1.5-1.5c0-2.5,0-4.9,0-7.4c0.5,0,1,0,1.5,0c0,1.6,0.7,5.2,2.2,5.2c0,0.2,0,0.4,0,0.7
		C343.8,189.8,340.3,192.8,339.7,192.8L339.7,192.8z M484.4,181.2c-0.4-0.2-1.1,4.7-1.8,4.9c-0.7,0.1-2.4-4.9-1.8-4.9H484.4
		L484.4,181.2z M360,177.4c-0.4-0.2-1,5.9-1.7,6.1c-0.7,0.1-2.5-6.1-1.9-6.1H360L360,177.4z M360.7,176.7c0.9-0.2,2.2-0.1,3.5-0.2
		c0.9-0.1,2.4-3.7,0.7-3.7c0-0.8-2.7-2.2-0.7-2.2c0-1.4,0.7-0.1,0.7-1.5c1.2,0,1.2-2.2,0-2.2c0-0.3,0-0.5,0-0.7c-0.9,0-3-0.6-3-1.5
		c-1,0-2,0-3,0c0-1.6-2.9-0.7-2.9-2.2c-2.3,0-1.4-1.4-3.7-1.4c0-1.3-2.9-1.3-2.9,0c-0.7,0-1.5,0-2.2,0c0,2-8.9,0.3-8.9,2.2
		c-2.8,0-3.1,0.7-5.9,0.7c0,2-2.2-0.5-2.2,1.5c-0.9,0-2.6,2.2-0.7,2.2c0,1.1,0.5,2.2-0.7,2.2c0,1.2,0.6,3-0.7,3c0,1.2-1.5,1.2-1.5,0
		c-2.2,0,0.3-3.7,1.5-3.7c0-3.1-1.3-3.7-4.4-3.7c0,0.2-3.1,5.2-0.7,5.2c0,1.8,1.3,6.7,2.9,6.7c0,1.3,3,1.3,3,0
		c1.7,0-0.2-1.4,1.5-1.4c0-1.7,0.7,0,1.4,0c0,1.5,0.8,8.1-0.7,8.1c0,1.2-1.1,3-2.2,3c0,2-2.2-0.5-2.2,1.5c-0.5,0-1,0-1.5,0
		c0-0.6-3.7-4.8-3.7-3c-1.5,0-0.7,2.5-0.7,3.7c1.6,0,0.5,3.7,2.2,3.7c0,2.6,5.2-1.1,5.2,1.5c1.7,0,0,0.7,0,1.5
		c-2.5,0-1.5,5.9-1.5,8.1c2.8,0-1.3,6.7,1.5,6.7c0,1.8,1.5-0.2,1.5-0.7c2.1,0,0.4-6.7,2.2-6.7c0-1,0-2,0-3c2.3,0,1.5-5.3,1.5-7.4
		c-2.1,0,0-2.4,0-3c1.7,0,3,1.3,3,3c-3,0,2.7,7.4,0,7.4c0,1.9-0.7,1-0.7,2.2c-3,0-1.5,11.3-1.5,14.1c-1.7,0,0.2,1.4-1.5,1.4
		c0,0.6-1.6,2.2-2.2,2.2c0,3.1,2.8,2.2,5.9,2.2c0-1.6,2.2-1.4,2.2-3.7c2.2,0,1.5,0.9,1.5,3c-1.2,0-1,1.5-2.2,1.5c0,1.6-3,0.2-3,2.2
		c-1.9,0-0.1,8.2-2.2,8.2c0,2.1-1.5,1.6-1.5,3c-2.1,0,0.7,2.4,0.7,2.9c1.3,0,6-0.2,6-1.5c1.6,0-0.3-1.4,1.4-1.4
		c0-2.9,0.7-3.1,0.7-5.9c-1.3,0-1.3-3.7,0-3.7c0-1.8,2.5,0.7,0.7,0.7c0,1,0,2,0,3c1.8,0,0.3,8.9-0.7,8.9c0,0.7,0,1.5,0,2.2
		c1.2,0,3,0.6,3-0.7c2.7,0,1.4-2.2,2.9-2.2c0-0.8-0.1-0.7,0.7-0.7c0-2.5,0-4.9,0-7.4c0.7,0,1.5,0,2.2,0c0,2.5,0,4.9,0,7.4
		c-1.5,0-0.7,2.5-0.7,3.7c2,0-0.5,2.2,1.5,2.2c0,0.3,0,0.5,0,0.7c3.7,0,2.9-8.7,2.9-11.9c-0.3,0-0.5,0-0.7,0c0-3.8,0.9-1.5,3-1.5
		c0,1.7,0.7,0,1.5,0c0-1.5,0-3,0-4.4c2.8,0,1.1,3,2.9,3c0,0.5,0,1,0,1.4c1.4,0,1.6,2.2,3,2.2c0,2.1,7.4,3.3,7.4,1.5
		c2.1,0,1.6-1.5,2.9-1.5c0-2.1-0.1-2.9-2.2-2.9c0-1.7-1.5,0.2-1.5-1.5c-1.4,0-3-3-3-4.5c-1.5,0-2.2-2.9-3.7-2.9
		c0-1.7-2.2-0.9-2.2-2.2c-1,0-4.8-4.4-2.9-4.4c0-1.7,0.7,0,1.4,0c0,0.7,5.3,5.9,6,5.9c0,1.7,7.4,2.6,7.4,0c1.3,0,0-0.7,1.4-0.7
		c0-1.2,0.6-3-0.7-3c0-1.6-1.4,0.3-1.4-1.4c-3.8,0,0.7-2.8,0.7-3.7c1,0,1.4-2.5,1.4-3.7c1.7,0-0.1-3-0.7-3c0-0.3,0-0.5,0-0.7
		c-0.9,0-3.7,1.6-3.7,2.2c-1,0-2,0-3,0c0-1.6-2.9-0.7-2.9-2.2c-1.5,0-1.4-2.2-3.7-2.2c0-0.7-5.2-6-5.9-6c0-1.2-6.1-1.4-7.4-1.4
		c0,0.3,0,0.5,0,0.7c-0.3,0-0.5,0-0.7,0c0,1.2-1.1,2.9-2.2,2.9c0,1.9-2.2-1-2.2-2.2c-0.3,0-0.5,0-0.7,0c0-2.8,2.2-1,2.2,0
		c3.6,0,1.2-4.4,3.7-4.4c0,2.4,4.5,0.5,4.5,2.2c0.3,0,0.5,0,0.7,0c0-1.3,2.9-1.3,2.9,0c2,0-0.5,2.2,1.5,2.2c0,1.7,2.2,1.7,2.2,0
		c1.3,0,1.2-5.2,0-5.2c0-1.8-2.7-1.5-4.5-1.5c0-2.7-6.7,1.3-6.7-1.4c-1.2,0-2.9-1.2-2.9-2.2c-1.8,0-0.5-3,0.7-3
		c0-2.8,0.7-3.1,0.7-5.9c0.8,0-0.1-0.5,0.7-0.7C348.5,175.7,357.7,176.7,360.7,176.7L360.7,176.7z M387.2,265.5
		c1.1,0,2.2,0.5,2.2-0.7c1.3,0,1.3-3.7,0-3.7c0-8.6-1.5-11.6-1.5-20c0.3,0,0.5,0,0.7,0c0-1.6-0.6-2.2-2.2-2.2c0-1.3-2.9-1.3-2.9,0
		c-0.5,0-1,0-1.5,0c0,0.7-2.3,3-3,3c0,3.6,0.7,4.7,0.7,8.2c1.4,0,1.3,6.7,0,6.7c0,1,0,2,0,2.9c0.7,0,5.2,4.6,5.2,5.2
		C386.1,264.8,387.2,264.3,387.2,265.5L387.2,265.5z M436.9,267.8c0.7,0,1.5,0,2.2,0c0-0.8-0.1-0.7,0.7-0.7c0-1.7,1.3-2.9,2.9-2.9
		c0-1.7,1.5,0.2,1.5-1.5c3.1,0,3.7,0,3.7-3c-1.5,0-0.7-4.6-0.7-5.9c1.8,0,2.2-9.6,2.2-11.9c1.5,0,3.4,5.2,1.5,5.2
		c0,3.3-0.7,4.1-0.7,7.4c-2,0,0.5,2.2-1.5,2.2c0,1.1-0.4,1.5,0.7,1.5c0,2.9-0.6,5.2,2.2,5.2c0-1.7,1.5,0.2,1.5-1.5
		c1.2,0,3.7-1.1,3.7-2.2c1.6,0,1.5-2.1,1.5-3.7c-1.9,0-1.5-3.3-1.5-5.2c2.2,0,1.5-4.6,1.5-6.7c-2.5,0-1.2-6-3-6
		c0-1.3-4.4-3.3-4.4-1.4c-0.7,0-1.5,0-2.2,0c0,1.3-5,2.2-6.7,2.2c0,2-2.2-0.5-2.2,1.5c-0.3,0-0.5,0-0.7,0c0,2-2.2-0.5-2.2,1.5
		c-0.5,0-1,0-1.5,0c0,2.2-2.9-0.7-2.9,1.5c-1.4,0-0.1,0.7-1.5,0.7c0,2.3-1.5,1.4-1.5,3.7c-0.3,0-0.5,0-0.7,0c0,2-0.7,1-0.7,3
		c-1.8,0-0.4,5.2,0.7,5.2c0,2.5,3,2.9,3,5.2c0.3,0,0.5,0,0.7,0c0,2.5,2.2,1.9,2.2,4.4C435.3,265.5,436.9,267.1,436.9,267.8
		L436.9,267.8z M396.1,270c0.5,0,1,0,1.5,0c0-1.9,3.7-2.6,3.7-5.2c1.4,0,0.1-0.7,1.5-0.7c0-2.6,2.2-1.9,2.2-4.5
		c1.3,0,1.6-2.2,2.9-2.2c0-2.3,2.2-2.2,2.2-3.7c2.2,0-0.5-5.9-2.2-5.9c0-2.6-2.2-1.5-2.2-3c-0.5,0-1,0-1.5,0c0-1.6-3.4-2.2-5.2-2.2
		c0-2.2-3,0.7-3-1.5c-1.2,0-4.4-1.6-4.4,0c-1.4,0-0.1,0.7-1.5,0.7c0,1.4-2,6.7,0,6.7c0,2,0.7,1,0.7,3c3,0-1.5,8.9,1.5,8.9
		c0,1.2,2.4,4.5,0.7,4.5c0,1-0.4,1.4,0.7,1.4C393.9,268.6,396.1,268.4,396.1,270L396.1,270z M408.7,273.7c0-0.2,0-0.5,0-0.7
		c-1.8,0,0.7-2.4,0.7-0.7c1.7,0,4.4,0.3,4.4-1.4c1.2,0,3.7-0.4,3.7-1.5c1.7,0,3.4,0,5.2,0c0,2,2.2-0.5,2.2,1.5c1.7,0,3.4,0,5.2,0
		c0,1.6,0.1,1.4-1.5,1.4c0,1.5-4.6,0-5.9,0c0-1.1-0.5-0.7-1.5-0.7c0-2.1-5.5,1.4-6.7,1.4C414.7,274.5,410.1,273.7,408.7,273.7
		L408.7,273.7z M417.6,283.4c0-1.7-3.4-2.2-5.2-2.2c0-1.8-9.7,0.4-9.7-2.9c-1.4,0-1.1-3.7-3-3.7c0-0.2,0-0.5,0-0.7
		c-1.7,0-0.1-5.2,1.5-5.2c0-1.4,0.7-0.1,0.7-1.5c2.1,0,1.7-4.4,3.7-4.4c0-0.7,1.5-2.2,2.2-2.2c0-1.8,2.7-4.4,4.5-4.4
		c0-2.2,9.6-1.5,11.9-1.5c0,1.2,1.5,1,1.5,2.2c1.6,0,2.2,0.6,2.2,2.2c0.2,0,0.5,0,0.7,0c0,2.3,1.5,1.4,1.5,3.7
		c1.5,0,2.2,2.9,3.7,2.9c0,1.2,1.2,3,2.2,3c0,1.2,0,2.5,0,3.7c-0.8,0-0.7-0.1-0.7,0.7c-1.7,0-1.3,5.2-2.9,5.2c0,2.1-3-0.6-3,1.4
		c-2.4,0-2.1,0.7-4.4,0.7c0,2.2-3-0.7-3,1.5c-1.1,0-2.2,0.4-2.2,1.5C419.1,283.4,418.4,283.4,417.6,283.4L417.6,283.4z M350.9,284.1
		c0-1.3-0.7-0.3-0.7-2.2c-3.4,0,2.2-5.5,2.2-2.2c1.3,0,1.3,3.7,0,3.7C352.3,284.5,351.9,284.1,350.9,284.1L350.9,284.1z
		 M510.4,177.2c0-0.2,0-0.5,0-0.7c-1.3,0-1.4-4.4,0-4.4c0-2,2.8,2.2,3.7,2.2C514.1,176.4,512.5,177.2,510.4,177.2L510.4,177.2z
		 M487.4,172.8c0-0.5,0-1,0-1.5c2.6,0-1.5-4.1-1.5-1.5c-0.9,0-2.6-2.2-0.7-2.2c0-1.2,1.5-1,1.5-2.2c1.4,0,2.9,0,4.4,0
		c0,1.1,0.4,0.7,1.5,0.7c0,0.2,0,0.5,0,0.7c1.6,0,3.7,0.8,3.7,2.2c-2.2,0-4.4-1.8-4.4,1.5c1.5,0,1.1,1.5-0.7,1.5
		C491.1,173.5,488.6,172.8,487.4,172.8L487.4,172.8z M447.3,286.3c3.8,0,1.6-5.9,3.7-5.9c0-2.1,1.5-1.6,1.5-2.9
		c2.7,0,0.2-5.9,2.9-5.9c0-2.1,1.5-1.6,1.5-3c3.8,0-0.4,4.4-1.5,4.4c0,1,0,2,0,3c1.2,0,0.3,0.7,2.2,0.7c0,0.8-0.1,0.7,0.7,0.7
		c0,2.4-5.9,1-5.9,3.7c-1.7,0,0.2,1.5-1.5,1.5c0,2,0.9,2.2,3,2.2c0-1.1,1-1.5,2.2-1.5c0-1.8,2.7,0,3.7,0c0,2.7,3.3,1.5,4.4,1.5
		c0-1.5,0-3,0-4.5c-0.5,0-4.2-2.9-2.2-2.9c0-1.7,1.5,0.2,1.5-1.5c3.3,0,0.4-8.2,3.7-8.2c0,0.7,0,1.5,0,2.2c0.8,0,0.7-0.1,0.7,0.7
		c2.5,0-2,5.2,0.7,5.2c0,2.1,2.4,0,3,0c0-2.4,0.7-2.1,0.7-4.4c1.2,0,1-1.5,2.2-1.5c0-2.5,4.4,1,4.4-1.5c1.8,0,0.5-3-0.7-3
		c0-2-4.8,0-5.9,0c0-1,0-2,0-2.9c2.7,0-1.2-5.9,1.5-5.9c0-1.3,0-2.5,0-3.7c1.6,0,0.2-2.9,2.2-2.9c0-0.8-0.1-0.7,0.7-0.7
		c0-0.7,0-1.5,0-2.2c-1.4,0-0.1-0.7-1.5-0.7c0-1.2,0-2.5,0-3.7c1.6,0,0.9,2.2,2.2,2.2c0,0.3,0,0.5,0,0.7c2.6,0,1.5-2.2,3-2.2
		c0-0.7,0-1.5,0-2.2c3.4,0-0.2,3.7,2.2,3.7c0,1.9,1.4-0.7,2.2-0.7c0-3.7,0-7.5,0-11.2c0.5,0,1,0,1.5,0c0,2.7,0,5.4,0,8.2
		c1.7,0-0.2,1.5,1.5,1.5c0,1.3,2.2,1.2,2.2,0c1.2,0,1.5-6.1,1.5-7.4c0.5,0,1,0,1.5,0c0,2.7,0,5.4,0,8.2c1.8,0-0.4,3.7,2.9,3.7
		c0,1.9,1.4-0.7,2.2-0.7c0-4,0-7.9,0-11.9c0.5,0,1,0,1.5,0c0,1.5-0.8,7.4,0.7,7.4c0,1.1,3.7,3.7,3.7,1.5c2.6,0,3.7-2.6,3.7-5.2
		c-0.3,0-0.5,0-0.7,0c0-1.3-2.2-0.5-2.2-2.2c-1.9,0-3.5-11.2-1.5-11.2c0-1.6,0.8,0,1.5,0c0,1.8,2.7,0,3.7,0c0-1.3,2.2-1.6,2.2-2.9
		c1.8,0,0.2-2.2-0.7-2.2c0-1.7-1.4,0.2-1.4-1.5c-3.1,0-4.5-0.6-4.5-3.7c-2.3,0-2.2-5.2-2.2-7.4c-1.3,0-1.5-3,0.7-3c0,1,0,2,0,3
		c1.7,0-0.2,1.5,1.5,1.5c0,1.2,3,2.5,3,0.7c1.9,0,0-11.9,2.2-11.9c0-2.1-2.1-6.7,0.7-6.7c0,1.1-0.4,1.5,0.7,1.5
		c0,1.3,4.5,4.2,4.5,2.2c2.3,0,2.9-2.3,2.9-4.5c-0.5,0-1,0-1.5,0c0-2.1-2.9,0.7-2.9-1.4c-2.9,0-1.8-3-3.7-3c0-2.4-0.7-2.1-0.7-4.4
		c0.8,0,0.7,0.1,0.7-0.7c2.1,0,6.7-0.1,6.7-2.2c1.5,0,0.7-3.8,0.7-5.2c-0.7,0-2.2-1.5-2.2-2.2c-2.1,0-3-1.5-3-3.7c-0.7,0-3-2.3-3-3
		c-0.7,0-1.5,0-2.2,0c0-1.3-6.8-1.5-8.2-1.5c0-0.3,0-0.5,0-0.7c-1.2,0-3.7,0.7-3.7-0.7c-3,0-6,0-8.9,0c0,1.6-3.7,2.8-3.7,4.4
		c-2.3,0-1.4,1.5-3.7,1.5c0,0.3,0,0.5,0,0.7c-2,0-1,0.7-3,0.7c0,0.6-1.3,0.7,0,2.2c1.4,1.6,1.6-0.4,3.1,1.2c1.2,1.4-0.3,1.1-1.5,1.9
		c-1.8,1.2-1.3,0.1-3,1.4c-1.7,1.3,0.5,2.8,0.9,3.8c1,2.1,1.6,1.4,4.2,1.4c4.7,0,9.4,0,14.1,0c0,1.7,2.9-0.1,2.9,2.9
		c2.1,0-0.7,6-1.4,6c0,1.1-0.5,0.7-1.5,0.7c0,1.9-13,1.5-14.8,1.5c0,0.3,0,0.5,0,0.7c-1.9,0,0,1.6,0,2.2c2.3,0-0.8,3.7,1.5,3.7
		c0,1.8,2.2,0.2,2.2-0.7c1.1,0,1.5,0.4,1.5-0.7c4.7,0,7.1-0.7,11.9-0.7c0-1.4,2.2-1.6,2.2-3c2.2,0-0.4-7.4,3.7-7.4
		c0,1.7,0.3,7.4-1.5,7.4c0,2.3-1.5,1.4-1.5,3.7c-0.3,0-0.5,0-0.7,0c0,1.9-10,1.5-11.9,1.5c0,2-2.2-0.5-2.2,1.5c-0.3,0-0.5,0-0.7,0
		c0,4.8-7.3,3.7-11.9,3.7c0-0.3,0-0.5,0-0.7c-1.6,0-2.2-0.6-2.2-2.2c-1.3,0-0.9-1.5-2.2-1.5c0-1.8-2.2-0.2-2.2,0.7
		c-1.9,0,0,4.6,0,5.9c0.7,0,2.2,1.6,2.2,2.2c2.4,0,2-0.7,4.4-0.7c0-1.3,3-1.3,3,0c0.3,0,0.5,0,0.7,0c0,2.4-1.2,2.2-3.7,2.2
		c0,1.3-2.2,1.6-2.2,2.9c-1.9,0-1.9,3.7-3.7,3.7c0,2.3-2.2,2.1-2.2,3.7c-0.7,0-1.5,0-2.2,0c0,1.8-3.7,0.7-3.7,2.2
		c-2.6,0,1.5,4.2,1.5,4.4c0.7,0,1.5,0,2.2,0c0,1.9,6,0.2,6-1.5c0.9,0,1.4-2,1.4-2.9c1.7,0,0.9-2.2,2.2-2.2c0-1.7,1.3-2.9,3-2.9
		c0-1.4,0.7-0.1,0.7-1.5c1,0,2,0,2.9,0c0,2.7-2.2,1.4-2.2,2.9c-2.3,0-2.1,2.2-3.7,2.2c0,2.1-1.5,2.4-1.5,4.4c-2,0,0.5,2.2-1.5,2.2
		c0,0.5,0,1,0,1.5c-1.7,0-0.6,3.7-2.2,3.7c0,2.3-1.5,1.4-1.5,3.7c-2.5,0-0.7,3.6-0.7,4.4c1.8,0,3.5,0,5.2,0c0-1.8,3.7-0.7,3.7-2.2
		c2.4,0,1-5.2,2.9-5.2c0-2.3,2.2-2.1,2.2-3.7c0.9,0,2.6,2.2,0.7,2.2c0,0.7-2.3,3-3,3c0,0.7,0,1.5,0,2.2c-2.3,0,0.8,3.7-1.4,3.7
		c0,2-2.2-0.5-2.2,1.5c-0.3,0-0.5,0-0.7,0c0,2-0.7,1-0.7,2.9c-2,0,0.5,2.2-1.5,2.2c0,1-1.4,4.5-2.2,4.5c0,2.7-1.5,2.9-1.5,5.2
		c-0.3,0-0.5,0-0.7,0c0,1.7-1.3,2.9-3,2.9c0,1.5-2.9,0.3-2.9,2.2c-3.1,0-3.3,3-5.9,3c0,1.3-0.7,0-0.7,1.4c-1,0-2,0-3,0
		c0-1-4.4-2.4-4.4-0.7c-2.1,0-3,1.6-3,3.7c2.4,0,1.3,3.7,5.2,3.7c0-0.3,0-0.5,0-0.7c1.2,0,2.9-1.1,2.9-2.2c0.7,0,1.5,0,2.2,0
		c0,1.8-3,4.4-4.5,4.4c0,0.3,0,0.5,0,0.7c-1.9,0,0.5,2.2-1.4,2.2c0,1.8-4.5-0.1-4.5,2.2c-1.8,0-0.5,3,0.7,3c0,1.7,1.5-0.2,1.5,1.5
		C445.5,284.1,447.3,285.3,447.3,286.3L447.3,286.3z M485.9,287.8c0-0.2,0-0.5,0-0.7c-1.6,0-4.4-6.7,0.7-6.7c0,0.2,0,0.5,0,0.7
		c0.2,0,0.5,0,0.7,0C487.4,282.6,487.3,287.8,485.9,287.8L485.9,287.8z M404.3,321.9c0-1.4-4.5-3.2-4.5-1.5c-2.4,0-2.2,0.2-2.2-2.2
		c2.2,0,0.6-3.7,2.2-3.7c0-1.3,1.5-0.9,1.5-2.2c1.3,0,4.5-0.8,4.5,0.7c2.6,0-2.1,6.7,0.7,6.7C406.5,321.4,405.9,321.9,404.3,321.9
		L404.3,321.9z M367.2,327.9c0-1.9-0.4-5.2,1.5-5.2c0-1.2,1.5-1.2,1.5,0c1.3,0,1.3,3,0,3C370.2,327.7,369.2,327.9,367.2,327.9
		L367.2,327.9z M379,334.5c2.6,0,1.9-2.2,4.5-2.2c0-2.3,5.9,1.1,5.9-3c-1.5,0-2.5-3.7-0.7-3.7c0,0.8-0.1,0.7,0.7,0.7
		c0,1.6,4.4,0.8,4.4,2.9c2.5,0-2.1,3.7,0.7,3.7c0,2,5.9,2.1,5.9,0.7c1.3,0,1.2-2.2,0-2.2c0-0.5,0-1,0-1.5c-2.4,0,1.5-3.2,1.5-3.7
		c1.8,0,1.8-3,0-3c0-1.8-5.9-0.1-5.9-2.2c-1.5,0-2.5-3.7-0.7-3.7c0-1.7,1.5,0.2,1.5-1.5c1.4,0,1.3-6.7,0-6.7c0-1.9-3.7-1.9-3.7,0
		c-1.7,0,0.3,1.5-1.4,1.5c0,1.9,0.7,1.4,0.7,3.7c-2.6,0-1.9-2.2-4.5-2.2c0-1.8-8.9-2.7-8.9,0c-2,0-1.4-0.3-1.4-2.2
		c1.1,0,2.2-1.8,2.2-3c1,0,2.6-4.4,0.7-4.4c0-4.5,7.4-0.4,7.4-3c0.3,0,0.5,0,0.7,0c0-2.4-1.9-2.9-4.4-2.9c0-1.4-4.5-2.2-4.5,0
		c-0.5,0-1,0-1.4,0c0-2.1-4.5-1.7-4.5-3.7c-1.4,0-0.1-0.7-1.5-0.7c0-1.7-2.2-0.9-2.2-2.2c-2,0,0.5-2.2-1.5-2.2
		c0-1.7-1.5,0.2-1.5-1.5c-2.3,0-2.5-1.4-5.2-1.4c0-1.2-2.5-2.2-3.7-2.2c0,0.7-2.2,3-2.9,3c0,1.7-1.5-0.3-1.5,1.4
		c-1.3,0-0.7,1.1-0.7,2.2c1.1,0,2.2,1.8,2.2,3c1.5,0,2.2,2.8,2.2,4.4c1.3,0,1.6,2.2,2.9,2.2c0,1.3,1.6,1.4,3,1.4
		c0,2.2,7.4,0.8,7.4,3c2,0,2.2,0.9,2.2,3c-1.8,0-0.3,5.2-2.2,5.2c0,2.2-4.5,1.6-4.5,2.9c-1.9,0,0.3,1.5,1.5,1.5
		c0,0.7,3.1,3.7,3.7,3.7c0,1.1,2,5.9,0,5.9c0,2.9-2.3,5.2,2.2,5.2c0-1.2,1.5-1,1.5-2.2c1.6,0,0.9-2.2,2.2-2.2c0-4.1,2.5,0.7,2.9,0.7
		c0,1,0,2,0,3c-1.3,0-0.3,0.7-2.2,0.7c0,1,0,2,0,3C379.1,333.8,379,333.8,379,334.5L379,334.5z M468.1,349.4c0-1.3-0.7-0.3-0.7-2.2
		c-1.8,0,0.2-4.5-2.2-4.5c0-1.2,1.2-2.9,2.2-2.9c0-1.7,4.4-0.9,4.4,0.7c1.7,0-0.2,1.4,1.5,1.4c0,1.7,1.5-0.2,1.5,1.5
		c2.1,0-1.4,3.7-2.2,3.7c0,1.7-1.5-0.3-1.5,1.4C469.1,348.6,470.1,349.4,468.1,349.4L468.1,349.4z M471.1,362c3.9,0,0.8-5.2,3-5.2
		c0-0.7,0-1.5,0-2.2c1.3,0,0.9-1.5,2.2-1.5c0-2.1,3.7-0.9,3.7-3c1.6,0,0.5-3.7,2.2-3.7c0-1.7,0.7,0,1.5,0c0,2.8-0.7,3.1-0.7,5.9
		c-0.8,0-2.2,2.7-2.2,0.7c-0.7,0-1.5,0-2.2,0c0,0.7-2.3,2.9-3,2.9c0,1.7,2.2,3.4,2.2,1.5c1.5,0,3,0,4.4,0c0,1.4,1.5,0.9,1.5,3
		c0.2,0,3.7,3.1,3.7,0.7c2.6,0,1.5-2.2,2.9-2.2c0-0.7,0-1.5,0-2.2c-2,0,0.5-2.2-1.5-2.2c0-1.7-2.2-0.9-2.2-2.2c-2,0,1.5-2.1,1.5-3
		c2.6,0-1.2-5.9,1.4-5.9c0,0.3,0,0.5,0,0.7c2,0-0.5,2.2,1.5,2.2c0,1-0.4,1.4,0.7,1.4c0,0.9,2.2,2.6,2.2,0.7c2.4,0,0.5-4.4,2.2-4.4
		c0-0.3,0-0.5,0-0.7c1.7,0-0.2-1.5,1.5-1.5c0-1.8,3.7-0.6,3.7-2.2c1.2,0,1.2-1.5,0-1.5c0-1.7-1.5,0.2-1.5-1.5
		c-1.2,0-3.7,0.4-3.7,1.5c-2,0-3.7,2.6-3.7-1.5c1.1,0,2.2,0.5,2.2-0.7c2.3,0,1.4-5.2,0-5.2c0-0.3,0-0.5,0-0.7
		c-2.1,0,0.7-3.6,0.7-1.5c1.1,0,2.2,0.5,2.2,1.5c0.7,0,1.5,0,2.2,0c0,2.2,3.7-0.3,3.7-1.5c0.8,0,3.1-5.2,1.5-5.2c0-0.3,0-0.5,0-0.7
		c-1,0-8.2,3.2-8.2,0.7c-1.2,0-2.9-1.2-2.9-2.2c-2,0,0.5-2.2-1.5-2.2c0-1.2,0.6-3-0.7-3c0-2,0-4,0-5.9c1.7,0,0.3-4.4,2.2-4.4
		c0-0.9,0.6-3,1.5-3c0-0.7,0-1.5,0-2.2c1.6,0,1.4-10.4,1.4-11.9c3.3,0,2.8,5.9,1.5,5.9c0,1.8,0,3.5,0,5.2c-1.3,0-1.3,3,0,3
		c0,1.8,5.9,0.1,5.9,2.2c2,0,1,0.7,3,0.7c0,1.4,2.9,2.2,2.9,3.7c1.3,0,1.5,3.1,1.5,4.4c2.1,0,0,5.9,0,7.4c-1.5,0-2.5,5.9,0,5.9
		c0,1.2,1.5,1.2,1.5,0c2.3,0,0.6-3.7,2.2-3.7c0-2.3,1.4-2.5,1.4-5.2c0.3,0,0.5,0,0.7,0c0-2,0.7-1,0.7-3c2.2,0-0.7-2.9,1.5-2.9
		c0-1.3-0.5-5.9-1.5-5.9c0-0.7,0-1.5,0-2.2c-2.4,0,0.7-4.6,0.7-2.2c1.3,0,5.2,0.8,5.2-0.7c1.7,0,3-1.3,3-2.9c1.1,0,0.7-0.4,0.7-1.5
		c2,0-0.5-2.2,1.5-2.2c0-1.1,0.4-1.5-0.7-1.5c0-2.4,0.1-3.7-2.2-3.7c0,1.4-2.2,1.6-2.2,3c-1.4,0-6.7,1.3-6.7,2.2
		c-0.8,0-0.7,0.1-0.7-0.7c-2.2,0,0.7-2.4,0.7-2.9c2,0,0.7-3,2.2-3c0-2.1,1.5-2.3,1.5-4.4c2.3,0-0.8-3.7,1.5-3.7c0-0.5,0-1,0-1.4
		c2.1,0-0.7-3,1.4-3c0-3,0-6,0-8.9c-0.8,0-2.2-7.4-2.2-8.9c-0.3,0-0.5,0-0.7,0c0-2.9-0.7-3.1-0.7-5.9c-2,0,0.5-2.2-1.5-2.2
		c0-1.3-2.2-1.2-2.2,0c-0.3,0-0.5,0-0.7,0c0,1.3,0.5,5.9,1.5,5.9c0,0.5,0,1,0,1.5c2.5,0-1,4.4,1.5,4.4c0,1.1-0.5,2.2,0.7,2.2
		c0,1,0,2,0,2.9c-2.3,0,0.8,3.7-1.5,3.7c0,1.2-1.5,1-1.5,2.2c-1.7,0-2.9-1.2-2.9-2.9c-0.8,0-0.7,0.1-0.7-0.7c-2,0,0.5-2.2-1.5-2.2
		c0-3.7,0-7.4,0-11.1c0.3,0,0.5,0,0.7,0c0-1.1,0.5-4.4,1.5-4.4c0-0.3,0-0.5,0-0.7c2,0-0.5-2.2,1.5-2.2c0-0.3,0-0.5,0-0.7
		c1.5,0,1.4-2.2,3.7-2.2c0-0.9,6.5-4.4,7.4-4.4c0-0.3,0-0.5,0-0.7c1.3,0,1.5-1.5,1.5-2.9c-1.8,0-1.8-3,0-3c0-2.6,2.2-1.8,2.2-4.4
		c1.1,0,2.2-4.5,2.2-5.9c-0.3,0-0.5,0-0.7,0c0-1.8-1.5,0.2-1.5,0.7c-1.9,0-0.7,2.9-2.2,2.9c0,1.4-0.7,0.1-0.7,1.5c-2,0,0-3.4,0-4.4
		c2,0,0.7-3,2.2-3c0-1,0-2,0-3c-1.9,0-1,0.7-2.2,0.7c0,2.6-2.2,1.9-2.2,4.5c-1.2,0-2.2,2.4-2.2,3.7c-0.7,0-3.7,3.1-3.7,3.7
		c-2.9,0-2.4,2.9-5.2,2.9c0,0.8,0.1,0.7-0.7,0.7c0,2.6-2.2,1.9-2.2,4.4c-1.1,0-1.5,4.5-2.9,4.5c0,0.3,0,0.5,0,0.7
		c-2.2,0-3,6.5-3,8.9c1.9,0,0.3,10.4,2.2,10.4c0,1.1-0.4,1.5,0.7,1.5c0,1.1,0.4,3.7,1.4,3.7c0,1,0,2,0,3c1.3,0,1.5,4.6,1.5,5.9
		c0.3,0,0.5,0,0.7,0c0,3.5,0,6.9,0,10.4c-2,0,0.5,2.2-1.5,2.2c0,1.2-1.4,1-1.4,2.2c-1.3,0-2.5,0-3.7,0c0-1.4-1.5-0.9-1.5-3
		c-2.2,0,0.6-3-1.4-3c0-0.5,0-1,0-1.4c-2,0,0.5-2.2-1.5-2.2c0-1.2-1.5-1-1.5-2.2c-1.5,0-0.3-2.9-2.2-2.9c0-0.8,0.1-0.7-0.7-0.7
		c0-1,0-2,0-3c1,0,1.5-1.1,1.5-2.2c2.3,0-0.8-3.7,1.5-3.7c0-1.2-0.6-2.9,0.7-2.9c0-0.5,0-1,0-1.5c-1.8,0-0.3-5.9-2.2-5.9
		c0-2.9-0.7-3.5-0.7-6.7c-0.7,0-2.2-1.6-2.2-2.2c-1.5,0-3,0-4.5,0c0-1.6-2.9-1.9-2.9-3c-0.7,0-1.5,0-2.2,0c0,2.4-4.4,0.5-4.4,2.2
		c-2.7,0-1.5,2.2-3,2.2c0,0.3,0,0.5,0,0.7c-1.7,0-3.1,5.9-1.5,5.9c0,1,0,2,0,2.9c1.5,0,2.2,3,3.7,3c0,1.6,2.2,0.9,2.2,2.2
		c2,0,1.5,3.7,3,3.7c0,1,1.4,4.4,2.2,4.4c0,0.7,0,1.5,0,2.2c1.6,0,1.4,9.7,1.4,11.1c-0.3,0-0.5,0-0.7,0c0,2.9-0.7,3.1-0.7,6
		c-2.2,0-3.1,4.4-5.9,4.4c0,1.4-0.7,0.1-0.7,1.5c-0.7,0-1.5,0-2.2,0c0,2.2-3-0.6-3,1.4c-1.4,0-4.4,1.7-4.4,3c-1.6,0-1.4,2.2-3.7,2.2
		c0,0.7-3.1,3.7-3.7,3.7c0,2.3-3.7-0.8-3.7,1.5c-0.5,0-1,0-1.5,0c0,2.1-1.9-0.7,0-0.7c0-2.3,5.2-1.7,5.2-2.9c0.5,0,1,0,1.5,0
		c0-0.6,3.8-4.5,4.4-4.5c0-1.1,1.8-2.2,3-2.2c0-1.4,2.9-2.2,4.4-2.2c0-2.2,3,0.7,3-1.5c0.5,0,1,0,1.5,0c0-1.4,2.2-1.7,2.2-3
		c2,0-0.7-4.1-0.7-5.2c-0.3,0-0.5,0-0.7,0c0-1.2-1.1-2.9-2.2-2.9c0-1.3-2.2-1.2-2.2,0c-0.5,0-1,0-1.5,0c0,1.3-6.1,1.4-7.4,1.4
		c0,0.3,0,0.5,0,0.7c-0.7,0-1.5,0-2.2,0c0,2-2.2-0.5-2.2,1.5c-1.8,0-0.1,5.9-2.2,5.9c0,2.1-2.4,0-2.9,0c0-1.5-3.7-2.5-3.7-0.7
		c-0.3,0-0.5,0-0.7,0c0,2.1-1.4,1.6-1.4,3c-1.1,0-3.7,3.7-1.5,3.7c0-2.1,2.9,0.6,2.9-1.4c1.1,0,1.5,1,1.5,2.2
		c-3.1,0-2.2,2.9-2.2,5.9c1.1,0,1.1,1.5,0,1.5c0,4.4-2.9,3-7.4,3c0,1-4,2.2-5.2,2.2c0-0.3,0-0.5,0-0.7c-1.6,0-0.8-4.5-2.9-4.5
		c0-1.3-3-1.3-3,0c-1.3,0-0.6,2.2-2.2,2.2c0,1.7-1.5-0.2-1.5,1.5c-1.3,0-1.3,2.9,0,2.9c0,2.8,6.7-1.3,6.7,1.5c0.3,0,0.5,0,0.7,0
		c0,2.8-8.2,0.9-8.2,3c-3.3,0,0-3-2.2-3c0-1.8-2.9-1.8-2.9,0c-2.5,0,1,4.4-1.5,4.4c0,2.4-0.1,3.7,2.2,3.7c0-3.4,8.9,0.2,8.9-2.2
		c0.7,0,1.5,0,2.2,0c0-0.6,3-4,3-2.2c1,0,1,0.7,0,0.7c0,1.7-1.3,3-3,3c0,3.6-8.2-1.5-8.2,1.5c-0.8,0-0.7-0.1-0.7,0.7
		c-2.2,0,0.7,2.4,0.7,2.9c1.7,0,3.4,2.2,1.5,2.2c0,1,0,2,0,2.9c0.7,0,2.2,1.6,2.2,2.2c1.7,0-0.3,1.5,1.4,1.5c0,1.8,2.2,0.2,2.2-0.7
		c2,0-0.5-2.2,1.5-2.2c0-2.1,0.2-2.9,2.2-2.9c0-0.7,2.2-3,2.9-3c0-2.2-0.9-3.7,1.5-3.7c0,1.9,0.7,1,0.7,2.9c1.8,0,0.7,3.7-0.7,3.7
		c0,1.7-1.5-0.2-1.5,1.5c-2.1,0-2.2,0.8-2.2,2.9c-2.3,0,0.7,3.5,0.7,3.7c2.4,0,3.7,0.1,3.7-2.2c1.5,0,2.2-3,3.7-3
		c0-2.5,3.4,0.7,3.7,0.7c0,1.8,3.7,0.7,3.7-0.7c2.1,0,0-2.4,0-2.9c-3.4,0-4.7-2.2-2.9-2.2c0-2.5,0-5,0-7.4c0.9,0,4.4,2.9,4.4,0.7
		c0.7,0,1.5,0,2.2,0c0-0.7,2.2-3,2.9-3c0-1.6-0.6-2.2-2.2-2.2c0-1.6-2.9-0.7-2.9-2.2c-2,0,0.5-2.2-1.5-2.2c0-2.1,1.5-2.1,1.5,0
		c1.2,0,1,1.5,2.2,1.5c0,2.3,6.6-0.7,6.7-0.7c0-0.5,0-1,0-1.4c0.9,0,3.7-4.3,3.7-2.2c1.3,0,0.7,1.1,0.7,2.2c-0.7,0-2.2,1.5-2.2,2.2
		c-2.8,0-1.7,3-3.7,3c0,1.2-1.2,2.9-2.2,2.9c0,2.7-2.2,1.5-2.2,3c-0.3,0-0.5,0-0.7,0c0,2-3,0.7-3,2.2c-1.3,0-1.3,2.9,0,2.9
		c0,1.8,3.7,0.7,3.7,2.2c1.4,0,0.1-0.7,1.5-0.7c0-2.2,3,0.7,3-1.5c1.1,0,2.2,0.5,2.2-0.7c0.6,0,3.7-3,3.7-3.7c2.7,0,1.5-2.2,3-2.2
		c0-0.5,0-1,0-1.5c1.6,0,0.9-2.2,2.2-2.2c0-3.7,2.9,0,0.7,0c0,1.5,0,3,0,4.4c1.2,0,1,1.5,2.2,1.5c0,2.5,5.2,0.5,5.2,2.9
		c-1.4,0-0.7,1.8-0.7,3c1.8,0,0.2,2.2-0.7,2.2c0,1.5-2.2,1.3-2.2,3.7c-1.5,0-2.2,3-3.7,3c0,2.4,0.7,2,0.7,4.4
		c-0.7,0-4.4,3.8-4.4,4.4c-1.8,0-0.7,3.7-2.2,3.7c0,1.3-2.2,1.2-2.2,0c-1.5,0-3,0-4.4,0c0,0.8-3.9,3.7,0,3.7c0,2.2,3-0.7,3,1.5
		c1.8,0,1.5,3.7,2.9,3.7C471.1,361.6,471.1,361.8,471.1,362L471.1,362z M350.1,363.5c0-1.3-0.7-0.3-0.7-2.2c-2.2,0,0-4.9,0-6
		c-0.7,0-3-2.2-3-2.9c-2.3,0,0.8-3.7-1.5-3.7c0-2.5,0-4.9,0-7.4c-3.4,0,0.3,3.7-2.2,3.7c0,1.9-1.4-0.7-2.2-0.7c0-2.1-1.5-1.6-1.5-3
		c-3.6,0-5.2-0.2-5.2-3.7c1.4,0,0.1-0.7,1.5-0.7c0-1.8,3.7,0.4,3.7-2.9c-3.4,0,0.6-8.2-1.4-8.2c0-2.2-3,0.7-3-1.5
		c-1.3,0-1.3-3.7,0-3.7c0-1.1,0.5-0.7,1.5-0.7c0,1.8,7.4,1.9,7.4,0c2.3,0-0.8-3.7,1.4-3.7c0-0.8-0.1-0.7,0.7-0.7
		c0-1.7,1.3-2.9,3-2.9c0-0.8,2.7-2.2,0.7-2.2c0-2.3-3.7,0.8-3.7-1.5c-1.4,0-2.9-0.2-2.9-1.5c-1.5,0-2.2-2.9-3.7-2.9
		c0-2.9-0.7-3.1-0.7-5.9c-2.9,0-0.2,2.2-2.2,2.2c0,1.7-2.2,0.9-2.2,2.2c-1.4,0-0.1,0.7-1.5,0.7c0,1.9-3.7,1.5-3.7,4.4
		c-1.2,0-2.2,2.5-2.2,3.7c-1.3,0-0.7,1.1-0.7,2.2c-2.2,0,0.7,3-1.5,3c0,1.7,0,3.4,0,5.2c1.8,0,0.6,3-1.4,3c0-1.5-3-2.2-3-3.7
		c-2.3,0-2.2-2.2-3.7-2.2c0-0.7-1.6-2.2-2.2-2.2c0-2.1-0.7-6.7,1.5-6.7c0-1.2,1.5-1,1.5-2.2c2.6,0,4.4,0.4,4.4-2.2
		c1.4,0,0.7-1.8,0.7-3c-1.4,0-3,0.2-3,1.5c-0.2,0-0.5,0-0.7,0c0,1.8-6.7,0.7-6.7-0.7c-0.8,0-0.7,0.1-0.7-0.7c-1.9,0-2.2-5.2-3.7-5.2
		c0-3.5-1.6-8.9,2.2-8.9c0,0.2,0,0.5,0,0.7c0.9,0,1.4,3.3,1.4,4.4c1.7,0-0.2,1.5,1.5,1.5c0,1.7,5.9,3.4,5.9,1.5c2,0-0.5-2.2,1.5-2.2
		c0-0.7,0-1.4,0-2.2c-1.7,0-0.3-4.5-2.2-4.5c0-0.5,0-1,0-1.5c-1.1,0-2.2-4.5-2.2-5.9c-2.9,0-1-8.9-3-8.9c0-2.4-0.9-13.4,1.5-13.4
		c0-1.2,0.4-3.7,1.5-3.7c0-2.1,1.5-2.9,3.7-2.9c0,0.2,0,0.4,0,0.7c2,0,0,3.5,0,4.5c-2,0,0.5,2.2-1.5,2.2c0,2.3-2.1,11.9,0,11.9
		c0,2.1,1.5,1.6,1.5,2.9c2.9,0,5.2-0.2,5.2-2.9c1.7,0-0.2-1.5,1.5-1.5c0-2,0.7-1,0.7-3c0.2,0,0.5,0,0.7,0c0-2.2,0.5-12.6-2.2-12.6
		c0-2-3.7-1.9-3.7-3.7c-1.6,0-2.2-0.6-2.2-2.2c-0.2,0-0.5,0-0.7,0c0-1.5-2.2-0.3-2.2-3c-1.2,0-1-1.4-2.2-1.4c0-2.4-0.7-2.1-0.7-4.5
		c-2.5,0,1.5-4,1.5-1.4c1.6,0,2.2,2.9,3.7,2.9c0,1.2,1.2,3,2.2,3c0-0.7,0-1.5,0-2.2c-1.4,0-0.1-0.7-1.5-0.7c0-1.4-4.1-5.9-5.2-5.9
		c0-2.3-1.5-1.4-1.5-3.7c-1.3,0-1.4-4.5,0-4.5c0-2.2,2.4,0.7,3,0.7c0,1.4,1.6,4.4,2.9,4.4c0,1.2,1.2,3,2.2,3c0,2.6,2.2-2.2,0-2.2
		c0-0.6-3.1-3.7-3.7-3.7c0-2.3-1.5-1.4-1.5-3.7c-2,0-0.4-6.7-2.2-6.7c0-1.8,3-1.8,3,0c1.6,0,0.2,3,2.2,3c0,0.7,0,1.5,0,2.2
		c0.4,0,3,5,3,5.9c1.7,0,1.3,2.9,2.9,2.9c0,0.2,0,0.5,0,0.7c1.4,0,1.1,3.7,3,3.7c0,1.9,0.7,0.9,0.7,2.2c2,0-0.5,2.2,1.5,2.2
		c0,0.8-0.1,0.7,0.7,0.7c0,3,1.4,3,1.4,5.9c0.2,0,0.5,0,0.7,0c0,4,0,7.9,0,11.9c-1.7,0-0.4,5.2-2.2,5.2c0,1,0,1.9,0,2.9
		c-1.1,0-0.7,0.4-0.7,1.5c-2,0,0.5,2.2-1.5,2.2c0,1.9-0.7,0.9-0.7,2.2c-0.2,0-0.5,0-0.7,0c0,1.3-0.3,6.7-1.5,6.7c0,3.5,0,6.9,0,10.4
		c2,0-0.5,2.2,1.5,2.2c0,1.3,5.9,1.4,5.9,0c1.6,0,0.5-3.7,2.2-3.7c0-0.2,0-0.5,0-0.7c0.2,0,0.5,0,0.7,0c0-1.4-0.2-14.1,1.5-14.1
		c0-0.7,0-1.5,0-2.2c1.1,0,1.3-2.9,2.9-2.9c0-1.2,0-2.5,0-3.7c-0.2,0-0.5,0-0.7,0c0-1.4,0.1-8.9,1.5-8.9c0-0.5,0-1,0-1.5
		c2.3,0-0.8-3.7,1.5-3.7c0-1.8,0.5-5.2,2.2-5.2c0-2,3.7-1.9,3.7,0c0.6,0,3,2.1,3,0c1.6,0,0.8-2.2,2.2-2.2c0-2.3,3.7,0.8,3.7-1.5
		c1,0,1.4-3.4,1.4-4.5c-1.2,0-1.2-2.9,0-2.9c0-1.8,3-0.5,3,0.7c1.4,0,4.4,1.6,4.4,2.9c2,0-0.5,2.2,1.5,2.2c0,0.2,0,0.5,0,0.7
		c2.1,0-0.7,2.9,1.5,2.9c0,2.4,0.7,2.1,0.7,4.5c2,0-0.5,2.2,1.5,2.2c0,2.2,1.4,1.4,1.4,3.7c0.6,0,4.5,3.8,4.5,4.4
		c0.7,0,5.2,4.6,5.2,5.2c2.6,0,0.2,4.4,3.7,4.4c0-1.2,5.2-2.6,5.2-0.7c1.2,0,2.6,3,0.7,3c0,1.1,0.4,1.4-0.7,1.4c0,2.6-0.4,3-3,3
		c0-0.2,0-0.5,0-0.7c-1.5,0-0.3-2.2-2.9-2.2c0,3,1.4,3.1,1.4,6c1.4,0,0.1,0.7,1.5,0.7c0,1.8,4.5-1.5,4.5,1.5c1.8,0,0,1.6,0,2.2
		c-1.2,0-3,1.2-3,2.2c-2.1,0,0.7,2.9-1.5,2.9c0,1.2-1.5,1.2-1.5,0c-1.1,0-1.4-5.4-1.4-6.7c-0.2,0-0.5,0-0.7,0c0-2.7-3.7-3.2-3.7-5.2
		c-3.7,0,0,3.4,0,4.4c0.9,0,2.6,2.2,0.7,2.2c0,2.5-4.4-1-4.4,1.5c-0.7,0-3,2.3-3,2.9c-1.1,0-2.2,0.5-2.2-0.7c-2.3,0,2.4-5.9,3.7-5.9
		c0-2.3-2.2-2.1-2.2-3.7c-1.1,0-1.4-4-1.4-5.2c-1.1,0-2.2,0.5-2.2,1.5c-0.7,0-1.5,0-2.2,0c0-0.7-2-4.4-2.9-4.4c0-1.5-2.2-0.3-2.2-3
		c0.2,0,0.5,0,0.7,0c0-0.9,3.3-1.4,4.4-1.4c0-0.8-0.1-0.7,0.7-0.7c0-2.2,0.9-3.7-1.5-3.7c0,1.2-2.2,1.3-2.2,0
		c-1.7,0-1.8-3.7-3.7-3.7c0-2.4-0.7-2.1-0.7-4.5c-0.7,0-1.5-1.6-1.5,0c-1.6,0-0.8,6.7,0.7,6.7c0,3-0.6,3-3.7,3c0,1.4-1.5,0.9-1.5,3
		c-2,0,0.5,2.2-1.5,2.2c0,1.3-1.4,0.9-1.4,3c-1.8,0-0.6,3.7-2.2,3.7c0,1.9,0.4,5.2-1.5,5.2c0,2,0.7,1,0.7,2.9c2,0-0.5,2.2,1.5,2.2
		c0,2,0.7,1,0.7,2.9c1.7,0,1.2,3,2.9,3c0,0.2,0,0.5,0,0.7c1.2,0,3,5.8,3,7.4c1.6,0,1.4,2.2,3.7,2.2c0,1.8,3,1.2,3,3
		c2.4,0,2.1,0.7,4.4,0.7c0,2,2.2-0.5,2.2,1.5c1.3,0,1.3,3.7,0,3.7c0,1.3-4.4,3.3-4.4,1.5c-1,0-2,0-3,0c0,0.6-1.5,2.2,0.7,2.2
		c0,2,0.7,1,0.7,2.9c1.9,0,0.6,4.4,2.2,4.4c0,2.4-0.7,2.6-0.7,5.2c-2,0,0.5,2.2-1.5,2.2c0,2.1-3-0.7-3-1.4c-1.1,0-0.7-0.4-0.7-1.5
		c-1.3,0-0.7-1.1-0.7-2.2c-0.2,0-0.5,0-0.7,0c0-1.4-0.2-7.4-1.4-7.4c0-2.4-3.2,0.7-0.7,0.7c0,1.7,0,3.4,0,5.2
		c-1.9,0-4.1,5.2-5.9,5.2c0,1,0,1.9,0,2.9c0.6,0,2.2,4.1,2.2,5.2c-0.6,0-4.4,2.2-2.2,2.2c0,1.4,3.7,1.1,3.7,3c1.4,0,0.1,0.7,1.5,0.7
		c0,1.6,3.7,0.2,3.7-0.7c0.5,0,1,0,1.5,0c0-2.6,4,1.4,1.5,1.4c0,1.3,0.8,4.5-0.7,4.5c0,2.1-3-0.7-3-1.5c-3.3,0-0.1,3,0.7,3
		c0,2.4,2,2.9,4.5,2.9c0-2.9,4.4,2.2,1.5,2.2c0,0.7-1.6,2.2-2.2,2.2c0,2-3-0.6-3-1.5c-0.7,0-1.4,0-2.2,0c0-1.3-3.7-0.7-3.7-3.7
		c-1.7,0-0.3-2.9-2.9-2.9c0,2.9,1.4,3,1.4,5.9c1.7,0-0.2,1.5,1.5,1.5c0,3.1,3,1.3,3,4.4c-1.4,0-1.6,2.2-3,2.2
		C353.8,362.6,352.2,363.5,350.1,363.5z"/>
	<path class="st4" d="M348.5,185.3c-0.6-3.2,30.1,4.7,30.3-5.5c0-2.3,3-3.1,3.8-1.4C389.5,192.4,348.7,186.5,348.5,185.3
		L348.5,185.3z M456.4,185.3c-2.4-3.7,1.6-8.1,2.2-5.9c2.6,8.9,32.4,7,32.7,7.8C492.4,189.8,459.6,190.2,456.4,185.3L456.4,185.3z
		 M359.2,276.6c1.1-4.3,1.5-7.4,4.1-4.8C365.5,274.1,358.7,278.3,359.2,276.6L359.2,276.6z M379.7,292.2c-3-2.9-2.7-7.7,0.5-5.5
		C382.4,288.1,380.3,292.7,379.7,292.2L379.7,292.2z M395.5,291.4c0-0.9-7.9-5.2-0.7-5.2C394.8,286.3,397.9,291.4,395.5,291.4
		L395.5,291.4z M397.8,279.2c-0.5-0.1-4,0.3-4.2-3C393.2,269.7,403.4,280.4,397.8,279.2L397.8,279.2z M438.1,276.8
		c-4.1,2.1,2.2-7.4,4.6-4.4C444.7,274.9,440.3,275.7,438.1,276.8L438.1,276.8z M442.3,292.2c-2,3.6-2.2-7.9,1.6-6.3
		C446.7,287.2,443.6,289.9,442.3,292.2L442.3,292.2z M460.1,292.2c-0.1,3.7-6.9-7.6-0.5-6.4C460.8,286,460.2,288.8,460.1,292.2
		L460.1,292.2z M480.2,276.5c4.9,3.6-10.2,1.1-5-3.6C477.5,270.7,478.5,275.2,480.2,276.5L480.2,276.5z M429.7,309.2
		c0-1.1-9.2-4.4,0-4.4C429.7,305.1,435.8,309.2,429.7,309.2L429.7,309.2z M400.7,309.7c0.3,0.3,2.9-2.2,4.2-4
		C408.1,301.6,395.5,305.2,400.7,309.7L400.7,309.7z M411.8,318.2c-1,0.1-3,0.6-3.7-1.9C407,312.4,419.4,317.5,411.8,318.2
		L411.8,318.2z M418.9,325.5c2.1-1.4,5.6-3.3,3.3-4.7C418.3,318.5,414.9,328.2,418.9,325.5L418.9,325.5z M407.4,332.9
		c-0.4-0.3-5.1-0.8-3.5-3.3C406.8,324.9,411.7,336.2,407.4,332.9L407.4,332.9z M423.5,335.6c-3.6,2.5,0.8-8.7,4.9-5
		C430.3,332.3,425.3,334.4,423.5,335.6L423.5,335.6z M386.9,338.6c-1-1.3-7-6.1,0.5-4.9C388.4,333.9,390,342.5,386.9,338.6
		L386.9,338.6z M452.3,343.7c-0.4,4.9-6.9-6.6-0.3-6.2C454,337.6,452.4,341.1,452.3,343.7L452.3,343.7z M371.1,346.4
		c-3-1.4-7.4-1.6-5.4-4.1C368.8,338.3,376.5,348.9,371.1,346.4L371.1,346.4z M458.4,348.8c1.8-0.8,6.1-0.8,4.4-3
		C458.7,340.2,452.4,351.5,458.4,348.8L458.4,348.8z M335.7,349.4c-0.6-5-1.4-7.1,2.9-5.1C340.6,345.3,336,351.6,335.7,349.4
		L335.7,349.4z M504.1,350.7c-0.9,0.3-4.3-3-4.6-3.6c-1.3-3.2,1.3-4.6,3.3-3.4C505.4,345.1,505.2,350.4,504.1,350.7L504.1,350.7z
		 M371.3,361.2c-3.5-2.3-7.3-2.3-4.5-5C370.8,352.4,376.3,364.5,371.3,361.2L371.3,361.2z M462,364.8c-0.2-0.7-0.9-3.1,2.3-5
		c2-1.2,5,0.3,2.4,2.4C465.6,363,462.1,365.1,462,364.8L462,364.8z M477.8,365.8c-3.6,4.6-1.7-7.8,2.7-5.5
		C484.1,362.4,479.3,363.9,477.8,365.8L477.8,365.8z M360.7,369.2c-2.3-3.2-6.1-5.8-2.8-7.2C362.3,360,362.7,372.1,360.7,369.2z"/>
</g>
<g id="Layer_3">
	<g>
		<path class="st3" d="M1031.4,424.2c0,11.6-6.8,18.8-17.6,18.8c-10.8,0-17.6-7.2-17.6-18.8v-250c0-14,4.8-20.8,16-20.8
			c10.4,0,15.2,4.4,24.8,18.4l144,206.8h0.8V172.2c0-11.6,6.8-18.8,17.6-18.8s17.6,7.2,17.6,18.8v250c0,14-4.8,20.8-16,20.8
			c-10.4,0-15.2-4.4-24.8-18.4l-144-206.8h-0.8V424.2z"/>
		<path class="st3" d="M1311.8,407.8h84.8c10,0,17.2,5.2,17.2,16.4c0,11.2-7.2,16.4-17.2,16.4h-101.2c-13.2,0-18.8-8.4-18.8-19.2
			V175c0-10.8,5.6-19.2,18.8-19.2h101.2c10,0,17.2,5.2,17.2,16.4s-7.2,16.4-17.2,16.4h-84.8v93.2h77.2c10,0,17.2,5.2,17.2,16.4
			s-7.2,16.4-17.2,16.4h-77.2V407.8z"/>
		<path class="st3" d="M1491,427.8c-1.6,12.4-9.6,15.2-18.8,15.2c-10.8,0-16.4-7.2-16.4-18c0-4,0.8-9.2,2-16l38.8-228.8
			c3.6-20,14.8-26.8,27.6-26.8c14,0,21.6,5.2,25.6,18.4l60.8,208.4h0.8l60.8-208.4c4-13.2,11.6-18.4,25.6-18.4
			c12.8,0,24,6.8,27.6,26.8l38.8,228.8c1.2,6.8,2,12,2,16c0,10.8-5.6,18-16.4,18c-9.2,0-17.2-2.8-18.8-15.2L1697.8,199h-0.8
			l-68,229.6c-3.6,11.6-10,14.4-18,14.4s-14.4-2.8-18-14.4L1525,199h-0.8L1491,427.8z"/>
		<path class="st3" d="M1928.2,153.4c81.2,0,124.8,70.8,124.8,144.8S2009.4,443,1928.2,443c-81.2,0-124.8-70.8-124.8-144.8
			C1803.4,224.2,1847,153.4,1928.2,153.4z M1928.2,412.6c64,0,87.2-60,87.2-114.4s-23.2-114.4-87.2-114.4s-87.2,60-87.2,114.4
			S1864.2,412.6,1928.2,412.6z"/>
		<path class="st3" d="M2215.8,412.6c42.8,0,61.6-25.6,76.4-25.6c8.4,0,14,6.4,14,16.4c0,18-40.4,39.6-90.4,39.6
			c-82.4,0-124.8-70.8-124.8-144.8s42.4-144.8,126.8-144.8c50.4,0,82.4,27.2,82.4,41.6c0,9.2-5.6,16.8-14.4,16.8c-16,0-24-28-68-28
			c-63.2,0-89.2,60-89.2,114.4S2155.4,412.6,2215.8,412.6z"/>
		<path class="st3" d="M2387.4,424.2c0,11.6-6.8,18.8-17.6,18.8s-17.6-7.2-17.6-18.8v-250c0-14,4.8-20.8,16-20.8
			c10.4,0,15.2,4.4,24.8,18.4l144,206.8h0.8V172.2c0-11.6,6.8-18.8,17.6-18.8s17.6,7.2,17.6,18.8v250c0,14-4.8,20.8-16,20.8
			c-10.4,0-15.2-4.4-24.8-18.4l-144-206.8h-0.8V424.2z"/>
		<path class="st3" d="M2667.8,424.2c0,11.6-6.8,18.8-17.6,18.8s-17.6-7.2-17.6-18.8v-252c0-11.6,6.8-18.8,17.6-18.8
			s17.6,7.2,17.6,18.8V424.2z"/>
		<path class="st3" d="M2841.4,412.6c42.8,0,61.6-25.6,76.4-25.6c8.4,0,14,6.4,14,16.4c0,18-40.4,39.6-90.4,39.6
			c-82.4,0-124.8-70.8-124.8-144.8s42.4-144.8,126.8-144.8c50.4,0,82.4,27.2,82.4,41.6c0,9.2-5.6,16.8-14.4,16.8c-16,0-24-28-68-28
			c-63.2,0-89.2,60-89.2,114.4S2781,412.6,2841.4,412.6z"/>
		<path class="st3" d="M3013,407.8h84.8c10,0,17.2,5.2,17.2,16.4c0,11.2-7.2,16.4-17.2,16.4h-101.2c-13.2,0-18.8-8.4-18.8-19.2V175
			c0-10.8,5.6-19.2,18.8-19.2h101.2c10,0,17.2,5.2,17.2,16.4s-7.2,16.4-17.2,16.4H3013v93.2h77.2c10,0,17.2,5.2,17.2,16.4
			s-7.2,16.4-17.2,16.4H3013V407.8z"/>
	</g>
	<g>
		<path class="st3" d="M987.9,668.4c-6.1,0-10.9-0.9-14.5-2.6v-14.2c4.6,1.3,9.4,2,14.5,2c6.4,0,11.3-2,14.7-5.9s5-9.5,5-16.9V488.1
			h16.6v141.4c0,12.4-3.1,22-9.4,28.8C1008.6,665,999.6,668.4,987.9,668.4z"/>
		<path class="st3" d="M1061.3,494.8c0-3.7,0.9-6.4,2.7-8.2c1.8-1.7,4.1-2.6,6.8-2.6c2.6,0,4.8,0.9,6.7,2.6c1.9,1.8,2.8,4.5,2.8,8.1
			s-0.9,6.4-2.8,8.2c-1.9,1.8-4.1,2.7-6.7,2.7c-2.7,0-5-0.9-6.8-2.7C1062.2,501.2,1061.3,498.4,1061.3,494.8z M1078.9,630.8h-16.2
			v-107h16.2V630.8z"/>
		<path class="st3" d="M1189.5,630.8v-69.2c0-8.7-2-15.2-6-19.5s-10.2-6.4-18.7-6.4c-11.2,0-19.4,3-24.6,9.1s-7.8,16-7.8,30V631
			h-16.2V524h13.2l2.6,14.6h0.8c3.3-5.3,8-9.4,14-12.3c6-2.9,12.7-4.3,20-4.3c12.9,0,22.6,3.1,29.1,9.3s9.8,16.2,9.8,29.8v69.8
			L1189.5,630.8L1189.5,630.8z"/>
		<path class="st3" d="M1314.8,616.5h-0.9c-7.5,10.9-18.7,16.3-33.6,16.3c-14,0-24.9-4.8-32.7-14.4c-7.8-9.6-11.7-23.2-11.7-40.8
			s3.9-31.3,11.7-41.1s18.7-14.6,32.6-14.6c14.5,0,25.6,5.3,33.4,15.8h1.3l-0.7-7.7l-0.4-7.5v-43.6h16.2v152h-13L1314.8,616.5z
			 M1282.4,619.2c11.1,0,19.1-3,24.1-9s7.5-15.7,7.5-29.2v-3.4c0-15.2-2.5-26-7.6-32.5c-5-6.5-13.1-9.7-24.2-9.7
			c-9.5,0-16.8,3.7-21.8,11.1c-5,7.4-7.6,17.8-7.6,31.3c0,13.7,2.5,24,7.5,31C1265.4,615.7,1272.7,619.2,1282.4,619.2z"/>
		<path class="st3" d="M1363,477.6h11.2c7.4,4.8,14.6,11,21.4,18.5c8.5-8.5,15.7-14.6,21.6-18.5h11.6v2.4l-6.4,6.6
			c-9.4,9.6-15.6,17.3-18.6,22.9h-16.2c-1.5-2.7-3.9-6.1-7.2-10.2s-9.1-10.6-17.4-19.4V477.6z M1416.4,521.8c4.8,0,9,0.4,12.8,1.2
			l-2.2,15c-4.4-1-8.3-1.5-11.7-1.5c-8.7,0-16.1,3.5-22.2,10.5s-9.2,15.8-9.2,26.3v57.4h-16.2v-107h13.4l1.9,19.8h0.8
			c4-7,8.8-12.3,14.4-16.1C1403.5,523.7,1409.7,521.8,1416.4,521.8z"/>
		<path class="st3" d="M1450.8,494.8c0-3.7,0.9-6.4,2.7-8.2c1.8-1.7,4.1-2.6,6.8-2.6c2.6,0,4.8,0.9,6.7,2.6c1.9,1.8,2.8,4.5,2.8,8.1
			s-0.9,6.4-2.8,8.2c-1.9,1.8-4.1,2.7-6.7,2.7c-2.7,0-5-0.9-6.8-2.7C1451.7,501.2,1450.8,498.4,1450.8,494.8z M1468.4,630.8h-16.2
			v-107h16.2V630.8z"/>
		<path class="st3" d="M1548.5,632.8c-15.5,0-27.5-4.8-36-14.3s-12.7-23-12.7-40.5c0-17.9,4.3-31.7,12.9-41.5s20.9-14.6,36.9-14.6
			c5.1,0,10.3,0.6,15.4,1.7c5.1,1.1,9.2,2.4,12.1,3.9l-5,13.8c-3.6-1.4-7.5-2.6-11.7-3.6c-4.2-0.9-8-1.4-11.2-1.4
			c-21.7,0-32.6,13.9-32.6,41.6c0,13.2,2.7,23.2,8,30.3c5.3,7,13.2,10.5,23.6,10.5c8.9,0,18.1-1.9,27.4-5.8v14.4
			C1568.4,630.9,1559.4,632.8,1548.5,632.8z"/>
		<path class="st3" d="M1677.2,630.8v-69.2c0-8.7-2-15.2-6-19.5s-10.2-6.4-18.7-6.4c-11.3,0-19.5,3.1-24.7,9.2
			c-5.2,6.1-7.8,16.1-7.8,30.1v56h-16V479h16.2v46c0,5.5-0.3,10.1-0.8,13.8h1c3.2-5.1,7.7-9.2,13.6-12.2s12.6-4.4,20.2-4.4
			c13.1,0,22.9,3.1,29.4,9.3s9.8,16.1,9.8,29.6v69.8L1677.2,630.8L1677.2,630.8z"/>
		<path class="st3" d="M1745,523.8v69.4c0,8.7,2,15.2,6,19.5s10.2,6.4,18.7,6.4c11.2,0,19.4-3.1,24.6-9.2c5.2-6.1,7.8-16.1,7.8-30
			v-56.3h16.2v107h-13.4l-2.3-14.4h-0.9c-3.3,5.3-7.9,9.3-13.8,12.1s-12.6,4.2-20.2,4.2c-13,0-22.8-3.1-29.2-9.3
			c-6.5-6.2-9.7-16.1-9.7-29.7v-70h16.2V523.8z M1795.4,488.5c0,6.4-2,11.5-6,15.4s-9.3,5.8-16,5.8c-6.6,0-11.8-1.9-15.7-5.7
			s-5.9-8.9-5.9-15.3s2-11.4,5.9-15.2c3.9-3.7,9.2-5.6,15.7-5.6c6.6,0,11.9,1.9,15.9,5.8C1793.3,477.5,1795.4,482.5,1795.4,488.5z
			 M1784.8,488.6c0-3.6-1.1-6.5-3.2-8.4c-2.1-2-4.9-3-8.2-3s-6.1,1-8.2,3s-3.2,4.8-3.2,8.4s1,6.5,2.9,8.4c2,2,4.8,3,8.5,3
			c3.4,0,6.1-1,8.3-3C1783.8,495.1,1784.8,492.3,1784.8,488.6z"/>
		<path class="st3" d="M1878.9,630.8l-40.6-107h17.4l23,63.5c5.2,14.8,8.3,24.5,9.2,28.9h0.8c0.7-3.5,3-10.6,6.8-21.4
			s12.4-34.5,25.6-70.9h17.4l-40.6,107L1878.9,630.8L1878.9,630.8z"/>
		<path class="st3" d="M2124.5,630.8h-16.6v-67.2h-75.2v67.2h-16.6V488.1h16.6v60.7h75.2v-60.7h16.6V630.8z"/>
		<path class="st3" d="M2213,521.8c4.8,0,9,0.4,12.8,1.2l-2.2,15c-4.4-1-8.3-1.5-11.7-1.5c-8.7,0-16.1,3.5-22.2,10.5
			s-9.2,15.8-9.2,26.3v57.4h-16.2v-107h13.4l1.9,19.8h0.8c4-7,8.8-12.3,14.4-16.1C2200.2,523.7,2206.3,521.8,2213,521.8z"/>
		<path class="st3" d="M2314.7,630.8l-3.2-15.2h-0.8c-5.3,6.7-10.7,11.2-16,13.6c-5.3,2.4-11.9,3.6-19.9,3.6
			c-10.6,0-18.9-2.7-25-8.2c-6-5.5-9-13.2-9-23.3c0-21.6,17.3-32.9,51.9-34l18.2-0.6V560c0-8.4-1.8-14.6-5.4-18.6s-9.4-6-17.3-6
			c-8.9,0-19,2.7-30.3,8.2l-5-12.4c5.3-2.9,11.1-5.1,17.3-6.7c6.3-1.6,12.6-2.4,18.9-2.4c12.8,0,22.2,2.8,28.4,8.5
			s9.2,14.7,9.2,27.2v73H2314.7z M2278,619.4c10.1,0,18-2.8,23.8-8.3s8.6-13.3,8.6-23.2v-9.7l-16.2,0.7c-12.9,0.5-22.2,2.5-27.9,6
			s-8.5,9.1-8.5,16.6c0,5.9,1.8,10.3,5.3,13.4C2266.7,617.9,2271.7,619.4,2278,619.4z"/>
		<path class="st3" d="M2435.9,616.5h-0.9c-7.5,10.9-18.7,16.3-33.6,16.3c-14,0-24.9-4.8-32.7-14.4c-7.8-9.6-11.7-23.2-11.7-40.8
			s3.9-31.3,11.7-41.1s18.7-14.6,32.6-14.6c14.5,0,25.7,5.3,33.4,15.8h1.3l-0.7-7.7l-0.4-7.5v-43.6h16.2v152h-13.2L2435.9,616.5z
			 M2403.5,619.2c11.1,0,19.1-3,24.1-9s7.5-15.7,7.5-29.2v-3.4c0-15.2-2.5-26-7.6-32.5c-5-6.5-13.1-9.7-24.2-9.7
			c-9.5,0-16.8,3.7-21.8,11.1c-5,7.4-7.6,17.8-7.6,31.3c0,13.7,2.5,24,7.5,31C2386.4,615.7,2393.8,619.2,2403.5,619.2z"/>
		<path class="st3" d="M2533.8,632.8c-15.8,0-28.3-4.8-37.5-14.5c-9.1-9.6-13.7-23-13.7-40.1c0-17.3,4.2-31,12.7-41.1
			s19.9-15.2,34.2-15.2c13.4,0,24,4.4,31.8,13.2s11.7,20.5,11.7,34.9v10.3h-73.7c0.3,12.6,3.5,22.1,9.5,28.6s14.5,9.8,25.4,9.8
			c11.5,0,22.9-2.4,34.2-7.2V626c-5.7,2.5-11.1,4.2-16.3,5.3C2547.2,632.3,2541.1,632.8,2533.8,632.8z M2529.4,535.4
			c-8.6,0-15.4,2.8-20.6,8.4c-5.1,5.6-8.1,13.3-9,23.2h56c0-10.2-2.3-18-6.8-23.5C2544.4,538.1,2537.9,535.4,2529.4,535.4z"/>
		<path class="st3" d="M2646.6,632.8c-15.5,0-27.5-4.8-36-14.3s-12.7-23-12.7-40.5c0-17.9,4.3-31.7,12.9-41.5
			c8.6-9.8,20.9-14.6,36.9-14.6c5.1,0,10.3,0.6,15.4,1.7c5.1,1.1,9.2,2.4,12.1,3.9l-5,13.8c-3.6-1.4-7.5-2.6-11.7-3.6
			c-4.2-0.9-8-1.4-11.2-1.4c-21.7,0-32.6,13.9-32.6,41.6c0,13.2,2.7,23.2,8,30.3c5.3,7,13.2,10.5,23.6,10.5c8.9,0,18.1-1.9,27.4-5.8
			v14.4C2666.5,630.9,2657.5,632.8,2646.6,632.8z"/>
	</g>
</g>
</svg>
